# This file uses centimeters as units for non-parametric coordinates.

v 0.000000 0.000496 1.000000
v 1.000000 0.000496 1.000000
v 1.000000 0.132074 1.000000
v 0.000000 0.132074 1.000000
v 0.000000 0.000496 0.000000
v 0.000000 0.132074 0.000000
v 1.000000 0.000496 0.000000
v 1.000000 0.132074 0.000000
v 0.025000 0.132074 0.025000
v 0.975000 0.132074 0.025000
v 0.975000 0.132074 0.975000
v 0.025000 0.132074 0.975000
v 0.975000 0.063779 0.975000
v 0.025000 0.063779 0.975000
v 0.025000 0.063779 0.025000
v 0.975000 0.063779 0.025000
vt 0.375000 0.000000
vt 0.625000 0.000000
vt 0.625000 0.250000
vt 0.375000 0.250000
vt 0.125000 0.000000
vt 0.125000 0.250000
vt 0.375000 0.750000
vt 0.625000 0.750000
vt 0.625000 1.000000
vt 0.375000 1.000000
vt 0.875000 0.000000
vt 0.875000 0.250000
vt 0.625000 0.500000
vt 0.375000 0.500000
vt 0.381250 0.493750
vt 0.618750 0.493750
vt 0.618750 0.256250
vt 0.381250 0.256250
vt 0.375000 0.218359
vt 0.625000 0.218359
vt 0.625000 0.000000
vt 0.375000 0.000000
vt 0.125000 0.218359
vt 0.125000 0.000000
vt 0.375000 0.750000
vt 0.375000 1.000000
vt 0.625000 1.000000
vt 0.625000 0.750000
vt 0.875000 0.218359
vt 0.875000 0.000000
vt 0.625000 0.531641
vt 0.375000 0.531641
vn 0.000000 0.000000 1.000000
vn 0.000000 0.000000 1.000000
vn 0.000000 0.000000 1.000000
vn 0.000000 0.000000 1.000000
vn -1.000000 0.000000 0.000000
vn -1.000000 0.000000 0.000000
vn -1.000000 0.000000 0.000000
vn -1.000000 0.000000 0.000000
vn 0.000000 -1.000000 0.000000
vn 0.000000 -1.000000 0.000000
vn 0.000000 -1.000000 0.000000
vn 0.000000 -1.000000 0.000000
vn 1.000000 0.000000 0.000000
vn 1.000000 0.000000 0.000000
vn 1.000000 0.000000 0.000000
vn 1.000000 0.000000 0.000000
vn 0.000000 1.000000 0.000000
vn 0.000000 1.000000 0.000000
vn 0.000000 1.000000 0.000000
vn 0.000000 1.000000 0.000000
vn 0.000000 1.000000 0.000000
vn 0.000000 1.000000 0.000000
vn 0.000000 1.000000 0.000000
vn 0.000000 1.000000 0.000000
vn 0.000000 0.000000 -1.000000
vn 0.000000 0.000000 -1.000000
vn 0.000000 0.000000 -1.000000
vn 0.000000 0.000000 -1.000000
vn 0.000000 0.000000 -1.000000
vn 0.000000 0.000000 -1.000000
vn 0.000000 0.000000 -1.000000
vn 0.000000 0.000000 -1.000000
vn 1.000000 0.000000 0.000000
vn 1.000000 0.000000 0.000000
vn 1.000000 0.000000 0.000000
vn 1.000000 0.000000 0.000000
vn 0.000000 1.000000 0.000000
vn 0.000000 1.000000 0.000000
vn 0.000000 1.000000 0.000000
vn 0.000000 1.000000 0.000000
vn -1.000000 0.000000 0.000000
vn -1.000000 0.000000 0.000000
vn -1.000000 0.000000 0.000000
vn -1.000000 0.000000 0.000000
vn 0.000000 0.000000 1.000000
vn 0.000000 0.000000 1.000000
vn 0.000000 0.000000 1.000000
vn 0.000000 0.000000 1.000000
g pCube3
f 1/1/1 2/2/2 3/3/3 4/4/4
f 5/5/5 1/1/6 4/4/7 6/6/8
f 5/7/9 7/8/10 2/9/11 1/10/12
f 2/2/13 7/11/14 8/12/15 3/3/16
f 3/3/17 8/13/18 6/14/19 9/15/20 10/16/21 11/17/22
f 4/4/23 3/3/17 11/17/22 12/18/24 9/15/20 6/14/19
f 6/14/25 8/13/26 7/8/27 5/7/28
f 12/19/29 11/20/30 13/21/31 14/22/32
f 9/23/33 12/19/34 14/22/35 15/24/36
f 15/25/37 14/26/38 13/27/39 16/28/40
f 11/20/41 10/29/42 16/30/43 13/21/44
f 10/31/45 9/32/46 15/25/47 16/28/48
v 0.482228 0.065517 0.275261
v 0.972278 0.065517 0.275261
v 0.482228 0.194627 0.275261
v 0.972278 0.194627 0.275261
v 0.482228 0.194627 0.026116
v 0.972278 0.194627 0.026116
v 0.482228 0.065517 0.026116
v 0.972278 0.065517 0.026116
vt 0.375000 0.000000
vt 0.625000 0.000000
vt 0.375000 0.250000
vt 0.625000 0.250000
vt 0.375000 0.500000
vt 0.625000 0.500000
vt 0.375000 0.750000
vt 0.625000 0.750000
vt 0.375000 1.000000
vt 0.625000 1.000000
vt 0.875000 0.000000
vt 0.875000 0.250000
vt 0.125000 0.000000
vt 0.125000 0.250000
vn 0.000000 0.000000 1.000000
vn 0.000000 0.000000 1.000000
vn 0.000000 0.000000 1.000000
vn 0.000000 0.000000 1.000000
vn 0.000000 1.000000 0.000000
vn 0.000000 1.000000 0.000000
vn 0.000000 1.000000 0.000000
vn 0.000000 1.000000 0.000000
vn 0.000000 0.000000 -1.000000
vn 0.000000 0.000000 -1.000000
vn 0.000000 0.000000 -1.000000
vn 0.000000 0.000000 -1.000000
vn 0.000000 -1.000000 0.000000
vn 0.000000 -1.000000 0.000000
vn 0.000000 -1.000000 0.000000
vn 0.000000 -1.000000 0.000000
vn 1.000000 0.000000 0.000000
vn 1.000000 0.000000 0.000000
vn 1.000000 0.000000 0.000000
vn 1.000000 0.000000 0.000000
vn -1.000000 0.000000 0.000000
vn -1.000000 0.000000 0.000000
vn -1.000000 0.000000 0.000000
vn -1.000000 0.000000 0.000000
g pCube4
f 17/33/49 18/34/50 20/36/51 19/35/52
f 19/35/53 20/36/54 22/38/55 21/37/56
f 21/37/57 22/38/58 24/40/59 23/39/60
f 23/39/61 24/40/62 18/42/63 17/41/64
f 18/34/65 24/43/66 22/44/67 20/36/68
f 23/45/69 17/33/70 19/35/71 21/46/72
v 0.973725 0.065517 0.972016
v 0.973725 0.065517 0.481966
v 0.973725 0.194627 0.972016
v 0.973725 0.194627 0.481966
v 0.724580 0.194627 0.972016
v 0.724580 0.194627 0.481966
v 0.724580 0.065517 0.972016
v 0.724580 0.065517 0.481966
vt 0.375000 0.000000
vt 0.625000 0.000000
vt 0.375000 0.250000
vt 0.625000 0.250000
vt 0.375000 0.500000
vt 0.625000 0.500000
vt 0.375000 0.750000
vt 0.625000 0.750000
vt 0.375000 1.000000
vt 0.625000 1.000000
vt 0.875000 0.000000
vt 0.875000 0.250000
vt 0.125000 0.000000
vt 0.125000 0.250000
vn 1.000000 0.000000 0.000000
vn 1.000000 0.000000 0.000000
vn 1.000000 0.000000 0.000000
vn 1.000000 0.000000 0.000000
vn 0.000000 1.000000 0.000000
vn 0.000000 1.000000 0.000000
vn 0.000000 1.000000 0.000000
vn 0.000000 1.000000 0.000000
vn -1.000000 0.000000 -0.000000
vn -1.000000 0.000000 -0.000000
vn -1.000000 0.000000 -0.000000
vn -1.000000 0.000000 -0.000000
vn 0.000000 -1.000000 0.000000
vn 0.000000 -1.000000 0.000000
vn 0.000000 -1.000000 0.000000
vn 0.000000 -1.000000 0.000000
vn 0.000000 0.000000 -1.000000
vn 0.000000 0.000000 -1.000000
vn 0.000000 0.000000 -1.000000
vn 0.000000 0.000000 -1.000000
vn -0.000000 0.000000 1.000000
vn -0.000000 0.000000 1.000000
vn -0.000000 0.000000 1.000000
vn -0.000000 0.000000 1.000000
g pCube5
f 25/47/73 26/48/74 28/50/75 27/49/76
f 27/49/77 28/50/78 30/52/79 29/51/80
f 29/51/81 30/52/82 32/54/83 31/53/84
f 31/53/85 32/54/86 26/56/87 25/55/88
f 26/48/89 32/57/90 30/58/91 28/50/92
f 31/59/93 25/47/94 27/49/95 29/60/96
v 0.673809 0.065517 0.766926
v 0.673809 0.065517 0.687056
v 0.673809 0.194627 0.766926
v 0.673809 0.194627 0.687056
v 0.595864 0.194627 0.766926
v 0.595864 0.194627 0.687056
v 0.595864 0.065517 0.766926
v 0.595864 0.065517 0.687056
vt 0.375000 0.000000
vt 0.625000 0.000000
vt 0.375000 0.250000
vt 0.625000 0.250000
vt 0.375000 0.500000
vt 0.625000 0.500000
vt 0.375000 0.750000
vt 0.625000 0.750000
vt 0.375000 1.000000
vt 0.625000 1.000000
vt 0.875000 0.000000
vt 0.875000 0.250000
vt 0.125000 0.000000
vt 0.125000 0.250000
vn 1.000000 0.000000 0.000000
vn 1.000000 0.000000 0.000000
vn 1.000000 0.000000 0.000000
vn 1.000000 0.000000 0.000000
vn 0.000000 1.000000 0.000000
vn 0.000000 1.000000 0.000000
vn 0.000000 1.000000 0.000000
vn 0.000000 1.000000 0.000000
vn -1.000000 0.000000 -0.000000
vn -1.000000 0.000000 -0.000000
vn -1.000000 0.000000 -0.000000
vn -1.000000 0.000000 -0.000000
vn 0.000000 -1.000000 0.000000
vn 0.000000 -1.000000 0.000000
vn 0.000000 -1.000000 0.000000
vn 0.000000 -1.000000 0.000000
vn 0.000000 0.000000 -1.000000
vn 0.000000 0.000000 -1.000000
vn 0.000000 0.000000 -1.000000
vn 0.000000 0.000000 -1.000000
vn -0.000000 0.000000 1.000000
vn -0.000000 0.000000 1.000000
vn -0.000000 0.000000 1.000000
vn -0.000000 0.000000 1.000000
g pCube6
f 33/61/97 34/62/98 36/64/99 35/63/100
f 35/63/101 36/64/102 38/66/103 37/65/104
f 37/65/105 38/66/106 40/68/107 39/67/108
f 39/67/109 40/68/110 34/70/111 33/69/112
f 34/62/113 40/71/114 38/72/115 36/64/116
f 39/73/117 33/61/118 35/63/119 37/74/120
v 0.159032 0.073080 0.834342
v 0.352488 0.073080 0.834342
v 0.545945 0.073080 0.834342
v 0.159032 0.073080 0.640886
v 0.352488 0.073080 0.640886
v 0.545945 0.073080 0.640886
v 0.159032 0.073080 0.447430
v 0.352488 0.073080 0.447430
v 0.545945 0.073080 0.447430
vt 0.000000 0.000000
vt 0.500000 0.000000
vt 1.000000 0.000000
vt 0.000000 0.500000
vt 0.500000 0.500000
vt 1.000000 0.500000
vt 0.000000 1.000000
vt 0.500000 1.000000
vt 1.000000 1.000000
vn 0.000000 1.000000 0.000000
vn 0.000000 1.000000 0.000000
vn 0.000000 1.000000 0.000000
vn 0.000000 1.000000 0.000000
vn 0.000000 1.000000 0.000000
vn 0.000000 1.000000 0.000000
vn 0.000000 1.000000 0.000000
vn 0.000000 1.000000 0.000000
vn 0.000000 1.000000 0.000000
g pPlane1
f 41/75/121 42/76/122 45/79/123 44/78/124
f 42/76/122 43/77/125 46/80/126 45/79/123
f 44/78/124 45/79/123 48/82/127 47/81/128
f 45/79/123 46/80/126 49/83/129 48/82/127
v 0.000000 0.000496 1.000000
v 1.000000 0.000496 1.000000
v 1.000000 0.132074 1.000000
v 0.000000 0.132074 1.000000
v 0.000000 0.000496 0.000000
v 0.000000 0.132074 0.000000
v 1.000000 0.000496 0.000000
v 1.000000 0.132074 0.000000
v 0.025000 0.132074 0.025000
v 0.975000 0.132074 0.025000
v 0.975000 0.132074 0.975000
v 0.025000 0.132074 0.975000
v 0.975000 0.063779 0.975000
v 0.025000 0.063779 0.975000
v 0.025000 0.063779 0.025000
v 0.975000 0.063779 0.025000
vt 0.375000 0.000000
vt 0.625000 0.000000
vt 0.625000 0.250000
vt 0.375000 0.250000
vt 0.125000 0.000000
vt 0.125000 0.250000
vt 0.375000 0.750000
vt 0.625000 0.750000
vt 0.625000 1.000000
vt 0.375000 1.000000
vt 0.875000 0.000000
vt 0.875000 0.250000
vt 0.625000 0.500000
vt 0.375000 0.500000
vt 0.381250 0.493750
vt 0.618750 0.493750
vt 0.618750 0.256250
vt 0.381250 0.256250
vt 0.375000 0.218359
vt 0.625000 0.218359
vt 0.625000 0.000000
vt 0.375000 0.000000
vt 0.125000 0.218359
vt 0.125000 0.000000
vt 0.375000 0.750000
vt 0.375000 1.000000
vt 0.625000 1.000000
vt 0.625000 0.750000
vt 0.875000 0.218359
vt 0.875000 0.000000
vt 0.625000 0.531641
vt 0.375000 0.531641
vn 0.000000 0.000000 1.000000
vn 0.000000 0.000000 1.000000
vn 0.000000 0.000000 1.000000
vn 0.000000 0.000000 1.000000
vn -1.000000 0.000000 0.000000
vn -1.000000 0.000000 0.000000
vn -1.000000 0.000000 0.000000
vn -1.000000 0.000000 0.000000
vn 0.000000 -1.000000 0.000000
vn 0.000000 -1.000000 0.000000
vn 0.000000 -1.000000 0.000000
vn 0.000000 -1.000000 0.000000
vn 1.000000 0.000000 0.000000
vn 1.000000 0.000000 0.000000
vn 1.000000 0.000000 0.000000
vn 1.000000 0.000000 0.000000
vn 0.000000 1.000000 0.000000
vn 0.000000 1.000000 0.000000
vn 0.000000 1.000000 0.000000
vn 0.000000 1.000000 0.000000
vn 0.000000 1.000000 0.000000
vn 0.000000 1.000000 0.000000
vn 0.000000 1.000000 0.000000
vn 0.000000 1.000000 0.000000
vn 0.000000 0.000000 -1.000000
vn 0.000000 0.000000 -1.000000
vn 0.000000 0.000000 -1.000000
vn 0.000000 0.000000 -1.000000
vn 0.000000 0.000000 -1.000000
vn 0.000000 0.000000 -1.000000
vn 0.000000 0.000000 -1.000000
vn 0.000000 0.000000 -1.000000
vn 1.000000 0.000000 0.000000
vn 1.000000 0.000000 0.000000
vn 1.000000 0.000000 0.000000
vn 1.000000 0.000000 0.000000
vn 0.000000 1.000000 0.000000
vn 0.000000 1.000000 0.000000
vn 0.000000 1.000000 0.000000
vn 0.000000 1.000000 0.000000
vn -1.000000 0.000000 0.000000
vn -1.000000 0.000000 0.000000
vn -1.000000 0.000000 0.000000
vn -1.000000 0.000000 0.000000
vn 0.000000 0.000000 1.000000
vn 0.000000 0.000000 1.000000
vn 0.000000 0.000000 1.000000
vn 0.000000 0.000000 1.000000
g pCube12
f 50/84/130 51/85/131 52/86/132 53/87/133
f 54/88/134 50/84/135 53/87/136 55/89/137
f 54/90/138 56/91/139 51/92/140 50/93/141
f 51/85/142 56/94/143 57/95/144 52/86/145
f 52/86/146 57/96/147 55/97/148 58/98/149 59/99/150 60/100/151
f 53/87/152 52/86/146 60/100/151 61/101/153 58/98/149 55/97/148
f 55/97/154 57/96/155 56/91/156 54/90/157
f 61/102/158 60/103/159 62/104/160 63/105/161
f 58/106/162 61/102/163 63/105/164 64/107/165
f 64/108/166 63/109/167 62/110/168 65/111/169
f 60/103/170 59/112/171 65/113/172 62/104/173
f 59/114/174 58/115/175 64/108/176 65/111/177
v 0.482228 0.065517 0.275261
v 0.972278 0.065517 0.275261
v 0.482228 0.194627 0.275261
v 0.972278 0.194627 0.275261
v 0.482228 0.194627 0.026116
v 0.972278 0.194627 0.026116
v 0.482228 0.065517 0.026116
v 0.972278 0.065517 0.026116
vt 0.375000 0.000000
vt 0.625000 0.000000
vt 0.375000 0.250000
vt 0.625000 0.250000
vt 0.375000 0.500000
vt 0.625000 0.500000
vt 0.375000 0.750000
vt 0.625000 0.750000
vt 0.375000 1.000000
vt 0.625000 1.000000
vt 0.875000 0.000000
vt 0.875000 0.250000
vt 0.125000 0.000000
vt 0.125000 0.250000
vn 0.000000 0.000000 1.000000
vn 0.000000 0.000000 1.000000
vn 0.000000 0.000000 1.000000
vn 0.000000 0.000000 1.000000
vn 0.000000 1.000000 0.000000
vn 0.000000 1.000000 0.000000
vn 0.000000 1.000000 0.000000
vn 0.000000 1.000000 0.000000
vn 0.000000 0.000000 -1.000000
vn 0.000000 0.000000 -1.000000
vn 0.000000 0.000000 -1.000000
vn 0.000000 0.000000 -1.000000
vn 0.000000 -1.000000 0.000000
vn 0.000000 -1.000000 0.000000
vn 0.000000 -1.000000 0.000000
vn 0.000000 -1.000000 0.000000
vn 1.000000 0.000000 0.000000
vn 1.000000 0.000000 0.000000
vn 1.000000 0.000000 0.000000
vn 1.000000 0.000000 0.000000
vn -1.000000 0.000000 0.000000
vn -1.000000 0.000000 0.000000
vn -1.000000 0.000000 0.000000
vn -1.000000 0.000000 0.000000
g pCube13
f 66/116/178 67/117/179 69/119/180 68/118/181
f 68/118/182 69/119/183 71/121/184 70/120/185
f 70/120/186 71/121/187 73/123/188 72/122/189
f 72/122/190 73/123/191 67/125/192 66/124/193
f 67/117/194 73/126/195 71/127/196 69/119/197
f 72/128/198 66/116/199 68/118/200 70/129/201
v 0.973725 0.065517 0.972016
v 0.973725 0.065517 0.481966
v 0.973725 0.194627 0.972016
v 0.973725 0.194627 0.481966
v 0.724580 0.194627 0.972016
v 0.724580 0.194627 0.481966
v 0.724580 0.065517 0.972016
v 0.724580 0.065517 0.481966
vt 0.375000 0.000000
vt 0.625000 0.000000
vt 0.375000 0.250000
vt 0.625000 0.250000
vt 0.375000 0.500000
vt 0.625000 0.500000
vt 0.375000 0.750000
vt 0.625000 0.750000
vt 0.375000 1.000000
vt 0.625000 1.000000
vt 0.875000 0.000000
vt 0.875000 0.250000
vt 0.125000 0.000000
vt 0.125000 0.250000
vn 1.000000 0.000000 0.000000
vn 1.000000 0.000000 0.000000
vn 1.000000 0.000000 0.000000
vn 1.000000 0.000000 0.000000
vn 0.000000 1.000000 0.000000
vn 0.000000 1.000000 0.000000
vn 0.000000 1.000000 0.000000
vn 0.000000 1.000000 0.000000
vn -1.000000 0.000000 -0.000000
vn -1.000000 0.000000 -0.000000
vn -1.000000 0.000000 -0.000000
vn -1.000000 0.000000 -0.000000
vn 0.000000 -1.000000 0.000000
vn 0.000000 -1.000000 0.000000
vn 0.000000 -1.000000 0.000000
vn 0.000000 -1.000000 0.000000
vn 0.000000 0.000000 -1.000000
vn 0.000000 0.000000 -1.000000
vn 0.000000 0.000000 -1.000000
vn 0.000000 0.000000 -1.000000
vn -0.000000 0.000000 1.000000
vn -0.000000 0.000000 1.000000
vn -0.000000 0.000000 1.000000
vn -0.000000 0.000000 1.000000
g pCube14
f 74/130/202 75/131/203 77/133/204 76/132/205
f 76/132/206 77/133/207 79/135/208 78/134/209
f 78/134/210 79/135/211 81/137/212 80/136/213
f 80/136/214 81/137/215 75/139/216 74/138/217
f 75/131/218 81/140/219 79/141/220 77/133/221
f 80/142/222 74/130/223 76/132/224 78/143/225
v 0.673809 0.065517 0.766926
v 0.673809 0.065517 0.687056
v 0.673809 0.194627 0.766926
v 0.673809 0.194627 0.687056
v 0.595864 0.194627 0.766926
v 0.595864 0.194627 0.687056
v 0.595864 0.065517 0.766926
v 0.595864 0.065517 0.687056
vt 0.375000 0.000000
vt 0.625000 0.000000
vt 0.375000 0.250000
vt 0.625000 0.250000
vt 0.375000 0.500000
vt 0.625000 0.500000
vt 0.375000 0.750000
vt 0.625000 0.750000
vt 0.375000 1.000000
vt 0.625000 1.000000
vt 0.875000 0.000000
vt 0.875000 0.250000
vt 0.125000 0.000000
vt 0.125000 0.250000
vn 1.000000 0.000000 0.000000
vn 1.000000 0.000000 0.000000
vn 1.000000 0.000000 0.000000
vn 1.000000 0.000000 0.000000
vn 0.000000 1.000000 0.000000
vn 0.000000 1.000000 0.000000
vn 0.000000 1.000000 0.000000
vn 0.000000 1.000000 0.000000
vn -1.000000 0.000000 -0.000000
vn -1.000000 0.000000 -0.000000
vn -1.000000 0.000000 -0.000000
vn -1.000000 0.000000 -0.000000
vn 0.000000 -1.000000 0.000000
vn 0.000000 -1.000000 0.000000
vn 0.000000 -1.000000 0.000000
vn 0.000000 -1.000000 0.000000
vn 0.000000 0.000000 -1.000000
vn 0.000000 0.000000 -1.000000
vn 0.000000 0.000000 -1.000000
vn 0.000000 0.000000 -1.000000
vn -0.000000 0.000000 1.000000
vn -0.000000 0.000000 1.000000
vn -0.000000 0.000000 1.000000
vn -0.000000 0.000000 1.000000
g pCube15
f 82/144/226 83/145/227 85/147/228 84/146/229
f 84/146/230 85/147/231 87/149/232 86/148/233
f 86/148/234 87/149/235 89/151/236 88/150/237
f 88/150/238 89/151/239 83/153/240 82/152/241
f 83/145/242 89/154/243 87/155/244 85/147/245
f 88/156/246 82/144/247 84/146/248 86/157/249
v 0.206685 0.052667 0.196134
v 0.206685 0.052667 0.078149
v 0.206685 0.288040 0.196134
v 0.206685 0.288040 0.078149
v 0.091543 0.288040 0.196134
v 0.091543 0.288040 0.078149
v 0.091543 0.052667 0.196134
v 0.091543 0.052667 0.078149
vt 0.375000 0.000000
vt 0.625000 0.000000
vt 0.375000 0.250000
vt 0.625000 0.250000
vt 0.375000 0.500000
vt 0.625000 0.500000
vt 0.375000 0.750000
vt 0.625000 0.750000
vt 0.375000 1.000000
vt 0.625000 1.000000
vt 0.875000 0.000000
vt 0.875000 0.250000
vt 0.125000 0.000000
vt 0.125000 0.250000
vn 1.000000 0.000000 0.000000
vn 1.000000 0.000000 0.000000
vn 1.000000 0.000000 0.000000
vn 1.000000 0.000000 0.000000
vn 0.000000 1.000000 0.000000
vn 0.000000 1.000000 0.000000
vn 0.000000 1.000000 0.000000
vn 0.000000 1.000000 0.000000
vn -1.000000 0.000000 -0.000000
vn -1.000000 0.000000 -0.000000
vn -1.000000 0.000000 -0.000000
vn -1.000000 0.000000 -0.000000
vn 0.000000 -1.000000 0.000000
vn 0.000000 -1.000000 0.000000
vn 0.000000 -1.000000 0.000000
vn 0.000000 -1.000000 0.000000
vn 0.000000 0.000000 -1.000000
vn 0.000000 0.000000 -1.000000
vn 0.000000 0.000000 -1.000000
vn 0.000000 0.000000 -1.000000
vn -0.000000 0.000000 1.000000
vn -0.000000 0.000000 1.000000
vn -0.000000 0.000000 1.000000
vn -0.000000 0.000000 1.000000
g pCube16
f 90/158/250 91/159/251 93/161/252 92/160/253
f 92/160/254 93/161/255 95/163/256 94/162/257
f 94/162/258 95/163/259 97/165/260 96/164/261
f 96/164/262 97/165/263 91/167/264 90/166/265
f 91/159/266 97/168/267 95/169/268 93/161/269
f 96/170/270 90/158/271 92/160/272 94/171/273
v 0.159032 0.073080 0.834342
v 0.352488 0.073080 0.834342
v 0.545945 0.073080 0.834342
v 0.159032 0.073080 0.640886
v 0.352488 0.073080 0.640886
v 0.545945 0.073080 0.640886
v 0.159032 0.073080 0.447430
v 0.352488 0.073080 0.447430
v 0.545945 0.073080 0.447430
vt 0.000000 0.000000
vt 0.500000 0.000000
vt 1.000000 0.000000
vt 0.000000 0.500000
vt 0.500000 0.500000
vt 1.000000 0.500000
vt 0.000000 1.000000
vt 0.500000 1.000000
vt 1.000000 1.000000
vn 0.000000 1.000000 0.000000
vn 0.000000 1.000000 0.000000
vn 0.000000 1.000000 0.000000
vn 0.000000 1.000000 0.000000
vn 0.000000 1.000000 0.000000
vn 0.000000 1.000000 0.000000
vn 0.000000 1.000000 0.000000
vn 0.000000 1.000000 0.000000
vn 0.000000 1.000000 0.000000
g pPlane3
f 98/172/274 99/173/275 102/176/276 101/175/277
f 99/173/275 100/174/278 103/177/279 102/176/276
f 101/175/277 102/176/276 105/179/280 104/178/281
f 102/176/276 103/177/279 106/180/282 105/179/280
