# This file uses centimeters as units for non-parametric coordinates.

v 0.257666 0.537962 0.742334
v 0.742334 0.537962 0.742334
v 0.257666 1.022630 0.742334
v 0.742334 1.022630 0.742334
v 0.257666 1.022630 0.257666
v 0.742334 1.022630 0.257666
v 0.257666 0.537962 0.257666
v 0.742334 0.537962 0.257666
v 0.000000 0.084133 0.514412
v 0.000000 0.049840 0.514412
v 0.560892 0.627469 0.514412
v 0.589715 0.627469 0.514412
v 0.560892 0.627469 0.485588
v 0.589715 0.627469 0.485588
v 0.000000 0.084133 0.485588
v 0.000000 0.049840 0.485588
vt 0.681875 0.748061
vt 0.821608 0.748061
vt 0.821608 0.887794
vt 0.681875 0.887794
vt 0.827074 0.887794
vt 0.827074 0.748061
vt 0.966806 0.748061
vt 0.966806 0.887794
vt 0.884682 0.061401
vt 0.897525 0.061401
vt 0.897525 0.318771
vt 0.884682 0.318771
vt 0.864981 0.061401
vt 0.877824 0.061401
vt 0.877824 0.318771
vt 0.864981 0.318771
vt 0.255012 0.831855
vt 0.255012 0.735568
vt 0.351298 0.735568
vt 0.351298 0.831855
vt 0.082754 0.833844
vt 0.179041 0.833844
vt 0.179041 0.930131
vt 0.082754 0.930131
vt 0.706438 0.281813
vt 0.719280 0.281813
vt 0.719280 0.294656
vt 0.706438 0.294656
vt 0.728224 0.281813
vt 0.741066 0.281813
vt 0.741066 0.294656
vt 0.728224 0.294656
vt 0.277554 0.284997
vt 0.277554 0.170671
vt 0.391881 0.170671
vt 0.391881 0.284997
vt 0.041639 0.284997
vt 0.041639 0.170671
vt 0.155966 0.170671
vt 0.155966 0.284997
vt 0.924084 0.061401
vt 0.936926 0.061401
vt 0.936926 0.318771
vt 0.924084 0.318771
vt 0.904383 0.061401
vt 0.917226 0.061401
vt 0.917226 0.318770
vt 0.904383 0.318770
vn 0.000000 0.000000 1.000000
vn 0.000000 0.000000 1.000000
vn 0.000000 0.000000 1.000000
vn 0.000000 0.000000 1.000000
vn 0.000000 1.000000 0.000000
vn 0.000000 1.000000 0.000000
vn 0.000000 1.000000 0.000000
vn 0.000000 1.000000 0.000000
vn 0.000000 0.000000 -1.000000
vn 0.000000 0.000000 -1.000000
vn 0.000000 0.000000 -1.000000
vn 0.000000 0.000000 -1.000000
vn 0.000000 -1.000000 0.000000
vn 0.000000 -1.000000 0.000000
vn 0.000000 -1.000000 0.000000
vn 0.000000 -1.000000 0.000000
vn 1.000000 0.000000 0.000000
vn 1.000000 0.000000 0.000000
vn 1.000000 0.000000 0.000000
vn 1.000000 0.000000 0.000000
vn -1.000000 0.000000 0.000000
vn -1.000000 0.000000 0.000000
vn -1.000000 0.000000 0.000000
vn -1.000000 0.000000 0.000000
vn -0.000000 0.000000 1.000000
vn -0.000000 0.000000 1.000000
vn -0.000000 0.000000 1.000000
vn -0.000000 0.000000 1.000000
vn 0.000000 1.000000 0.000000
vn 0.000000 1.000000 0.000000
vn 0.000000 1.000000 0.000000
vn 0.000000 1.000000 0.000000
vn -0.000000 0.000000 -1.000000
vn -0.000000 0.000000 -1.000000
vn -0.000000 0.000000 -1.000000
vn -0.000000 0.000000 -1.000000
vn -1.000000 0.000000 0.000000
vn -1.000000 0.000000 0.000000
vn -1.000000 0.000000 0.000000
vn -1.000000 0.000000 0.000000
vn 0.699748 -0.714390 0.000000
vn 0.699748 -0.714390 0.000000
vn 0.699748 -0.714390 0.000000
vn 0.699748 -0.714390 0.000000
vn -0.695776 0.718259 0.000000
vn -0.695776 0.718259 0.000000
vn -0.695776 0.718259 0.000000
vn -0.695776 0.718259 0.000000
g pCube20
f 1/33/1 2/34/2 4/35/3 3/36/4
f 3/17/5 4/18/6 6/19/7 5/20/8
f 5/37/9 6/38/10 8/39/11 7/40/12
f 7/21/13 8/22/14 2/23/15 1/24/16
f 2/1/17 8/2/18 6/3/19 4/4/20
f 7/5/21 1/6/22 3/7/23 5/8/24
f 9/41/25 10/42/26 12/43/27 11/44/28
f 11/25/29 12/26/30 14/27/31 13/28/32
f 13/45/33 14/46/34 16/47/35 15/48/36
f 15/29/37 16/30/38 10/31/39 9/32/40
f 10/9/41 16/10/42 14/11/43 12/12/44
f 15/13/45 9/14/46 11/15/47 13/16/48
