# This file uses centimeters as units for non-parametric coordinates.

v 0.750000 0.000000 0.250000
v 0.750000 0.171548 0.250000
v 0.250000 0.000000 0.250000
v 0.250000 0.171548 0.250000
v 0.250000 0.000000 0.750000
v 0.250000 0.171548 0.750000
v 0.750000 0.000000 0.750000
v 0.750000 0.171548 0.750000
vt 0.224075 0.170951
vt 0.232848 0.170951
vt 0.232848 0.432062
vt 0.224075 0.432062
vt 0.340223 0.326032
vt 0.340223 0.089035
vt 0.340223 0.089035
vt 0.340223 0.326032
vt 0.681191 0.570605
vt 0.714524 0.570605
vt 0.714524 0.570605
vt 0.681191 0.570605
vt 0.843518 0.759215
vt 0.843518 0.789216
vt 0.843518 0.789216
vt 0.843518 0.759215
vt 0.197009 0.793272
vt 0.197009 0.764382
vt 0.225898 0.764382
vt 0.225898 0.793272
vn 0.000000 0.000000 -1.000000
vn 0.000000 0.000000 -1.000000
vn 0.000000 0.000000 -1.000000
vn 0.000000 0.000000 -1.000000
vn -1.000000 0.000000 -0.000000
vn -1.000000 0.000000 -0.000000
vn -1.000000 0.000000 -0.000000
vn -1.000000 0.000000 -0.000000
vn 0.000000 0.000000 1.000000
vn 0.000000 0.000000 1.000000
vn 0.000000 0.000000 1.000000
vn 0.000000 0.000000 1.000000
vn 1.000000 0.000000 0.000000
vn 1.000000 0.000000 0.000000
vn 1.000000 0.000000 0.000000
vn 1.000000 0.000000 0.000000
vn 0.000000 1.000000 0.000000
vn 0.000000 1.000000 0.000000
vn 0.000000 1.000000 0.000000
vn 0.000000 1.000000 0.000000
f 1/1/1 3/2/2 4/3/3 2/4/4
f 3/5/5 5/6/6 6/7/7 4/8/8
f 5/9/9 7/10/10 8/11/11 6/12/12
f 7/13/13 1/14/14 2/15/15 8/16/16
f 4/17/17 6/18/18 8/19/19 2/20/20
