# This file uses centimeters as units for non-parametric coordinates.

v 0.000000 0.000496 1.000000
v 1.000000 0.000496 1.000000
v 1.000000 0.132074 1.000000
v 0.000000 0.132074 1.000000
v 0.000000 0.000496 0.000000
v 0.000000 0.132074 0.000000
v 1.000000 0.000496 0.000000
v 1.000000 0.132074 0.000000
v 0.025000 0.132074 0.025000
v 0.975000 0.132074 0.025000
v 0.975000 0.132074 0.975000
v 0.025000 0.132074 0.975000
v 0.975000 0.063779 0.975000
v 0.025000 0.063779 0.975000
v 0.025000 0.063779 0.025000
v 0.975000 0.063779 0.025000
v 0.025000 0.065517 0.374960
v 0.975000 0.065517 0.374960
v 0.025000 0.194627 0.374960
v 0.975000 0.194627 0.374960
v 0.025000 0.194627 0.125815
v 0.975000 0.194627 0.125815
v 0.025000 0.065517 0.125815
v 0.975000 0.065517 0.125815
v 0.828473 0.065517 0.895615
v 0.828473 0.065517 0.706797
v 0.828473 0.194627 0.895615
v 0.828473 0.194627 0.706797
v 0.645349 0.194627 0.895615
v 0.645349 0.194627 0.706797
v 0.645349 0.065517 0.895615
v 0.645349 0.065517 0.706797
v 0.364206 0.190606 0.326635
v 0.364206 0.190606 0.246766
v 0.364206 0.265415 0.326635
v 0.364206 0.265415 0.246766
v 0.286261 0.265415 0.326635
v 0.286261 0.265415 0.246766
v 0.286261 0.190606 0.326635
v 0.286261 0.190606 0.246766
v 0.000000 0.000496 1.000000
v 1.000000 0.000496 1.000000
v 1.000000 0.132074 1.000000
v 0.000000 0.132074 1.000000
v 0.000000 0.000496 0.000000
v 0.000000 0.132074 0.000000
v 1.000000 0.000496 0.000000
v 1.000000 0.132074 0.000000
v 0.025000 0.132074 0.025000
v 0.975000 0.132074 0.025000
v 0.975000 0.132074 0.975000
v 0.025000 0.132074 0.975000
v 0.975000 0.063779 0.975000
v 0.025000 0.063779 0.975000
v 0.025000 0.063779 0.025000
v 0.975000 0.063779 0.025000
v 0.616978 0.065517 0.837088
v 0.616978 0.065517 0.765324
v 0.616978 0.194627 0.837088
v 0.616978 0.194627 0.765324
v 0.546943 0.194627 0.837088
v 0.546943 0.194627 0.765324
v 0.546943 0.065517 0.837088
v 0.546943 0.065517 0.765324
v 0.712608 0.190606 0.326635
v 0.712608 0.190606 0.246766
v 0.712608 0.265415 0.326635
v 0.712608 0.265415 0.246766
v 0.634663 0.265415 0.326635
v 0.634663 0.265415 0.246766
v 0.634663 0.190606 0.326635
v 0.634663 0.190606 0.246766
v 0.927436 0.065517 0.838611
v 0.927436 0.065517 0.766848
v 0.927436 0.194627 0.838611
v 0.927436 0.194627 0.766848
v 0.857402 0.194627 0.838611
v 0.857402 0.194627 0.766848
v 0.857402 0.065517 0.838611
v 0.857402 0.065517 0.766848
v 0.355718 0.065517 0.895615
v 0.355718 0.065517 0.706797
v 0.355718 0.194627 0.895615
v 0.355718 0.194627 0.706797
v 0.172594 0.194627 0.895615
v 0.172594 0.194627 0.706797
v 0.172594 0.065517 0.895615
v 0.172594 0.065517 0.706797
v 0.144223 0.065517 0.837088
v 0.144223 0.065517 0.765324
v 0.144223 0.194627 0.837088
v 0.144223 0.194627 0.765324
v 0.074188 0.194627 0.837088
v 0.074188 0.194627 0.765324
v 0.074188 0.065517 0.837088
v 0.074188 0.065517 0.765324
v 0.454681 0.065517 0.838611
v 0.454681 0.065517 0.766848
v 0.454681 0.194627 0.838611
v 0.454681 0.194627 0.766848
v 0.384647 0.194627 0.838611
v 0.384647 0.194627 0.766848
v 0.384647 0.065517 0.838611
v 0.384647 0.065517 0.766848
vt 0.057311 0.323222
vt 0.057311 0.209779
vt 0.072237 0.209779
vt 0.072237 0.323222
vt 0.191182 0.323222
vt 0.191182 0.209779
vt 0.206108 0.209779
vt 0.206108 0.323222
vt 0.160358 0.324816
vt 0.160358 0.432586
vt 0.152610 0.432586
vt 0.152610 0.324816
vt 0.132647 0.057635
vt 0.132647 0.190557
vt 0.123092 0.190557
vt 0.123092 0.057635
vt 0.567009 0.226996
vt 0.567009 0.156223
vt 0.603685 0.156223
vt 0.603685 0.226996
vt 0.609886 0.226996
vt 0.609886 0.156223
vt 0.646562 0.156223
vt 0.646562 0.226996
vt 0.681993 0.396690
vt 0.681993 0.343054
vt 0.718669 0.343054
vt 0.718669 0.396690
vt 0.820015 0.343054
vt 0.820015 0.396690
vt 0.783339 0.396690
vt 0.783339 0.343054
vt 0.357082 0.760900
vt 0.357082 0.738212
vt 0.378332 0.738212
vt 0.378332 0.760900
vt 0.322670 0.738212
vt 0.322670 0.760900
vt 0.301419 0.760900
vt 0.301419 0.738212
vt 0.388431 0.323222
vt 0.388431 0.209779
vt 0.403358 0.209779
vt 0.403358 0.323222
vt 0.333850 0.438258
vt 0.333850 0.324816
vt 0.348777 0.324816
vt 0.348777 0.438258
vt 0.173068 0.064631
vt 0.173068 0.197553
vt 0.163513 0.197553
vt 0.163513 0.064631
vt 0.322824 0.064631
vt 0.322824 0.197553
vt 0.313268 0.197553
vt 0.313268 0.064631
vt 0.647358 0.777259
vt 0.667744 0.777259
vt 0.667744 0.813935
vt 0.647358 0.813935
vt 0.641223 0.813935
vt 0.620837 0.813935
vt 0.620837 0.777259
vt 0.641223 0.777259
vt 0.245757 0.760900
vt 0.245757 0.738212
vt 0.267007 0.738212
vt 0.267007 0.760900
vt 0.211345 0.738212
vt 0.211345 0.760900
vt 0.190094 0.760900
vt 0.190094 0.738212
vt 0.813275 0.768225
vt 0.833660 0.768225
vt 0.833660 0.804901
vt 0.813275 0.804901
vt 0.807140 0.804901
vt 0.786754 0.804901
vt 0.786754 0.768225
vt 0.807140 0.768225
vt 0.873251 0.454319
vt 0.873251 0.400682
vt 0.909927 0.400682
vt 0.909927 0.454319
vt 0.808962 0.400682
vt 0.808962 0.454319
vt 0.772286 0.454319
vt 0.772286 0.400682
vt 0.812064 0.723055
vt 0.832450 0.723055
vt 0.832450 0.759731
vt 0.812064 0.759731
vt 0.805929 0.759731
vt 0.785544 0.759731
vt 0.785544 0.723055
vt 0.805929 0.723055
vt 0.706963 0.708852
vt 0.727349 0.708852
vt 0.727349 0.745528
vt 0.706963 0.745528
vt 0.700828 0.745528
vt 0.680443 0.745528
vt 0.680443 0.708852
vt 0.700828 0.708852
vt 0.075212 0.209779
vt 0.188654 0.209779
vt 0.188654 0.323222
vt 0.075212 0.323222
vt 0.350101 0.209779
vt 0.350101 0.323222
vt 0.236659 0.323222
vt 0.239495 0.320386
vt 0.347265 0.320386
vt 0.347265 0.212615
vt 0.236659 0.209779
vt 0.239495 0.212615
vt 0.042390 0.432586
vt 0.042390 0.324816
vt 0.150160 0.324816
vt 0.150160 0.432586
vt 0.702648 0.327695
vt 0.702648 0.057833
vt 0.773422 0.057833
vt 0.773422 0.327695
vt 0.823483 0.327695
vt 0.823483 0.057833
vt 0.894257 0.057833
vt 0.894257 0.327695
vt 0.776889 0.343054
vt 0.776889 0.396690
vt 0.724870 0.396690
vt 0.724870 0.343054
vt 0.826216 0.396690
vt 0.826216 0.343054
vt 0.878235 0.343054
vt 0.878235 0.396690
vt 0.350947 0.738212
vt 0.350947 0.760900
vt 0.328805 0.760900
vt 0.328805 0.738212
vt 0.273143 0.760900
vt 0.273143 0.738212
vt 0.295284 0.738212
vt 0.295284 0.760900
vt 0.351227 0.324816
vt 0.464669 0.324816
vt 0.464669 0.438258
vt 0.351227 0.438258
vt 0.331400 0.324816
vt 0.331400 0.438258
vt 0.217958 0.438258
vt 0.220794 0.435422
vt 0.328564 0.435422
vt 0.328564 0.327652
vt 0.217958 0.324816
vt 0.220794 0.327652
vt 0.176952 0.197553
vt 0.176952 0.064631
vt 0.309875 0.064631
vt 0.309875 0.197553
vt 0.721580 0.778443
vt 0.721580 0.798828
vt 0.701686 0.798828
vt 0.701686 0.778443
vt 0.677026 0.798828
vt 0.677026 0.778443
vt 0.696920 0.778443
vt 0.696920 0.798828
vt 0.239621 0.738212
vt 0.239621 0.760900
vt 0.217480 0.760900
vt 0.217480 0.738212
vt 0.175895 0.787580
vt 0.175895 0.764892
vt 0.198036 0.764892
vt 0.198036 0.787580
vt 0.640642 0.749519
vt 0.640642 0.769905
vt 0.620748 0.769905
vt 0.620748 0.749519
vt 0.648033 0.769905
vt 0.648033 0.749519
vt 0.667927 0.749519
vt 0.667927 0.769905
vt 0.867116 0.400682
vt 0.867116 0.454319
vt 0.815097 0.454319
vt 0.815097 0.400682
vt 0.714132 0.454318
vt 0.714132 0.400682
vt 0.766151 0.400682
vt 0.766151 0.454318
vt 0.695213 0.749519
vt 0.695213 0.769905
vt 0.675318 0.769905
vt 0.675318 0.749519
vt 0.702604 0.769905
vt 0.702604 0.749519
vt 0.722498 0.749519
vt 0.722498 0.769905
vt 0.749783 0.763723
vt 0.749783 0.784108
vt 0.729889 0.784108
vt 0.729889 0.763723
vt 0.757174 0.784108
vt 0.757174 0.763723
vt 0.777069 0.763723
vt 0.777069 0.784108
vt 0.039332 0.323222
vt 0.039332 0.209779
vt 0.054258 0.209779
vt 0.054258 0.323222
vt 0.352628 0.323222
vt 0.352628 0.209779
vt 0.367555 0.209779
vt 0.367555 0.323222
vt 0.162808 0.432586
vt 0.162808 0.324816
vt 0.170555 0.324816
vt 0.170555 0.432586
vt 0.146183 0.057635
vt 0.146183 0.190557
vt 0.136627 0.190557
vt 0.136627 0.057635
vt 0.659771 0.327695
vt 0.659771 0.057833
vt 0.696447 0.057833
vt 0.696447 0.327695
vt 0.780607 0.327695
vt 0.780607 0.057833
vt 0.817282 0.057833
vt 0.817282 0.327695
vt 0.707996 0.403826
vt 0.707996 0.455845
vt 0.671320 0.455845
vt 0.671320 0.403826
vt 0.628509 0.455845
vt 0.628509 0.403826
vt 0.665185 0.403826
vt 0.665185 0.455845
vt 0.226575 0.764892
vt 0.226575 0.787033
vt 0.205324 0.787033
vt 0.205324 0.764892
vt 0.234558 0.787033
vt 0.234558 0.764892
vt 0.255809 0.764892
vt 0.255809 0.787033
vt 0.370530 0.323222
vt 0.370530 0.209779
vt 0.385456 0.209779
vt 0.385456 0.323222
vt 0.173005 0.438258
vt 0.173005 0.324816
vt 0.187932 0.324816
vt 0.187932 0.438258
vt 0.150073 0.190557
vt 0.150073 0.057635
vt 0.159629 0.057635
vt 0.159629 0.190557
vt 0.336263 0.064631
vt 0.336263 0.197553
vt 0.326707 0.197553
vt 0.326707 0.064631
vt 0.885720 0.804901
vt 0.865825 0.804901
vt 0.865825 0.768225
vt 0.885720 0.768225
vt 0.839796 0.768225
vt 0.859690 0.768225
vt 0.859690 0.804901
vt 0.839796 0.804901
vt 0.285043 0.764892
vt 0.285043 0.787033
vt 0.263793 0.787033
vt 0.263793 0.764892
vt 0.293027 0.787033
vt 0.293027 0.764892
vt 0.314277 0.764892
vt 0.314277 0.787033
vt 0.884509 0.759731
vt 0.864615 0.759731
vt 0.864615 0.723055
vt 0.884509 0.723055
vt 0.838585 0.723055
vt 0.858479 0.723055
vt 0.858479 0.759731
vt 0.838585 0.759731
vt 0.676578 0.345889
vt 0.676578 0.397908
vt 0.639902 0.397908
vt 0.639902 0.345889
vt 0.597091 0.397908
vt 0.597091 0.345889
vt 0.633767 0.345889
vt 0.633767 0.397908
vt 0.779408 0.759731
vt 0.759514 0.759731
vt 0.759514 0.723055
vt 0.779408 0.723055
vt 0.733484 0.723055
vt 0.753379 0.723055
vt 0.753379 0.759731
vt 0.733484 0.759731
vt 0.674307 0.745528
vt 0.654413 0.745528
vt 0.654413 0.708852
vt 0.674307 0.708852
vt 0.628383 0.708852
vt 0.648278 0.708852
vt 0.648278 0.745528
vt 0.628383 0.745528
vn 0.000000 0.000000 1.000000
vn 0.000000 0.000000 1.000000
vn 0.000000 0.000000 1.000000
vn 0.000000 0.000000 1.000000
vn -1.000000 0.000000 0.000000
vn -1.000000 0.000000 0.000000
vn -1.000000 0.000000 0.000000
vn -1.000000 0.000000 0.000000
vn 0.000000 -1.000000 0.000000
vn 0.000000 -1.000000 0.000000
vn 0.000000 -1.000000 0.000000
vn 0.000000 -1.000000 0.000000
vn 1.000000 0.000000 0.000000
vn 1.000000 0.000000 0.000000
vn 1.000000 0.000000 0.000000
vn 1.000000 0.000000 0.000000
vn 0.000000 1.000000 0.000000
vn 0.000000 1.000000 0.000000
vn 0.000000 1.000000 0.000000
vn 0.000000 1.000000 0.000000
vn 0.000000 1.000000 0.000000
vn 0.000000 1.000000 0.000000
vn 0.000000 1.000000 0.000000
vn 0.000000 1.000000 0.000000
vn 0.000000 0.000000 -1.000000
vn 0.000000 0.000000 -1.000000
vn 0.000000 0.000000 -1.000000
vn 0.000000 0.000000 -1.000000
vn 0.000000 0.000000 -1.000000
vn 0.000000 0.000000 -1.000000
vn 0.000000 0.000000 -1.000000
vn 0.000000 0.000000 -1.000000
vn 1.000000 0.000000 0.000000
vn 1.000000 0.000000 0.000000
vn 1.000000 0.000000 0.000000
vn 1.000000 0.000000 0.000000
vn 0.000000 1.000000 0.000000
vn 0.000000 1.000000 0.000000
vn 0.000000 1.000000 0.000000
vn 0.000000 1.000000 0.000000
vn -1.000000 0.000000 0.000000
vn -1.000000 0.000000 0.000000
vn -1.000000 0.000000 0.000000
vn -1.000000 0.000000 0.000000
vn 0.000000 0.000000 1.000000
vn 0.000000 0.000000 1.000000
vn 0.000000 0.000000 1.000000
vn 0.000000 0.000000 1.000000
vn 0.000000 0.000000 1.000000
vn 0.000000 0.000000 1.000000
vn 0.000000 0.000000 1.000000
vn 0.000000 0.000000 1.000000
vn 0.000000 1.000000 0.000000
vn 0.000000 1.000000 0.000000
vn 0.000000 1.000000 0.000000
vn 0.000000 1.000000 0.000000
vn 0.000000 0.000000 -1.000000
vn 0.000000 0.000000 -1.000000
vn 0.000000 0.000000 -1.000000
vn 0.000000 0.000000 -1.000000
vn 0.000000 -1.000000 0.000000
vn 0.000000 -1.000000 0.000000
vn 0.000000 -1.000000 0.000000
vn 0.000000 -1.000000 0.000000
vn 1.000000 0.000000 0.000000
vn 1.000000 0.000000 0.000000
vn 1.000000 0.000000 0.000000
vn 1.000000 0.000000 0.000000
vn -1.000000 0.000000 0.000000
vn -1.000000 0.000000 0.000000
vn -1.000000 0.000000 0.000000
vn -1.000000 0.000000 0.000000
vn 1.000000 0.000000 0.000000
vn 1.000000 0.000000 0.000000
vn 1.000000 0.000000 0.000000
vn 1.000000 0.000000 0.000000
vn 0.000000 1.000000 0.000000
vn 0.000000 1.000000 0.000000
vn 0.000000 1.000000 0.000000
vn 0.000000 1.000000 0.000000
vn -1.000000 0.000000 0.000000
vn -1.000000 0.000000 0.000000
vn -1.000000 0.000000 0.000000
vn -1.000000 0.000000 0.000000
vn 0.000000 -1.000000 0.000000
vn 0.000000 -1.000000 0.000000
vn 0.000000 -1.000000 0.000000
vn 0.000000 -1.000000 0.000000
vn 0.000000 0.000000 -1.000000
vn 0.000000 0.000000 -1.000000
vn 0.000000 0.000000 -1.000000
vn 0.000000 0.000000 -1.000000
vn 0.000000 0.000000 1.000000
vn 0.000000 0.000000 1.000000
vn 0.000000 0.000000 1.000000
vn 0.000000 0.000000 1.000000
vn 1.000000 0.000000 0.000000
vn 1.000000 0.000000 0.000000
vn 1.000000 0.000000 0.000000
vn 1.000000 0.000000 0.000000
vn 0.000000 1.000000 0.000000
vn 0.000000 1.000000 0.000000
vn 0.000000 1.000000 0.000000
vn 0.000000 1.000000 0.000000
vn -1.000000 0.000000 0.000000
vn -1.000000 0.000000 0.000000
vn -1.000000 0.000000 0.000000
vn -1.000000 0.000000 0.000000
vn 0.000000 -1.000000 0.000000
vn 0.000000 -1.000000 0.000000
vn 0.000000 -1.000000 0.000000
vn 0.000000 -1.000000 0.000000
vn 0.000000 0.000000 -1.000000
vn 0.000000 0.000000 -1.000000
vn 0.000000 0.000000 -1.000000
vn 0.000000 0.000000 -1.000000
vn 0.000000 0.000000 1.000000
vn 0.000000 0.000000 1.000000
vn 0.000000 0.000000 1.000000
vn 0.000000 0.000000 1.000000
vn 0.000000 0.000000 1.000000
vn 0.000000 0.000000 1.000000
vn 0.000000 0.000000 1.000000
vn 0.000000 0.000000 1.000000
vn -1.000000 0.000000 0.000000
vn -1.000000 0.000000 0.000000
vn -1.000000 0.000000 0.000000
vn -1.000000 0.000000 0.000000
vn 0.000000 -1.000000 0.000000
vn 0.000000 -1.000000 0.000000
vn 0.000000 -1.000000 0.000000
vn 0.000000 -1.000000 0.000000
vn 1.000000 0.000000 0.000000
vn 1.000000 0.000000 0.000000
vn 1.000000 0.000000 0.000000
vn 1.000000 0.000000 0.000000
vn 0.000000 1.000000 0.000000
vn 0.000000 1.000000 0.000000
vn 0.000000 1.000000 0.000000
vn 0.000000 1.000000 0.000000
vn 0.000000 1.000000 0.000000
vn 0.000000 1.000000 0.000000
vn 0.000000 1.000000 0.000000
vn 0.000000 1.000000 0.000000
vn 0.000000 0.000000 -1.000000
vn 0.000000 0.000000 -1.000000
vn 0.000000 0.000000 -1.000000
vn 0.000000 0.000000 -1.000000
vn 0.000000 0.000000 -1.000000
vn 0.000000 0.000000 -1.000000
vn 0.000000 0.000000 -1.000000
vn 0.000000 0.000000 -1.000000
vn 1.000000 0.000000 0.000000
vn 1.000000 0.000000 0.000000
vn 1.000000 0.000000 0.000000
vn 1.000000 0.000000 0.000000
vn 0.000000 1.000000 0.000000
vn 0.000000 1.000000 0.000000
vn 0.000000 1.000000 0.000000
vn 0.000000 1.000000 0.000000
vn -1.000000 0.000000 0.000000
vn -1.000000 0.000000 0.000000
vn -1.000000 0.000000 0.000000
vn -1.000000 0.000000 0.000000
vn 0.000000 0.000000 1.000000
vn 0.000000 0.000000 1.000000
vn 0.000000 0.000000 1.000000
vn 0.000000 0.000000 1.000000
vn 1.000000 0.000000 0.000000
vn 1.000000 0.000000 0.000000
vn 1.000000 0.000000 0.000000
vn 1.000000 0.000000 0.000000
vn 0.000000 1.000000 0.000000
vn 0.000000 1.000000 0.000000
vn 0.000000 1.000000 0.000000
vn 0.000000 1.000000 0.000000
vn -1.000000 0.000000 0.000000
vn -1.000000 0.000000 0.000000
vn -1.000000 0.000000 0.000000
vn -1.000000 0.000000 0.000000
vn 0.000000 -1.000000 0.000000
vn 0.000000 -1.000000 0.000000
vn 0.000000 -1.000000 0.000000
vn 0.000000 -1.000000 0.000000
vn 0.000000 0.000000 -1.000000
vn 0.000000 0.000000 -1.000000
vn 0.000000 0.000000 -1.000000
vn 0.000000 0.000000 -1.000000
vn 0.000000 0.000000 1.000000
vn 0.000000 0.000000 1.000000
vn 0.000000 0.000000 1.000000
vn 0.000000 0.000000 1.000000
vn 1.000000 0.000000 0.000000
vn 1.000000 0.000000 0.000000
vn 1.000000 0.000000 0.000000
vn 1.000000 0.000000 0.000000
vn 0.000000 1.000000 0.000000
vn 0.000000 1.000000 0.000000
vn 0.000000 1.000000 0.000000
vn 0.000000 1.000000 0.000000
vn -1.000000 0.000000 0.000000
vn -1.000000 0.000000 0.000000
vn -1.000000 0.000000 0.000000
vn -1.000000 0.000000 0.000000
vn 0.000000 -1.000000 0.000000
vn 0.000000 -1.000000 0.000000
vn 0.000000 -1.000000 0.000000
vn 0.000000 -1.000000 0.000000
vn 0.000000 0.000000 -1.000000
vn 0.000000 0.000000 -1.000000
vn 0.000000 0.000000 -1.000000
vn 0.000000 0.000000 -1.000000
vn 0.000000 0.000000 1.000000
vn 0.000000 0.000000 1.000000
vn 0.000000 0.000000 1.000000
vn 0.000000 0.000000 1.000000
vn 1.000000 0.000000 0.000000
vn 1.000000 0.000000 0.000000
vn 1.000000 0.000000 0.000000
vn 1.000000 0.000000 0.000000
vn 0.000000 1.000000 0.000000
vn 0.000000 1.000000 0.000000
vn 0.000000 1.000000 0.000000
vn 0.000000 1.000000 0.000000
vn -1.000000 0.000000 0.000000
vn -1.000000 0.000000 0.000000
vn -1.000000 0.000000 0.000000
vn -1.000000 0.000000 0.000000
vn 0.000000 -1.000000 0.000000
vn 0.000000 -1.000000 0.000000
vn 0.000000 -1.000000 0.000000
vn 0.000000 -1.000000 0.000000
vn 0.000000 0.000000 -1.000000
vn 0.000000 0.000000 -1.000000
vn 0.000000 0.000000 -1.000000
vn 0.000000 0.000000 -1.000000
vn 0.000000 0.000000 1.000000
vn 0.000000 0.000000 1.000000
vn 0.000000 0.000000 1.000000
vn 0.000000 0.000000 1.000000
vn 1.000000 0.000000 0.000000
vn 1.000000 0.000000 0.000000
vn 1.000000 0.000000 0.000000
vn 1.000000 0.000000 0.000000
vn 0.000000 1.000000 0.000000
vn 0.000000 1.000000 0.000000
vn 0.000000 1.000000 0.000000
vn 0.000000 1.000000 0.000000
vn -1.000000 0.000000 0.000000
vn -1.000000 0.000000 0.000000
vn -1.000000 0.000000 0.000000
vn -1.000000 0.000000 0.000000
vn 0.000000 -1.000000 0.000000
vn 0.000000 -1.000000 0.000000
vn 0.000000 -1.000000 0.000000
vn 0.000000 -1.000000 0.000000
vn 0.000000 0.000000 -1.000000
vn 0.000000 0.000000 -1.000000
vn 0.000000 0.000000 -1.000000
vn 0.000000 0.000000 -1.000000
vn 0.000000 0.000000 1.000000
vn 0.000000 0.000000 1.000000
vn 0.000000 0.000000 1.000000
vn 0.000000 0.000000 1.000000
vn 1.000000 0.000000 0.000000
vn 1.000000 0.000000 0.000000
vn 1.000000 0.000000 0.000000
vn 1.000000 0.000000 0.000000
vn 0.000000 1.000000 0.000000
vn 0.000000 1.000000 0.000000
vn 0.000000 1.000000 0.000000
vn 0.000000 1.000000 0.000000
vn -1.000000 0.000000 0.000000
vn -1.000000 0.000000 0.000000
vn -1.000000 0.000000 0.000000
vn -1.000000 0.000000 0.000000
vn 0.000000 -1.000000 0.000000
vn 0.000000 -1.000000 0.000000
vn 0.000000 -1.000000 0.000000
vn 0.000000 -1.000000 0.000000
vn 0.000000 0.000000 -1.000000
vn 0.000000 0.000000 -1.000000
vn 0.000000 0.000000 -1.000000
vn 0.000000 0.000000 -1.000000
vn 0.000000 0.000000 1.000000
vn 0.000000 0.000000 1.000000
vn 0.000000 0.000000 1.000000
vn 0.000000 0.000000 1.000000
vn 1.000000 0.000000 0.000000
vn 1.000000 0.000000 0.000000
vn 1.000000 0.000000 0.000000
vn 1.000000 0.000000 0.000000
vn 0.000000 1.000000 0.000000
vn 0.000000 1.000000 0.000000
vn 0.000000 1.000000 0.000000
vn 0.000000 1.000000 0.000000
vn -1.000000 0.000000 0.000000
vn -1.000000 0.000000 0.000000
vn -1.000000 0.000000 0.000000
vn -1.000000 0.000000 0.000000
vn 0.000000 -1.000000 0.000000
vn 0.000000 -1.000000 0.000000
vn 0.000000 -1.000000 0.000000
vn 0.000000 -1.000000 0.000000
vn 0.000000 0.000000 -1.000000
vn 0.000000 0.000000 -1.000000
vn 0.000000 0.000000 -1.000000
vn 0.000000 0.000000 -1.000000
vn 0.000000 0.000000 1.000000
vn 0.000000 0.000000 1.000000
vn 0.000000 0.000000 1.000000
vn 0.000000 0.000000 1.000000
g polySurface1
f 1/209/1 2/210/2 3/211/3 4/212/4
f 5/1/5 1/2/6 4/3/7 6/4/8
f 5/105/9 7/106/10 2/107/11 1/108/12
f 2/5/13 7/6/14 8/7/15 3/8/16
f 3/109/17 8/110/18 6/111/19 9/112/20 10/113/21 11/114/22
f 4/115/23 3/109/17 11/114/22 12/116/24 9/112/20 6/111/19
f 6/213/25 8/214/26 7/215/27 5/216/28
f 12/217/29 11/218/30 13/219/31 14/220/32
f 9/9/33 12/10/34 14/11/35 15/12/36
f 15/117/37 14/118/38 13/119/39 16/120/40
f 11/13/41 10/14/42 16/15/43 13/16/44
f 10/221/45 9/222/46 15/223/47 16/224/48
f 17/225/49 18/226/50 20/227/51 19/228/52
f 19/121/53 20/122/54 22/123/55 21/124/56
f 21/229/57 22/230/58 24/231/59 23/232/60
f 23/125/61 24/126/62 18/127/63 17/128/64
f 18/17/65 24/18/66 22/19/67 20/20/68
f 23/21/69 17/22/70 19/23/71 21/24/72
f 25/25/73 26/26/74 28/27/75 27/28/76
f 27/129/77 28/130/78 30/131/79 29/132/80
f 29/29/81 30/30/82 32/31/83 31/32/84
f 31/133/85 32/134/86 26/135/87 25/136/88
f 26/233/89 32/234/90 30/235/91 28/236/92
f 31/237/93 25/238/94 27/239/95 29/240/96
f 33/33/97 34/34/98 36/35/99 35/36/100
f 35/137/101 36/138/102 38/139/103 37/140/104
f 37/37/105 38/38/106 40/39/107 39/40/108
f 39/141/109 40/142/110 34/143/111 33/144/112
f 34/241/113 40/242/114 38/243/115 36/244/116
f 39/245/117 33/246/118 35/247/119 37/248/120
f 41/249/121 42/250/122 43/251/123 44/252/124
f 45/41/125 41/42/126 44/43/127 46/44/128
f 45/145/129 47/146/130 42/147/131 41/148/132
f 42/45/133 47/46/134 48/47/135 43/48/136
f 43/149/137 48/150/138 46/151/139 49/152/140 50/153/141 51/154/142
f 44/155/143 43/149/137 51/154/142 52/156/144 49/152/140 46/151/139
f 46/253/145 48/254/146 47/255/147 45/256/148
f 52/257/149 51/258/150 53/259/151 54/260/152
f 49/49/153 52/50/154 54/51/155 55/52/156
f 55/157/157 54/158/158 53/159/159 56/160/160
f 51/53/161 50/54/162 56/55/163 53/56/164
f 50/261/165 49/262/166 55/263/167 56/264/168
f 57/57/169 58/58/170 60/59/171 59/60/172
f 59/161/173 60/162/174 62/163/175 61/164/176
f 61/61/177 62/62/178 64/63/179 63/64/180
f 63/165/181 64/166/182 58/167/183 57/168/184
f 58/265/185 64/266/186 62/267/187 60/268/188
f 63/269/189 57/270/190 59/271/191 61/272/192
f 65/65/193 66/66/194 68/67/195 67/68/196
f 67/169/197 68/170/198 70/171/199 69/172/200
f 69/69/201 70/70/202 72/71/203 71/72/204
f 71/173/205 72/174/206 66/175/207 65/176/208
f 66/273/209 72/274/210 70/275/211 68/276/212
f 71/277/213 65/278/214 67/279/215 69/280/216
f 73/73/217 74/74/218 76/75/219 75/76/220
f 75/177/221 76/178/222 78/179/223 77/180/224
f 77/77/225 78/78/226 80/79/227 79/80/228
f 79/181/229 80/182/230 74/183/231 73/184/232
f 74/281/233 80/282/234 78/283/235 76/284/236
f 79/285/237 73/286/238 75/287/239 77/288/240
f 81/81/241 82/82/242 84/83/243 83/84/244
f 83/185/245 84/186/246 86/187/247 85/188/248
f 85/85/249 86/86/250 88/87/251 87/88/252
f 87/189/253 88/190/254 82/191/255 81/192/256
f 82/289/257 88/290/258 86/291/259 84/292/260
f 87/293/261 81/294/262 83/295/263 85/296/264
f 89/89/265 90/90/266 92/91/267 91/92/268
f 91/193/269 92/194/270 94/195/271 93/196/272
f 93/93/273 94/94/274 96/95/275 95/96/276
f 95/197/277 96/198/278 90/199/279 89/200/280
f 90/297/281 96/298/282 94/299/283 92/300/284
f 95/301/285 89/302/286 91/303/287 93/304/288
f 97/97/289 98/98/290 100/99/291 99/100/292
f 99/201/293 100/202/294 102/203/295 101/204/296
f 101/101/297 102/102/298 104/103/299 103/104/300
f 103/205/301 104/206/302 98/207/303 97/208/304
f 98/305/305 104/306/306 102/307/307 100/308/308
f 103/309/309 97/310/310 99/311/311 101/312/312
