# This file uses centimeters as units for non-parametric coordinates.

v 0.025000 0.063779 0.374960
v 0.975000 0.063779 0.374960
v 0.025000 0.194627 0.374960
v 0.975000 0.194627 0.374960
v 0.025000 0.194627 0.125815
v 0.975000 0.194627 0.125815
v 0.025000 0.063779 0.125815
v 0.975000 0.063779 0.125815
v 0.828473 0.063779 0.895615
v 0.828473 0.063779 0.706797
v 0.828473 0.194627 0.895615
v 0.828473 0.194627 0.706797
v 0.645349 0.194627 0.895615
v 0.645349 0.194627 0.706797
v 0.645349 0.063779 0.895615
v 0.645349 0.063779 0.706797
v 0.364206 0.194627 0.326635
v 0.364206 0.194627 0.246766
v 0.364206 0.265415 0.326635
v 0.364206 0.265415 0.246766
v 0.286261 0.265415 0.326635
v 0.286261 0.265415 0.246766
v 0.286261 0.194627 0.326635
v 0.286261 0.194627 0.246766
v 0.000000 0.000496 1.000000
v 1.000000 0.000496 1.000000
v 1.000000 0.132074 1.000000
v 0.000000 0.132074 1.000000
v 0.000000 0.000496 0.000000
v 0.000000 0.132074 0.000000
v 1.000000 0.000496 0.000000
v 1.000000 0.132074 0.000000
v 0.025000 0.132074 0.025000
v 0.975000 0.132074 0.025000
v 0.975000 0.132074 0.975000
v 0.025000 0.132074 0.975000
v 0.975000 0.063779 0.975000
v 0.025000 0.063779 0.975000
v 0.025000 0.063779 0.025000
v 0.975000 0.063779 0.025000
v 0.616978 0.063779 0.837088
v 0.616978 0.063779 0.765324
v 0.616978 0.194627 0.837088
v 0.616978 0.194627 0.765324
v 0.546943 0.194627 0.837088
v 0.546943 0.194627 0.765324
v 0.546943 0.063779 0.837088
v 0.546943 0.063779 0.765324
v 0.712608 0.194627 0.326635
v 0.712608 0.194627 0.246766
v 0.712608 0.265415 0.326635
v 0.712608 0.265415 0.246766
v 0.634663 0.265415 0.326635
v 0.634663 0.265415 0.246766
v 0.634663 0.194627 0.326635
v 0.634663 0.194627 0.246766
v 0.927436 0.063779 0.838611
v 0.927436 0.063779 0.766848
v 0.927436 0.194627 0.838611
v 0.927436 0.194627 0.766848
v 0.857402 0.194627 0.838611
v 0.857402 0.194627 0.766848
v 0.857402 0.063779 0.838611
v 0.857402 0.063779 0.766848
v 0.355718 0.063779 0.895615
v 0.355718 0.063779 0.706797
v 0.355718 0.194627 0.895615
v 0.355718 0.194627 0.706797
v 0.172594 0.194627 0.895615
v 0.172594 0.194627 0.706797
v 0.172594 0.063779 0.895615
v 0.172594 0.063779 0.706797
v 0.144223 0.063779 0.837088
v 0.144223 0.063779 0.765324
v 0.144223 0.194627 0.837088
v 0.144223 0.194627 0.765324
v 0.074188 0.194627 0.837088
v 0.074188 0.194627 0.765324
v 0.074188 0.063779 0.837088
v 0.074188 0.063779 0.765324
v 0.454681 0.063779 0.838611
v 0.454681 0.063779 0.766848
v 0.454681 0.194627 0.838611
v 0.454681 0.194627 0.766848
v 0.384647 0.194627 0.838611
v 0.384647 0.194627 0.766848
v 0.384647 0.063779 0.838611
v 0.384647 0.063779 0.766848
vt 0.848230 0.387146
vt 0.848230 0.303189
vt 0.859641 0.303189
vt 0.859641 0.387146
vt 0.793589 0.310373
vt 0.793589 0.040511
vt 0.864363 0.040511
vt 0.864363 0.310373
vt 0.677078 0.338721
vt 0.677078 0.191796
vt 0.697046 0.191796
vt 0.697046 0.338721
vt 0.819371 0.355817
vt 0.819371 0.333799
vt 0.830781 0.333799
vt 0.830781 0.355817
vt 0.584130 0.283896
vt 0.584130 0.245364
vt 0.604098 0.245364
vt 0.604098 0.283896
vt 0.855144 0.408611
vt 0.855144 0.391924
vt 0.866554 0.391924
vt 0.866554 0.408611
vt 0.867830 0.325732
vt 0.867830 0.379368
vt 0.815811 0.379368
vt 0.815811 0.325732
vt 0.698534 0.347083
vt 0.698534 0.376285
vt 0.678566 0.376285
vt 0.678566 0.347083
vt 0.637546 0.380170
vt 0.637546 0.408492
vt 0.617578 0.408492
vt 0.617578 0.380170
vt 0.838504 0.427015
vt 0.838504 0.410831
vt 0.849915 0.410831
vt 0.849915 0.427015
vt 0.424809 0.359196
vt 0.424809 0.336508
vt 0.446059 0.336508
vt 0.446059 0.359196
vt 0.418674 0.336508
vt 0.418674 0.359196
vt 0.396532 0.359196
vt 0.396532 0.336508
vt 0.191194 0.345169
vt 0.191194 0.367857
vt 0.169943 0.367857
vt 0.169943 0.345169
vt 0.095099 0.371849
vt 0.095099 0.393990
vt 0.073848 0.393990
vt 0.073848 0.371849
vt 0.302285 0.385329
vt 0.302285 0.363188
vt 0.323536 0.363188
vt 0.323536 0.385329
vt 0.425941 0.778783
vt 0.425941 0.665340
vt 0.430170 0.665340
vt 0.430170 0.778783
vt 0.077821 0.909929
vt 0.077821 0.796486
vt 0.092748 0.796486
vt 0.092748 0.909929
vt 0.415549 0.893819
vt 0.415549 0.780377
vt 0.419778 0.780377
vt 0.419778 0.893819
vt 0.052212 0.945587
vt 0.052212 0.832145
vt 0.067139 0.832145
vt 0.067139 0.945587
vt 0.029280 0.697886
vt 0.029280 0.564964
vt 0.038836 0.564964
vt 0.038836 0.697886
vt 0.369994 0.520192
vt 0.369994 0.653114
vt 0.367286 0.653114
vt 0.367286 0.520192
vt 0.056159 0.704882
vt 0.056159 0.571960
vt 0.189082 0.571960
vt 0.189082 0.704882
vt 0.202031 0.571960
vt 0.202031 0.704882
vt 0.192475 0.704882
vt 0.192475 0.571960
vt 0.416232 0.520192
vt 0.416232 0.653114
vt 0.413525 0.653114
vt 0.413525 0.520192
vt 0.857315 0.897727
vt 0.866035 0.897727
vt 0.866035 0.913416
vt 0.857315 0.913416
vt 0.889065 0.898233
vt 0.889065 0.906954
vt 0.880555 0.906954
vt 0.880555 0.898233
vt 0.597527 0.882348
vt 0.590278 0.882348
vt 0.590278 0.869308
vt 0.597527 0.869308
vt 0.684459 0.879136
vt 0.677385 0.879136
vt 0.677385 0.866096
vt 0.684459 0.866096
vt 0.939635 0.893862
vt 0.948145 0.893862
vt 0.948145 0.909552
vt 0.939635 0.909552
vt 0.313484 0.359196
vt 0.313484 0.336508
vt 0.334734 0.336508
vt 0.334734 0.359196
vt 0.307348 0.336508
vt 0.307348 0.359196
vt 0.285207 0.359196
vt 0.285207 0.336508
vt 0.079869 0.345169
vt 0.079869 0.367857
vt 0.058618 0.367857
vt 0.058618 0.345169
vt 0.153567 0.371849
vt 0.153567 0.393990
vt 0.132317 0.393990
vt 0.132317 0.371849
vt 0.360754 0.385329
vt 0.360754 0.363188
vt 0.382004 0.363188
vt 0.382004 0.385329
vt 0.928290 0.893862
vt 0.937010 0.893862
vt 0.937010 0.909552
vt 0.928290 0.909552
vt 0.854442 0.885860
vt 0.854442 0.894581
vt 0.845931 0.894581
vt 0.845931 0.885860
vt 0.656519 0.879136
vt 0.649271 0.879136
vt 0.649271 0.866096
vt 0.656519 0.866096
vt 0.684028 0.863076
vt 0.676955 0.863076
vt 0.676955 0.850036
vt 0.684028 0.850036
vt 0.939117 0.874540
vt 0.947627 0.874540
vt 0.947627 0.890229
vt 0.939117 0.890229
vt 0.914646 0.426540
vt 0.914646 0.409853
vt 0.926057 0.409853
vt 0.926057 0.426540
vt 0.958057 0.383360
vt 0.958057 0.436997
vt 0.906038 0.436997
vt 0.906038 0.383360
vt 0.692516 0.378459
vt 0.692516 0.407661
vt 0.672548 0.407661
vt 0.672548 0.378459
vt 0.620440 0.348627
vt 0.620440 0.376948
vt 0.600472 0.376948
vt 0.600472 0.348627
vt 0.828730 0.408990
vt 0.828730 0.392806
vt 0.840140 0.392806
vt 0.840140 0.408990
vt 0.927772 0.874540
vt 0.936493 0.874540
vt 0.936493 0.890229
vt 0.927772 0.890229
vt 0.877786 0.885860
vt 0.877786 0.894581
vt 0.869275 0.894581
vt 0.869275 0.885860
vt 0.656089 0.863076
vt 0.648841 0.863076
vt 0.648841 0.850036
vt 0.656089 0.850036
vt 0.646659 0.863076
vt 0.639586 0.863076
vt 0.639586 0.850036
vt 0.646659 0.850036
vt 0.894157 0.874540
vt 0.902668 0.874540
vt 0.902668 0.890229
vt 0.894157 0.890229
vt 0.882812 0.868464
vt 0.891533 0.868464
vt 0.891533 0.884153
vt 0.882812 0.884153
vt 0.901130 0.891937
vt 0.901130 0.900657
vt 0.892619 0.900657
vt 0.892619 0.891937
vt 0.618719 0.858026
vt 0.611471 0.858026
vt 0.611471 0.844986
vt 0.618719 0.844986
vt 0.609290 0.858026
vt 0.602216 0.858026
vt 0.602216 0.844986
vt 0.609290 0.844986
vt 0.849197 0.868464
vt 0.857708 0.868464
vt 0.857708 0.884153
vt 0.849197 0.884153
vt 0.439581 0.953812
vt 0.442032 0.956263
vt 0.343993 0.956263
vt 0.346444 0.953812
vt 0.442032 0.858224
vt 0.439581 0.860675
vt 0.343993 0.858224
vt 0.346444 0.860675
vn 0.000000 0.000000 1.000000
vn 0.000000 0.000000 1.000000
vn 0.000000 0.000000 1.000000
vn 0.000000 0.000000 1.000000
vn 0.000000 1.000000 0.000000
vn 0.000000 1.000000 0.000000
vn 0.000000 1.000000 0.000000
vn 0.000000 1.000000 0.000000
vn 0.000000 0.000000 -1.000000
vn 0.000000 0.000000 -1.000000
vn 0.000000 0.000000 -1.000000
vn 0.000000 0.000000 -1.000000
vn 1.000000 0.000000 0.000000
vn 1.000000 0.000000 0.000000
vn 1.000000 0.000000 0.000000
vn 1.000000 0.000000 0.000000
vn -1.000000 0.000000 0.000000
vn -1.000000 0.000000 0.000000
vn -1.000000 0.000000 0.000000
vn -1.000000 0.000000 0.000000
vn 1.000000 0.000000 0.000000
vn 1.000000 0.000000 0.000000
vn 1.000000 0.000000 0.000000
vn 1.000000 0.000000 0.000000
vn 0.000000 1.000000 0.000000
vn 0.000000 1.000000 0.000000
vn 0.000000 1.000000 0.000000
vn 0.000000 1.000000 0.000000
vn -1.000000 0.000000 0.000000
vn -1.000000 0.000000 0.000000
vn -1.000000 0.000000 0.000000
vn -1.000000 0.000000 0.000000
vn 0.000000 0.000000 -1.000000
vn 0.000000 0.000000 -1.000000
vn 0.000000 0.000000 -1.000000
vn 0.000000 0.000000 -1.000000
vn 0.000000 0.000000 1.000000
vn 0.000000 0.000000 1.000000
vn 0.000000 0.000000 1.000000
vn 0.000000 0.000000 1.000000
vn 1.000000 0.000000 0.000000
vn 1.000000 0.000000 0.000000
vn 1.000000 0.000000 0.000000
vn 1.000000 0.000000 0.000000
vn 0.000000 1.000000 0.000000
vn 0.000000 1.000000 0.000000
vn 0.000000 1.000000 0.000000
vn 0.000000 1.000000 0.000000
vn -1.000000 0.000000 0.000000
vn -1.000000 0.000000 0.000000
vn -1.000000 0.000000 0.000000
vn -1.000000 0.000000 0.000000
vn 0.000000 0.000000 -1.000000
vn 0.000000 0.000000 -1.000000
vn 0.000000 0.000000 -1.000000
vn 0.000000 0.000000 -1.000000
vn 0.000000 0.000000 1.000000
vn 0.000000 0.000000 1.000000
vn 0.000000 0.000000 1.000000
vn 0.000000 0.000000 1.000000
vn 0.000000 0.000000 1.000000
vn 0.000000 0.000000 1.000000
vn 0.000000 0.000000 1.000000
vn 0.000000 0.000000 1.000000
vn -1.000000 0.000000 0.000000
vn -1.000000 0.000000 0.000000
vn -1.000000 0.000000 0.000000
vn -1.000000 0.000000 0.000000
vn 1.000000 0.000000 0.000000
vn 1.000000 0.000000 0.000000
vn 1.000000 0.000000 0.000000
vn 1.000000 0.000000 0.000000
vn 0.000000 1.000000 0.000000
vn 0.000000 1.000000 0.000000
vn 0.000000 1.000000 0.000000
vn 0.000000 1.000000 0.000000
vn 0.000000 1.000000 0.000000
vn 0.000000 1.000000 0.000000
vn 0.000000 1.000000 0.000000
vn 0.000000 1.000000 0.000000
vn 0.000000 0.000000 -1.000000
vn 0.000000 0.000000 -1.000000
vn 0.000000 0.000000 -1.000000
vn 0.000000 0.000000 -1.000000
vn 0.000000 0.000000 -1.000000
vn 0.000000 0.000000 -1.000000
vn 0.000000 0.000000 -1.000000
vn 0.000000 0.000000 -1.000000
vn 1.000000 0.000000 0.000000
vn 1.000000 0.000000 0.000000
vn 1.000000 0.000000 0.000000
vn 1.000000 0.000000 0.000000
vn 0.000000 1.000000 0.000000
vn 0.000000 1.000000 0.000000
vn 0.000000 1.000000 0.000000
vn 0.000000 1.000000 0.000000
vn -1.000000 0.000000 0.000000
vn -1.000000 0.000000 0.000000
vn -1.000000 0.000000 0.000000
vn -1.000000 0.000000 0.000000
vn 0.000000 0.000000 1.000000
vn 0.000000 0.000000 1.000000
vn 0.000000 0.000000 1.000000
vn 0.000000 0.000000 1.000000
vn 1.000000 0.000000 0.000000
vn 1.000000 0.000000 0.000000
vn 1.000000 0.000000 0.000000
vn 1.000000 0.000000 0.000000
vn 0.000000 1.000000 0.000000
vn 0.000000 1.000000 0.000000
vn 0.000000 1.000000 0.000000
vn 0.000000 1.000000 0.000000
vn -1.000000 0.000000 0.000000
vn -1.000000 0.000000 0.000000
vn -1.000000 0.000000 0.000000
vn -1.000000 0.000000 0.000000
vn 0.000000 0.000000 -1.000000
vn 0.000000 0.000000 -1.000000
vn 0.000000 0.000000 -1.000000
vn 0.000000 0.000000 -1.000000
vn 0.000000 0.000000 1.000000
vn 0.000000 0.000000 1.000000
vn 0.000000 0.000000 1.000000
vn 0.000000 0.000000 1.000000
vn 1.000000 0.000000 0.000000
vn 1.000000 0.000000 0.000000
vn 1.000000 0.000000 0.000000
vn 1.000000 0.000000 0.000000
vn 0.000000 1.000000 0.000000
vn 0.000000 1.000000 0.000000
vn 0.000000 1.000000 0.000000
vn 0.000000 1.000000 0.000000
vn -1.000000 0.000000 0.000000
vn -1.000000 0.000000 0.000000
vn -1.000000 0.000000 0.000000
vn -1.000000 0.000000 0.000000
vn 0.000000 0.000000 -1.000000
vn 0.000000 0.000000 -1.000000
vn 0.000000 0.000000 -1.000000
vn 0.000000 0.000000 -1.000000
vn 0.000000 0.000000 1.000000
vn 0.000000 0.000000 1.000000
vn 0.000000 0.000000 1.000000
vn 0.000000 0.000000 1.000000
vn 1.000000 0.000000 0.000000
vn 1.000000 0.000000 0.000000
vn 1.000000 0.000000 0.000000
vn 1.000000 0.000000 0.000000
vn 0.000000 1.000000 0.000000
vn 0.000000 1.000000 0.000000
vn 0.000000 1.000000 0.000000
vn 0.000000 1.000000 0.000000
vn -1.000000 0.000000 0.000000
vn -1.000000 0.000000 0.000000
vn -1.000000 0.000000 0.000000
vn -1.000000 0.000000 0.000000
vn 0.000000 0.000000 -1.000000
vn 0.000000 0.000000 -1.000000
vn 0.000000 0.000000 -1.000000
vn 0.000000 0.000000 -1.000000
vn 0.000000 0.000000 1.000000
vn 0.000000 0.000000 1.000000
vn 0.000000 0.000000 1.000000
vn 0.000000 0.000000 1.000000
vn 1.000000 0.000000 0.000000
vn 1.000000 0.000000 0.000000
vn 1.000000 0.000000 0.000000
vn 1.000000 0.000000 0.000000
vn 0.000000 1.000000 0.000000
vn 0.000000 1.000000 0.000000
vn 0.000000 1.000000 0.000000
vn 0.000000 1.000000 0.000000
vn -1.000000 0.000000 0.000000
vn -1.000000 0.000000 0.000000
vn -1.000000 0.000000 0.000000
vn -1.000000 0.000000 0.000000
vn 0.000000 0.000000 -1.000000
vn 0.000000 0.000000 -1.000000
vn 0.000000 0.000000 -1.000000
vn 0.000000 0.000000 -1.000000
vn 0.000000 0.000000 1.000000
vn 0.000000 0.000000 1.000000
vn 0.000000 0.000000 1.000000
vn 0.000000 0.000000 1.000000
vn 1.000000 0.000000 0.000000
vn 1.000000 0.000000 0.000000
vn 1.000000 0.000000 0.000000
vn 1.000000 0.000000 0.000000
vn 0.000000 1.000000 0.000000
vn 0.000000 1.000000 0.000000
vn 0.000000 1.000000 0.000000
vn 0.000000 1.000000 0.000000
vn -1.000000 0.000000 0.000000
vn -1.000000 0.000000 0.000000
vn -1.000000 0.000000 0.000000
vn -1.000000 0.000000 0.000000
vn 0.000000 0.000000 -1.000000
vn 0.000000 0.000000 -1.000000
vn 0.000000 0.000000 -1.000000
vn 0.000000 0.000000 -1.000000
vn 0.000000 0.000000 1.000000
vn 0.000000 0.000000 1.000000
vn 0.000000 0.000000 1.000000
vn 0.000000 0.000000 1.000000
vn 1.000000 0.000000 0.000000
vn 1.000000 0.000000 0.000000
vn 1.000000 0.000000 0.000000
vn 1.000000 0.000000 0.000000
vn 0.000000 1.000000 0.000000
vn 0.000000 1.000000 0.000000
vn 0.000000 1.000000 0.000000
vn 0.000000 1.000000 0.000000
vn -1.000000 0.000000 0.000000
vn -1.000000 0.000000 0.000000
vn -1.000000 0.000000 0.000000
vn -1.000000 0.000000 0.000000
vn 0.000000 0.000000 -1.000000
vn 0.000000 0.000000 -1.000000
vn 0.000000 0.000000 -1.000000
vn 0.000000 0.000000 -1.000000
vn 0.000000 0.000000 1.000000
vn 0.000000 0.000000 1.000000
vn 0.000000 0.000000 1.000000
vn 0.000000 0.000000 1.000000
vn 0.000000 1.000000 0.000000
vn 0.000000 1.000000 0.000000
vn 0.000000 1.000000 0.000000
vn 0.000000 1.000000 0.000000
vn 0.000000 1.000000 0.000000
vn 0.000000 1.000000 0.000000
vn 0.000000 1.000000 0.000000
vn 0.000000 1.000000 0.000000
f 1/1/1 2/2/2 4/3/3 3/4/4
f 3/5/5 4/6/6 6/7/7 5/8/8
f 5/9/9 6/10/10 8/11/11 7/12/12
f 2/13/13 8/14/14 6/15/15 4/16/16
f 7/17/17 1/18/18 3/19/19 5/20/20
f 9/21/21 10/22/22 12/23/23 11/24/24
f 11/25/25 12/26/26 14/27/27 13/28/28
f 13/29/29 14/30/30 16/31/31 15/32/32
f 10/33/33 16/34/34 14/35/35 12/36/36
f 15/37/37 9/38/38 11/39/39 13/40/40
f 17/41/41 18/42/42 20/43/43 19/44/44
f 19/45/45 20/46/46 22/47/47 21/48/48
f 21/49/49 22/50/50 24/51/51 23/52/52
f 18/53/53 24/54/54 22/55/55 20/56/56
f 23/57/57 17/58/58 19/59/59 21/60/60
f 25/61/61 26/62/62 27/63/63 28/64/64
f 29/65/65 25/66/66 28/67/67 30/68/68
f 26/69/69 31/70/70 32/71/71 27/72/72
f 34/217/73 32/218/74 30/219/75 33/220/76
f 28/223/77 27/221/78 35/222/79 36/224/80
f 30/73/81 32/74/82 31/75/83 29/76/84
f 36/77/85 35/78/86 37/79/87 38/80/88
f 33/81/89 36/82/90 38/83/91 39/84/92
f 39/85/93 38/86/94 37/87/95 40/88/96
f 35/89/97 34/90/98 40/91/99 37/92/100
f 34/93/101 33/94/102 39/95/103 40/96/104
f 41/97/105 42/98/106 44/99/107 43/100/108
f 43/101/109 44/102/110 46/103/111 45/104/112
f 45/105/113 46/106/114 48/107/115 47/108/116
f 42/109/117 48/110/118 46/111/119 44/112/120
f 47/113/121 41/114/122 43/115/123 45/116/124
f 49/117/125 50/118/126 52/119/127 51/120/128
f 51/121/129 52/122/130 54/123/131 53/124/132
f 53/125/133 54/126/134 56/127/135 55/128/136
f 50/129/137 56/130/138 54/131/139 52/132/140
f 55/133/141 49/134/142 51/135/143 53/136/144
f 57/137/145 58/138/146 60/139/147 59/140/148
f 59/141/149 60/142/150 62/143/151 61/144/152
f 61/145/153 62/146/154 64/147/155 63/148/156
f 58/149/157 64/150/158 62/151/159 60/152/160
f 63/153/161 57/154/162 59/155/163 61/156/164
f 65/157/165 66/158/166 68/159/167 67/160/168
f 67/161/169 68/162/170 70/163/171 69/164/172
f 69/165/173 70/166/174 72/167/175 71/168/176
f 66/169/177 72/170/178 70/171/179 68/172/180
f 71/173/181 65/174/182 67/175/183 69/176/184
f 73/177/185 74/178/186 76/179/187 75/180/188
f 75/181/189 76/182/190 78/183/191 77/184/192
f 77/185/193 78/186/194 80/187/195 79/188/196
f 74/189/197 80/190/198 78/191/199 76/192/200
f 79/193/201 73/194/202 75/195/203 77/196/204
f 81/197/205 82/198/206 84/199/207 83/200/208
f 83/201/209 84/202/210 86/203/211 85/204/212
f 85/205/213 86/206/214 88/207/215 87/208/216
f 82/209/217 88/210/218 86/211/219 84/212/220
f 87/213/221 81/214/222 83/215/223 85/216/224
f 27/221/225 32/218/226 34/217/227 35/222/228
f 28/223/229 36/224/230 33/220/231 30/219/232
