# This file uses centimeters as units for non-parametric coordinates.

v 0.000000 0.000496 1.000000
v 1.000000 0.000496 1.000000
v 1.000000 0.132074 1.000000
v 0.000000 0.132074 1.000000
v 0.000000 0.000496 0.000000
v 0.000000 0.132074 0.000000
v 1.000000 0.000496 0.000000
v 1.000000 0.132074 0.000000
v 0.025000 0.132074 0.025000
v 0.975000 0.132074 0.025000
v 0.975000 0.132074 0.975000
v 0.025000 0.132074 0.975000
v 0.975000 0.063779 0.975000
v 0.025000 0.063779 0.975000
v 0.025000 0.063779 0.025000
v 0.975000 0.063779 0.025000
v 0.482228 0.065517 0.275261
v 0.972278 0.065517 0.275261
v 0.482228 0.194627 0.275261
v 0.972278 0.194627 0.275261
v 0.482228 0.194627 0.026116
v 0.972278 0.194627 0.026116
v 0.482228 0.065517 0.026116
v 0.972278 0.065517 0.026116
v 0.973725 0.065517 0.972016
v 0.973725 0.065517 0.481966
v 0.973725 0.194627 0.972016
v 0.973725 0.194627 0.481966
v 0.724580 0.194627 0.972016
v 0.724580 0.194627 0.481966
v 0.724580 0.065517 0.972016
v 0.724580 0.065517 0.481966
v 0.673809 0.065517 0.766926
v 0.673809 0.065517 0.687056
v 0.673809 0.194627 0.766926
v 0.673809 0.194627 0.687056
v 0.595864 0.194627 0.766926
v 0.595864 0.194627 0.687056
v 0.595864 0.065517 0.766926
v 0.595864 0.065517 0.687056
v 0.206685 0.052667 0.196134
v 0.206685 0.052667 0.078149
v 0.206685 0.288040 0.196134
v 0.206685 0.288040 0.078149
v 0.091543 0.288040 0.196134
v 0.091543 0.288040 0.078149
v 0.091543 0.052667 0.196134
v 0.091543 0.052667 0.078149
v 0.159032 0.073080 0.834342
v 0.545945 0.073080 0.834342
v 0.159032 0.073080 0.447430
v 0.545945 0.073080 0.447430
vt 0.093452 0.762056
vt 0.093452 0.807035
vt 0.048473 0.762056
vt 0.048473 0.807035
vt 0.138431 0.852014
vt 0.093452 0.852014
vt 0.138431 0.896993
vt 0.093452 0.896993
vt 0.093452 0.801342
vt 0.138431 0.801342
vt 0.138431 0.762056
vt 0.093452 0.762056
vt 0.183410 0.801342
vt 0.183410 0.762056
vt 0.871921 0.854449
vt 0.889006 0.854449
vt 0.889006 0.871534
vt 0.871921 0.871534
vt 0.889006 0.888619
vt 0.871921 0.888619
vt 0.906091 0.854449
vt 0.906091 0.871534
vt 0.663882 0.103681
vt 0.663882 0.141686
vt 0.663882 0.179692
vt 0.625877 0.179692
vt 0.663882 0.217697
vt 0.625877 0.217697
vt 0.701888 0.103681
vt 0.701888 0.141686
vt 0.347985 0.575037
vt 0.392964 0.575037
vt 0.392964 0.620016
vt 0.347985 0.620016
vt 0.392964 0.664995
vt 0.347985 0.664995
vt 0.303006 0.575037
vt 0.303006 0.620016
vt 0.418394 0.405123
vt 0.377100 0.405123
vt 0.377100 0.363829
vt 0.418394 0.363829
vt 0.377100 0.322535
vt 0.418394 0.322535
vt 0.459688 0.405123
vt 0.459688 0.363829
vt 0.451897 0.714213
vt 0.271980 0.714213
vt 0.271980 0.534297
vt 0.451897 0.534297
vt 0.416202 0.875839
vt 0.418119 0.877756
vt 0.341450 0.877756
vt 0.343367 0.875839
vt 0.418119 0.801087
vt 0.416202 0.803004
vt 0.341450 0.801087
vt 0.343367 0.803004
vt 0.328635 0.877824
vt 0.328635 0.801156
vt 0.338723 0.801156
vt 0.338723 0.877824
vt 0.426142 0.800838
vt 0.426142 0.873673
vt 0.420906 0.873673
vt 0.420906 0.800838
vt 0.316052 0.877824
vt 0.316052 0.801156
vt 0.326140 0.801156
vt 0.326140 0.877824
vt 0.425909 0.876333
vt 0.425909 0.949168
vt 0.420673 0.949168
vt 0.420673 0.876333
vt 0.144928 0.447039
vt 0.101879 0.447039
vt 0.101879 0.361159
vt 0.144928 0.361159
vt 0.147013 0.361159
vt 0.189025 0.361159
vt 0.189025 0.447039
vt 0.147013 0.447039
vt 0.905137 0.307244
vt 0.905137 0.453149
vt 0.830958 0.453149
vt 0.830958 0.307244
vt 0.789209 0.453108
vt 0.789209 0.307203
vt 0.827649 0.307203
vt 0.827649 0.453108
vt 0.908720 0.381550
vt 0.908720 0.307371
vt 0.947161 0.307371
vt 0.947161 0.381550
vt 0.666722 0.786831
vt 0.666722 0.869904
vt 0.623672 0.869904
vt 0.623672 0.786831
vt 0.577117 0.949884
vt 0.577117 0.786485
vt 0.620167 0.786485
vt 0.620167 0.949884
vt 0.124603 0.663981
vt 0.092318 0.663981
vt 0.092318 0.611791
vt 0.124603 0.611791
vt 0.126170 0.611791
vt 0.157677 0.611791
vt 0.157677 0.663981
vt 0.126170 0.663981
vt 0.062579 0.575463
vt 0.179246 0.575463
vt 0.179246 0.692129
vt 0.062579 0.692129
vn 0.000000 0.000000 1.000000
vn 0.000000 0.000000 1.000000
vn 0.000000 0.000000 1.000000
vn 0.000000 0.000000 1.000000
vn -1.000000 0.000000 0.000000
vn -1.000000 0.000000 0.000000
vn -1.000000 0.000000 0.000000
vn -1.000000 0.000000 0.000000
vn 1.000000 0.000000 0.000000
vn 1.000000 0.000000 0.000000
vn 1.000000 0.000000 0.000000
vn 1.000000 0.000000 0.000000
vn 0.000000 1.000000 0.000000
vn 0.000000 1.000000 0.000000
vn 0.000000 1.000000 0.000000
vn 0.000000 1.000000 0.000000
vn 0.000000 1.000000 0.000000
vn 0.000000 1.000000 0.000000
vn 0.000000 1.000000 0.000000
vn 0.000000 1.000000 0.000000
vn 0.000000 0.000000 -1.000000
vn 0.000000 0.000000 -1.000000
vn 0.000000 0.000000 -1.000000
vn 0.000000 0.000000 -1.000000
vn 0.000000 0.000000 -1.000000
vn 0.000000 0.000000 -1.000000
vn 0.000000 0.000000 -1.000000
vn 0.000000 0.000000 -1.000000
vn 1.000000 0.000000 0.000000
vn 1.000000 0.000000 0.000000
vn 1.000000 0.000000 0.000000
vn 1.000000 0.000000 0.000000
vn -1.000000 0.000000 0.000000
vn -1.000000 0.000000 0.000000
vn -1.000000 0.000000 0.000000
vn -1.000000 0.000000 0.000000
vn 0.000000 0.000000 1.000000
vn 0.000000 0.000000 1.000000
vn 0.000000 0.000000 1.000000
vn 0.000000 0.000000 1.000000
vn 0.000000 0.000000 1.000000
vn 0.000000 0.000000 1.000000
vn 0.000000 0.000000 1.000000
vn 0.000000 0.000000 1.000000
vn 0.000000 1.000000 0.000000
vn 0.000000 1.000000 0.000000
vn 0.000000 1.000000 0.000000
vn 0.000000 1.000000 0.000000
vn 0.000000 0.000000 -1.000000
vn 0.000000 0.000000 -1.000000
vn 0.000000 0.000000 -1.000000
vn 0.000000 0.000000 -1.000000
vn 1.000000 0.000000 0.000000
vn 1.000000 0.000000 0.000000
vn 1.000000 0.000000 0.000000
vn 1.000000 0.000000 0.000000
vn -1.000000 0.000000 0.000000
vn -1.000000 0.000000 0.000000
vn -1.000000 0.000000 0.000000
vn -1.000000 0.000000 0.000000
vn 1.000000 0.000000 0.000000
vn 1.000000 0.000000 0.000000
vn 1.000000 0.000000 0.000000
vn 1.000000 0.000000 0.000000
vn 0.000000 1.000000 0.000000
vn 0.000000 1.000000 0.000000
vn 0.000000 1.000000 0.000000
vn 0.000000 1.000000 0.000000
vn -1.000000 0.000000 0.000000
vn -1.000000 0.000000 0.000000
vn -1.000000 0.000000 0.000000
vn -1.000000 0.000000 0.000000
vn 0.000000 0.000000 -1.000000
vn 0.000000 0.000000 -1.000000
vn 0.000000 0.000000 -1.000000
vn 0.000000 0.000000 -1.000000
vn 0.000000 0.000000 1.000000
vn 0.000000 0.000000 1.000000
vn 0.000000 0.000000 1.000000
vn 0.000000 0.000000 1.000000
vn 1.000000 0.000000 0.000000
vn 1.000000 0.000000 0.000000
vn 1.000000 0.000000 0.000000
vn 1.000000 0.000000 0.000000
vn 0.000000 1.000000 0.000000
vn 0.000000 1.000000 0.000000
vn 0.000000 1.000000 0.000000
vn 0.000000 1.000000 0.000000
vn -1.000000 0.000000 0.000000
vn -1.000000 0.000000 0.000000
vn -1.000000 0.000000 0.000000
vn -1.000000 0.000000 0.000000
vn 0.000000 0.000000 -1.000000
vn 0.000000 0.000000 -1.000000
vn 0.000000 0.000000 -1.000000
vn 0.000000 0.000000 -1.000000
vn 0.000000 0.000000 1.000000
vn 0.000000 0.000000 1.000000
vn 0.000000 0.000000 1.000000
vn 0.000000 0.000000 1.000000
vn 1.000000 0.000000 0.000000
vn 1.000000 0.000000 0.000000
vn 1.000000 0.000000 0.000000
vn 1.000000 0.000000 0.000000
vn 0.000000 1.000000 0.000000
vn 0.000000 1.000000 0.000000
vn 0.000000 1.000000 0.000000
vn 0.000000 1.000000 0.000000
vn -1.000000 0.000000 0.000000
vn -1.000000 0.000000 0.000000
vn -1.000000 0.000000 0.000000
vn -1.000000 0.000000 0.000000
vn 0.000000 0.000000 -1.000000
vn 0.000000 0.000000 -1.000000
vn 0.000000 0.000000 -1.000000
vn 0.000000 0.000000 -1.000000
vn 0.000000 0.000000 1.000000
vn 0.000000 0.000000 1.000000
vn 0.000000 0.000000 1.000000
vn 0.000000 0.000000 1.000000
vn 0.000000 1.000000 0.000000
vn 0.000000 1.000000 0.000000
vn 0.000000 1.000000 0.000000
vn 0.000000 1.000000 0.000000
vn 0.000000 1.000000 0.000000
vn 0.000000 1.000000 0.000000
vn 0.000000 1.000000 0.000000
vn 0.000000 1.000000 0.000000
vn 0.000000 1.000000 0.000000
vn 0.000000 1.000000 0.000000
vn 0.000000 1.000000 0.000000
vn 0.000000 1.000000 0.000000
vn 0.000000 1.000000 0.000000
vn 0.000000 1.000000 0.000000
vn 0.000000 1.000000 0.000000
vn 0.000000 1.000000 0.000000
f 1/67/1 2/68/2 3/69/3 4/70/4
f 5/3/5 1/1/6 4/2/7 6/4/8
f 2/59/9 7/60/10 8/61/11 3/62/12
f 10/51/13 8/52/14 6/53/15 9/54/16
f 4/57/17 3/55/18 11/56/19 12/58/20
f 6/6/21 8/5/22 7/7/23 5/8/24
f 12/9/25 11/10/26 13/11/27 14/12/28
f 9/63/29 12/64/30 14/65/31 15/66/32
f 11/10/33 10/13/34 16/14/35 13/11/36
f 10/71/37 9/72/38 15/73/39 16/74/40
f 17/15/41 18/16/42 20/17/43 19/18/44
f 19/18/45 20/17/46 22/19/47 21/20/48
f 21/99/49 22/100/50 24/101/51 23/102/52
f 18/16/53 24/21/54 22/22/55 20/17/56
f 23/95/57 17/96/58 19/97/59 21/98/60
f 25/87/61 26/88/62 28/89/63 27/90/64
f 27/83/65 28/84/66 30/85/67 29/86/68
f 29/26/69 30/25/70 32/27/71 31/28/72
f 26/23/73 32/29/74 30/30/75 28/24/76
f 31/91/77 25/92/78 27/93/79 29/94/80
f 33/31/81 34/32/82 36/33/83 35/34/84
f 35/34/85 36/33/86 38/35/87 37/36/88
f 37/103/89 38/104/90 40/105/91 39/106/92
f 34/107/93 40/108/94 38/109/95 36/110/96
f 39/37/97 33/31/98 35/34/99 37/38/100
f 41/39/101 42/40/102 44/41/103 43/42/104
f 43/42/105 44/41/106 46/43/107 45/44/108
f 45/75/109 46/76/110 48/77/111 47/78/112
f 42/79/113 48/80/114 46/81/115 44/82/116
f 47/45/117 41/39/118 43/42/119 45/46/120
f 52/47/121 51/48/122 49/49/123 50/50/124
f 4/57/125 12/58/126 9/54/127 6/53/128
f 3/55/129 8/52/130 10/51/131 11/56/132
f 14/111/133 13/112/134 16/113/135 15/114/136
