# This file uses centimeters as units for non-parametric coordinates.

v 0.000000 0.000496 1.000000
v 1.000000 0.000496 1.000000
v 1.000000 0.132074 1.000000
v 0.000000 0.132074 1.000000
v 0.000000 0.000496 0.000000
v 0.000000 0.132074 0.000000
v 1.000000 0.000496 0.000000
v 1.000000 0.132074 0.000000
v 0.025000 0.132074 0.025000
v 0.975000 0.132074 0.025000
v 0.975000 0.132074 0.975000
v 0.025000 0.132074 0.975000
v 0.975000 0.063779 0.975000
v 0.025000 0.063779 0.975000
v 0.025000 0.063779 0.025000
v 0.975000 0.063779 0.025000
v 0.482228 0.065517 0.275261
v 0.972278 0.065517 0.275261
v 0.482228 0.194627 0.275261
v 0.972278 0.194627 0.275261
v 0.482228 0.194627 0.026116
v 0.972278 0.194627 0.026116
v 0.482228 0.065517 0.026116
v 0.972278 0.065517 0.026116
v 0.973725 0.065517 0.972016
v 0.973725 0.065517 0.481966
v 0.973725 0.194627 0.972016
v 0.973725 0.194627 0.481966
v 0.724580 0.194627 0.972016
v 0.724580 0.194627 0.481966
v 0.724580 0.065517 0.972016
v 0.724580 0.065517 0.481966
v 0.673809 0.065517 0.766926
v 0.673809 0.065517 0.687056
v 0.673809 0.194627 0.766926
v 0.673809 0.194627 0.687056
v 0.595864 0.194627 0.766926
v 0.595864 0.194627 0.687056
v 0.595864 0.065517 0.766926
v 0.595864 0.065517 0.687056
v 0.025000 0.132074 0.025000
v 0.975000 0.132074 0.025000
v 0.975000 0.063779 0.975000
v 0.025000 0.063779 0.975000
v 0.025000 0.063779 0.025000
v 0.975000 0.063779 0.025000
v 0.206685 0.052667 0.196134
v 0.206685 0.052667 0.078149
v 0.206685 0.288040 0.196134
v 0.206685 0.288040 0.078149
v 0.091543 0.288040 0.196134
v 0.091543 0.288040 0.078149
v 0.091543 0.052667 0.196134
v 0.091543 0.052667 0.078149
v 0.159032 0.073080 0.834342
v 0.352488 0.073080 0.834342
v 0.545945 0.073080 0.834342
v 0.159032 0.073080 0.640886
v 0.352488 0.073080 0.640886
v 0.545945 0.073080 0.640886
v 0.159032 0.073080 0.447430
v 0.352488 0.073080 0.447430
v 0.545945 0.073080 0.447430
vt 0.850276 0.018868
vt 0.895255 0.018868
vt 0.895255 0.063847
vt 0.850276 0.063847
vt 0.805297 0.018868
vt 0.805297 0.063847
vt 0.850276 0.153805
vt 0.895255 0.153805
vt 0.895255 0.198784
vt 0.850276 0.198784
vt 0.940234 0.018868
vt 0.940234 0.063847
vt 0.895255 0.108826
vt 0.850276 0.108826
vt 0.851401 0.107702
vt 0.894131 0.107702
vt 0.894131 0.064971
vt 0.851401 0.064971
vt 0.850276 0.058154
vt 0.895255 0.058154
vt 0.895255 0.018868
vt 0.850276 0.018868
vt 0.805297 0.058154
vt 0.805297 0.018868
vt 0.850276 0.153805
vt 0.850276 0.198784
vt 0.895255 0.198784
vt 0.895255 0.153805
vt 0.940234 0.058154
vt 0.940234 0.018868
vt 0.895255 0.114519
vt 0.850276 0.114519
vt 0.381008 0.833994
vt 0.398093 0.833994
vt 0.398093 0.851079
vt 0.381008 0.851079
vt 0.398093 0.868164
vt 0.381008 0.868164
vt 0.398093 0.885249
vt 0.381008 0.885249
vt 0.398093 0.902334
vt 0.381008 0.902334
vt 0.415178 0.833994
vt 0.415178 0.851079
vt 0.363923 0.833994
vt 0.363923 0.851079
vt 0.619059 0.805959
vt 0.657064 0.805959
vt 0.657064 0.843964
vt 0.619059 0.843964
vt 0.657064 0.881970
vt 0.619059 0.881970
vt 0.657064 0.919975
vt 0.619059 0.919975
vt 0.657064 0.957981
vt 0.619059 0.957981
vt 0.695070 0.805959
vt 0.695070 0.843964
vt 0.581053 0.805959
vt 0.581053 0.843964
vt 0.109347 0.520491
vt 0.154326 0.520491
vt 0.154326 0.565470
vt 0.109347 0.565470
vt 0.154326 0.610449
vt 0.109347 0.610449
vt 0.154326 0.655428
vt 0.109347 0.655428
vt 0.154326 0.700407
vt 0.109347 0.700407
vt 0.199305 0.520491
vt 0.199305 0.565470
vt 0.064368 0.520491
vt 0.064368 0.565470
vt 0.829635 0.121260
vt 0.829635 0.198317
vt 0.906692 0.198317
vt 0.906692 0.121260
vt 0.906692 0.053955
vt 0.829635 0.053955
vt 0.152483 0.936945
vt 0.111189 0.936945
vt 0.111189 0.895651
vt 0.152483 0.895651
vt 0.111189 0.854357
vt 0.152483 0.854357
vt 0.111189 0.813064
vt 0.152483 0.813064
vt 0.111189 0.771770
vt 0.152483 0.771770
vt 0.069895 0.936945
vt 0.069895 0.895651
vt 0.193777 0.936945
vt 0.193777 0.895651
vt 0.271980 0.534297
vt 0.361939 0.534297
vt 0.361939 0.624255
vt 0.271980 0.624255
vt 0.451897 0.534297
vt 0.451897 0.624255
vt 0.361939 0.714213
vt 0.271980 0.714213
vt 0.451897 0.714213
vn 0.000000 0.000000 1.000000
vn 0.000000 0.000000 1.000000
vn 0.000000 0.000000 1.000000
vn 0.000000 0.000000 1.000000
vn -1.000000 0.000000 0.000000
vn -1.000000 0.000000 0.000000
vn -1.000000 0.000000 0.000000
vn -1.000000 0.000000 0.000000
vn 0.000000 -1.000000 0.000000
vn 0.000000 -1.000000 0.000000
vn 0.000000 -1.000000 0.000000
vn 0.000000 -1.000000 0.000000
vn 1.000000 0.000000 0.000000
vn 1.000000 0.000000 0.000000
vn 1.000000 0.000000 0.000000
vn 1.000000 0.000000 0.000000
vn 0.000000 1.000000 0.000000
vn 0.000000 1.000000 0.000000
vn 0.000000 1.000000 0.000000
vn 0.000000 1.000000 0.000000
vn 0.000000 1.000000 0.000000
vn 0.000000 1.000000 0.000000
vn 0.000000 1.000000 0.000000
vn 0.000000 1.000000 0.000000
vn 0.000000 0.000000 -1.000000
vn 0.000000 0.000000 -1.000000
vn 0.000000 0.000000 -1.000000
vn 0.000000 0.000000 -1.000000
vn 0.000000 0.000000 -1.000000
vn 0.000000 0.000000 -1.000000
vn 0.000000 0.000000 -1.000000
vn 0.000000 0.000000 -1.000000
vn 1.000000 0.000000 0.000000
vn 1.000000 0.000000 0.000000
vn 1.000000 0.000000 0.000000
vn 1.000000 0.000000 0.000000
vn 0.000000 1.000000 0.000000
vn 0.000000 1.000000 0.000000
vn 0.000000 1.000000 0.000000
vn 0.000000 1.000000 0.000000
vn -1.000000 0.000000 0.000000
vn -1.000000 0.000000 0.000000
vn -1.000000 0.000000 0.000000
vn -1.000000 0.000000 0.000000
vn 0.000000 0.000000 1.000000
vn 0.000000 0.000000 1.000000
vn 0.000000 0.000000 1.000000
vn 0.000000 0.000000 1.000000
vn 0.000000 0.000000 1.000000
vn 0.000000 0.000000 1.000000
vn 0.000000 0.000000 1.000000
vn 0.000000 0.000000 1.000000
vn 0.000000 1.000000 0.000000
vn 0.000000 1.000000 0.000000
vn 0.000000 1.000000 0.000000
vn 0.000000 1.000000 0.000000
vn 0.000000 0.000000 -1.000000
vn 0.000000 0.000000 -1.000000
vn 0.000000 0.000000 -1.000000
vn 0.000000 0.000000 -1.000000
vn 0.000000 -1.000000 0.000000
vn 0.000000 -1.000000 0.000000
vn 0.000000 -1.000000 0.000000
vn 0.000000 -1.000000 0.000000
vn 1.000000 0.000000 0.000000
vn 1.000000 0.000000 0.000000
vn 1.000000 0.000000 0.000000
vn 1.000000 0.000000 0.000000
vn -1.000000 0.000000 0.000000
vn -1.000000 0.000000 0.000000
vn -1.000000 0.000000 0.000000
vn -1.000000 0.000000 0.000000
vn 1.000000 0.000000 0.000000
vn 1.000000 0.000000 0.000000
vn 1.000000 0.000000 0.000000
vn 1.000000 0.000000 0.000000
vn 0.000000 1.000000 0.000000
vn 0.000000 1.000000 0.000000
vn 0.000000 1.000000 0.000000
vn 0.000000 1.000000 0.000000
vn -1.000000 0.000000 0.000000
vn -1.000000 0.000000 0.000000
vn -1.000000 0.000000 0.000000
vn -1.000000 0.000000 0.000000
vn 0.000000 -1.000000 0.000000
vn 0.000000 -1.000000 0.000000
vn 0.000000 -1.000000 0.000000
vn 0.000000 -1.000000 0.000000
vn 0.000000 0.000000 -1.000000
vn 0.000000 0.000000 -1.000000
vn 0.000000 0.000000 -1.000000
vn 0.000000 0.000000 -1.000000
vn 0.000000 0.000000 1.000000
vn 0.000000 0.000000 1.000000
vn 0.000000 0.000000 1.000000
vn 0.000000 0.000000 1.000000
vn 1.000000 0.000000 0.000000
vn 1.000000 0.000000 0.000000
vn 1.000000 0.000000 0.000000
vn 1.000000 0.000000 0.000000
vn 0.000000 1.000000 0.000000
vn 0.000000 1.000000 0.000000
vn 0.000000 1.000000 0.000000
vn 0.000000 1.000000 0.000000
vn -1.000000 0.000000 0.000000
vn -1.000000 0.000000 0.000000
vn -1.000000 0.000000 0.000000
vn -1.000000 0.000000 0.000000
vn 0.000000 -1.000000 0.000000
vn 0.000000 -1.000000 0.000000
vn 0.000000 -1.000000 0.000000
vn 0.000000 -1.000000 0.000000
vn 0.000000 0.000000 -1.000000
vn 0.000000 0.000000 -1.000000
vn 0.000000 0.000000 -1.000000
vn 0.000000 0.000000 -1.000000
vn 0.000000 0.000000 1.000000
vn 0.000000 0.000000 1.000000
vn 0.000000 0.000000 1.000000
vn 0.000000 0.000000 1.000000
vn 0.000000 1.000000 0.000000
vn 0.000000 1.000000 0.000000
vn 0.000000 1.000000 0.000000
vn 0.000000 1.000000 0.000000
vn 0.000000 0.000000 1.000000
vn 0.000000 0.000000 1.000000
vn 0.000000 0.000000 1.000000
vn 0.000000 0.000000 1.000000
vn 1.000000 0.000000 0.000000
vn 1.000000 0.000000 0.000000
vn 1.000000 0.000000 0.000000
vn 1.000000 0.000000 0.000000
vn 0.000000 1.000000 0.000000
vn 0.000000 1.000000 0.000000
vn 0.000000 1.000000 0.000000
vn 0.000000 1.000000 0.000000
vn -1.000000 0.000000 0.000000
vn -1.000000 0.000000 0.000000
vn -1.000000 0.000000 0.000000
vn -1.000000 0.000000 0.000000
vn 0.000000 -1.000000 0.000000
vn 0.000000 -1.000000 0.000000
vn 0.000000 -1.000000 0.000000
vn 0.000000 -1.000000 0.000000
vn 0.000000 0.000000 -1.000000
vn 0.000000 0.000000 -1.000000
vn 0.000000 0.000000 -1.000000
vn 0.000000 0.000000 -1.000000
vn 0.000000 0.000000 1.000000
vn 0.000000 0.000000 1.000000
vn 0.000000 0.000000 1.000000
vn 0.000000 0.000000 1.000000
vn 0.000000 1.000000 0.000000
vn 0.000000 1.000000 0.000000
vn 0.000000 1.000000 0.000000
vn 0.000000 1.000000 0.000000
vn 0.000000 1.000000 0.000000
vn 0.000000 1.000000 0.000000
vn 0.000000 1.000000 0.000000
vn 0.000000 1.000000 0.000000
vn 0.000000 1.000000 0.000000
vn 0.000000 1.000000 0.000000
vn 0.000000 1.000000 0.000000
vn 0.000000 1.000000 0.000000
vn 0.000000 1.000000 0.000000
vn 0.000000 1.000000 0.000000
vn 0.000000 1.000000 0.000000
vn 0.000000 1.000000 0.000000
vn 0.000000 1.000000 0.000000
vn 0.000000 1.000000 0.000000
vn 0.000000 1.000000 0.000000
vn 0.000000 1.000000 0.000000
g room1_pCube17
f 1/1/1 2/2/2 3/3/3 4/4/4
f 5/5/5 1/1/6 4/4/7 6/6/8
f 5/7/9 7/8/10 2/9/11 1/10/12
f 2/2/13 7/11/14 8/12/15 3/3/16
f 10/16/17 8/13/18 6/14/19 9/15/20
f 4/4/21 3/3/22 11/17/23 12/18/24
f 6/14/25 8/13/26 7/8/27 5/7/28
f 12/19/29 11/20/30 13/21/31 14/22/32
f 9/23/33 12/19/34 14/22/35 15/24/36
f 15/25/37 14/26/38 13/27/39 16/28/40
f 11/20/41 10/29/42 16/30/43 13/21/44
f 10/31/45 9/32/46 15/25/47 16/28/48
f 17/33/49 18/34/50 20/35/51 19/36/52
f 19/36/53 20/35/54 22/37/55 21/38/56
f 21/38/57 22/37/58 24/39/59 23/40/60
f 23/40/61 24/39/62 18/41/63 17/42/64
f 18/34/65 24/43/66 22/44/67 20/35/68
f 23/45/69 17/33/70 19/36/71 21/46/72
f 25/47/73 26/48/74 28/49/75 27/50/76
f 27/50/77 28/49/78 30/51/79 29/52/80
f 29/52/81 30/51/82 32/53/83 31/54/84
f 31/54/85 32/53/86 26/55/87 25/56/88
f 26/48/89 32/57/90 30/58/91 28/49/92
f 31/59/93 25/47/94 27/50/95 29/60/96
f 33/61/97 34/62/98 36/63/99 35/64/100
f 35/64/101 36/63/102 38/65/103 37/66/104
f 37/66/105 38/65/106 40/67/107 39/68/108
f 39/68/109 40/67/110 34/69/111 33/70/112
f 34/62/113 40/71/114 38/72/115 36/63/116
f 39/73/117 33/61/118 35/64/119 37/74/120
f 45/75/121 44/76/122 43/77/123 46/78/124
f 42/79/125 41/80/126 45/75/127 46/78/128
f 47/81/129 48/82/130 50/83/131 49/84/132
f 49/84/133 50/83/134 52/85/135 51/86/136
f 51/86/137 52/85/138 54/87/139 53/88/140
f 53/88/141 54/87/142 48/89/143 47/90/144
f 48/82/145 54/91/146 52/92/147 50/83/148
f 53/93/149 47/81/150 49/84/151 51/94/152
f 55/95/153 56/96/154 59/97/155 58/98/156
f 56/96/157 57/99/158 60/100/159 59/97/160
f 58/98/161 59/97/162 62/101/163 61/102/164
f 59/97/165 60/100/166 63/103/167 62/101/168
f 4/4/21 12/18/24 9/15/169 6/14/170
f 3/3/171 8/13/18 10/16/17 11/17/172
