# This file uses centimeters as units for non-parametric coordinates.

v 0.000000 0.000496 1.000000
v 1.000000 0.000496 1.000000
v 1.000000 0.132074 1.000000
v 0.000000 0.132074 1.000000
v 0.000000 0.000496 0.000000
v 0.000000 0.132074 0.000000
v 1.000000 0.000496 0.000000
v 1.000000 0.132074 0.000000
v 0.025000 0.132074 0.025000
v 0.975000 0.132074 0.025000
v 0.975000 0.132074 0.975000
v 0.025000 0.132074 0.975000
v 0.975000 0.063779 0.975000
v 0.025000 0.063779 0.975000
v 0.025000 0.063779 0.025000
v 0.975000 0.063779 0.025000
v 0.482228 0.065517 0.275261
v 0.972278 0.065517 0.275261
v 0.482228 0.194627 0.275261
v 0.972278 0.194627 0.275261
v 0.482228 0.194627 0.026116
v 0.972278 0.194627 0.026116
v 0.482228 0.065517 0.026116
v 0.972278 0.065517 0.026116
v 0.973725 0.065517 0.972016
v 0.973725 0.065517 0.481966
v 0.973725 0.194627 0.972016
v 0.973725 0.194627 0.481966
v 0.724580 0.194627 0.972016
v 0.724580 0.194627 0.481966
v 0.724580 0.065517 0.972016
v 0.724580 0.065517 0.481966
v 0.673809 0.065517 0.766926
v 0.673809 0.065517 0.687056
v 0.673809 0.194627 0.766926
v 0.673809 0.194627 0.687056
v 0.595864 0.194627 0.766926
v 0.595864 0.194627 0.687056
v 0.595864 0.065517 0.766926
v 0.595864 0.065517 0.687056
v 0.159032 0.073080 0.834342
v 0.352488 0.073080 0.834342
v 0.545945 0.073080 0.834342
v 0.159032 0.073080 0.640886
v 0.352488 0.073080 0.640886
v 0.545945 0.073080 0.640886
v 0.159032 0.073080 0.447430
v 0.352488 0.073080 0.447430
v 0.545945 0.073080 0.447430
v 0.000000 0.000496 1.000000
v 1.000000 0.000496 1.000000
v 1.000000 0.132074 1.000000
v 0.000000 0.132074 1.000000
v 0.000000 0.000496 0.000000
v 0.000000 0.132074 0.000000
v 1.000000 0.000496 0.000000
v 1.000000 0.132074 0.000000
v 0.025000 0.132074 0.025000
v 0.975000 0.132074 0.025000
v 0.975000 0.132074 0.975000
v 0.025000 0.132074 0.975000
v 0.975000 0.063779 0.975000
v 0.025000 0.063779 0.975000
v 0.025000 0.063779 0.025000
v 0.975000 0.063779 0.025000
v 0.482228 0.065517 0.275261
v 0.972278 0.065517 0.275261
v 0.482228 0.194627 0.275261
v 0.972278 0.194627 0.275261
v 0.482228 0.194627 0.026116
v 0.972278 0.194627 0.026116
v 0.482228 0.065517 0.026116
v 0.972278 0.065517 0.026116
v 0.973725 0.065517 0.972016
v 0.973725 0.065517 0.481966
v 0.973725 0.194627 0.972016
v 0.973725 0.194627 0.481966
v 0.724580 0.194627 0.972016
v 0.724580 0.194627 0.481966
v 0.724580 0.065517 0.972016
v 0.724580 0.065517 0.481966
v 0.673809 0.065517 0.766926
v 0.673809 0.065517 0.687056
v 0.673809 0.194627 0.766926
v 0.673809 0.194627 0.687056
v 0.595864 0.194627 0.766926
v 0.595864 0.194627 0.687056
v 0.595864 0.065517 0.766926
v 0.595864 0.065517 0.687056
v 0.206685 0.052667 0.196134
v 0.206685 0.052667 0.078149
v 0.206685 0.288040 0.196134
v 0.206685 0.288040 0.078149
v 0.091543 0.288040 0.196134
v 0.091543 0.288040 0.078149
v 0.091543 0.052667 0.196134
v 0.091543 0.052667 0.078149
v 0.159032 0.073080 0.834342
v 0.352488 0.073080 0.834342
v 0.545945 0.073080 0.834342
v 0.159032 0.073080 0.640886
v 0.352488 0.073080 0.640886
v 0.545945 0.073080 0.640886
v 0.159032 0.073080 0.447430
v 0.352488 0.073080 0.447430
v 0.545945 0.073080 0.447430
vt 0.375000 0.000000
vt 0.625000 0.000000
vt 0.625000 0.250000
vt 0.375000 0.250000
vt 0.125000 0.000000
vt 0.125000 0.250000
vt 0.375000 0.750000
vt 0.625000 0.750000
vt 0.625000 1.000000
vt 0.375000 1.000000
vt 0.875000 0.000000
vt 0.875000 0.250000
vt 0.625000 0.500000
vt 0.375000 0.500000
vt 0.381250 0.493750
vt 0.618750 0.493750
vt 0.618750 0.256250
vt 0.381250 0.256250
vt 0.375000 0.218359
vt 0.625000 0.218359
vt 0.625000 0.000000
vt 0.375000 0.000000
vt 0.125000 0.218359
vt 0.125000 0.000000
vt 0.375000 0.750000
vt 0.375000 1.000000
vt 0.625000 1.000000
vt 0.625000 0.750000
vt 0.875000 0.218359
vt 0.875000 0.000000
vt 0.625000 0.531641
vt 0.375000 0.531641
vt 0.375000 0.000000
vt 0.625000 0.000000
vt 0.625000 0.250000
vt 0.375000 0.250000
vt 0.625000 0.500000
vt 0.375000 0.500000
vt 0.625000 0.750000
vt 0.375000 0.750000
vt 0.625000 1.000000
vt 0.375000 1.000000
vt 0.875000 0.000000
vt 0.875000 0.250000
vt 0.125000 0.000000
vt 0.125000 0.250000
vt 0.375000 0.000000
vt 0.625000 0.000000
vt 0.625000 0.250000
vt 0.375000 0.250000
vt 0.625000 0.500000
vt 0.375000 0.500000
vt 0.625000 0.750000
vt 0.375000 0.750000
vt 0.625000 1.000000
vt 0.375000 1.000000
vt 0.875000 0.000000
vt 0.875000 0.250000
vt 0.125000 0.000000
vt 0.125000 0.250000
vt 0.375000 0.000000
vt 0.625000 0.000000
vt 0.625000 0.250000
vt 0.375000 0.250000
vt 0.625000 0.500000
vt 0.375000 0.500000
vt 0.625000 0.750000
vt 0.375000 0.750000
vt 0.625000 1.000000
vt 0.375000 1.000000
vt 0.875000 0.000000
vt 0.875000 0.250000
vt 0.125000 0.000000
vt 0.125000 0.250000
vt 0.000000 0.000000
vt 0.500000 0.000000
vt 0.500000 0.500000
vt 0.000000 0.500000
vt 1.000000 0.000000
vt 1.000000 0.500000
vt 0.500000 1.000000
vt 0.000000 1.000000
vt 1.000000 1.000000
vt 0.375000 0.000000
vt 0.625000 0.000000
vt 0.625000 0.250000
vt 0.375000 0.250000
vt 0.125000 0.000000
vt 0.125000 0.250000
vt 0.375000 0.750000
vt 0.625000 0.750000
vt 0.625000 1.000000
vt 0.375000 1.000000
vt 0.875000 0.000000
vt 0.875000 0.250000
vt 0.625000 0.500000
vt 0.375000 0.500000
vt 0.381250 0.493750
vt 0.618750 0.493750
vt 0.618750 0.256250
vt 0.381250 0.256250
vt 0.375000 0.218359
vt 0.625000 0.218359
vt 0.625000 0.000000
vt 0.375000 0.000000
vt 0.125000 0.218359
vt 0.125000 0.000000
vt 0.375000 0.750000
vt 0.375000 1.000000
vt 0.625000 1.000000
vt 0.625000 0.750000
vt 0.875000 0.218359
vt 0.875000 0.000000
vt 0.625000 0.531641
vt 0.375000 0.531641
vt 0.375000 0.000000
vt 0.625000 0.000000
vt 0.625000 0.250000
vt 0.375000 0.250000
vt 0.625000 0.500000
vt 0.375000 0.500000
vt 0.625000 0.750000
vt 0.375000 0.750000
vt 0.625000 1.000000
vt 0.375000 1.000000
vt 0.875000 0.000000
vt 0.875000 0.250000
vt 0.125000 0.000000
vt 0.125000 0.250000
vt 0.375000 0.000000
vt 0.625000 0.000000
vt 0.625000 0.250000
vt 0.375000 0.250000
vt 0.625000 0.500000
vt 0.375000 0.500000
vt 0.625000 0.750000
vt 0.375000 0.750000
vt 0.625000 1.000000
vt 0.375000 1.000000
vt 0.875000 0.000000
vt 0.875000 0.250000
vt 0.125000 0.000000
vt 0.125000 0.250000
vt 0.375000 0.000000
vt 0.625000 0.000000
vt 0.625000 0.250000
vt 0.375000 0.250000
vt 0.625000 0.500000
vt 0.375000 0.500000
vt 0.625000 0.750000
vt 0.375000 0.750000
vt 0.625000 1.000000
vt 0.375000 1.000000
vt 0.875000 0.000000
vt 0.875000 0.250000
vt 0.125000 0.000000
vt 0.125000 0.250000
vt 0.375000 0.000000
vt 0.625000 0.000000
vt 0.625000 0.250000
vt 0.375000 0.250000
vt 0.625000 0.500000
vt 0.375000 0.500000
vt 0.625000 0.750000
vt 0.375000 0.750000
vt 0.625000 1.000000
vt 0.375000 1.000000
vt 0.875000 0.000000
vt 0.875000 0.250000
vt 0.125000 0.000000
vt 0.125000 0.250000
vt 0.000000 0.000000
vt 0.500000 0.000000
vt 0.500000 0.500000
vt 0.000000 0.500000
vt 1.000000 0.000000
vt 1.000000 0.500000
vt 0.500000 1.000000
vt 0.000000 1.000000
vt 1.000000 1.000000
vn 0.000000 0.000000 1.000000
vn 0.000000 0.000000 1.000000
vn 0.000000 0.000000 1.000000
vn 0.000000 0.000000 1.000000
vn -1.000000 0.000000 0.000000
vn -1.000000 0.000000 0.000000
vn -1.000000 0.000000 0.000000
vn -1.000000 0.000000 0.000000
vn 0.000000 -1.000000 0.000000
vn 0.000000 -1.000000 0.000000
vn 0.000000 -1.000000 0.000000
vn 0.000000 -1.000000 0.000000
vn 1.000000 0.000000 0.000000
vn 1.000000 0.000000 0.000000
vn 1.000000 0.000000 0.000000
vn 1.000000 0.000000 0.000000
vn 0.000000 1.000000 0.000000
vn 0.000000 1.000000 0.000000
vn 0.000000 1.000000 0.000000
vn 0.000000 1.000000 0.000000
vn 0.000000 1.000000 0.000000
vn 0.000000 1.000000 0.000000
vn 0.000000 1.000000 0.000000
vn 0.000000 1.000000 0.000000
vn 0.000000 1.000000 0.000000
vn 0.000000 1.000000 0.000000
vn 0.000000 1.000000 0.000000
vn 0.000000 1.000000 0.000000
vn 0.000000 0.000000 -1.000000
vn 0.000000 0.000000 -1.000000
vn 0.000000 0.000000 -1.000000
vn 0.000000 0.000000 -1.000000
vn 0.000000 0.000000 -1.000000
vn 0.000000 0.000000 -1.000000
vn 0.000000 0.000000 -1.000000
vn 0.000000 0.000000 -1.000000
vn 1.000000 0.000000 0.000000
vn 1.000000 0.000000 0.000000
vn 1.000000 0.000000 0.000000
vn 1.000000 0.000000 0.000000
vn 0.000000 1.000000 0.000000
vn 0.000000 1.000000 0.000000
vn 0.000000 1.000000 0.000000
vn 0.000000 1.000000 0.000000
vn -1.000000 0.000000 0.000000
vn -1.000000 0.000000 0.000000
vn -1.000000 0.000000 0.000000
vn -1.000000 0.000000 0.000000
vn 0.000000 0.000000 1.000000
vn 0.000000 0.000000 1.000000
vn 0.000000 0.000000 1.000000
vn 0.000000 0.000000 1.000000
vn 0.000000 0.000000 1.000000
vn 0.000000 0.000000 1.000000
vn 0.000000 0.000000 1.000000
vn 0.000000 0.000000 1.000000
vn 0.000000 1.000000 0.000000
vn 0.000000 1.000000 0.000000
vn 0.000000 1.000000 0.000000
vn 0.000000 1.000000 0.000000
vn 0.000000 0.000000 -1.000000
vn 0.000000 0.000000 -1.000000
vn 0.000000 0.000000 -1.000000
vn 0.000000 0.000000 -1.000000
vn 0.000000 -1.000000 0.000000
vn 0.000000 -1.000000 0.000000
vn 0.000000 -1.000000 0.000000
vn 0.000000 -1.000000 0.000000
vn 1.000000 0.000000 0.000000
vn 1.000000 0.000000 0.000000
vn 1.000000 0.000000 0.000000
vn 1.000000 0.000000 0.000000
vn -1.000000 0.000000 0.000000
vn -1.000000 0.000000 0.000000
vn -1.000000 0.000000 0.000000
vn -1.000000 0.000000 0.000000
vn 1.000000 0.000000 0.000000
vn 1.000000 0.000000 0.000000
vn 1.000000 0.000000 0.000000
vn 1.000000 0.000000 0.000000
vn 0.000000 1.000000 0.000000
vn 0.000000 1.000000 0.000000
vn 0.000000 1.000000 0.000000
vn 0.000000 1.000000 0.000000
vn -1.000000 0.000000 0.000000
vn -1.000000 0.000000 0.000000
vn -1.000000 0.000000 0.000000
vn -1.000000 0.000000 0.000000
vn 0.000000 -1.000000 0.000000
vn 0.000000 -1.000000 0.000000
vn 0.000000 -1.000000 0.000000
vn 0.000000 -1.000000 0.000000
vn 0.000000 0.000000 -1.000000
vn 0.000000 0.000000 -1.000000
vn 0.000000 0.000000 -1.000000
vn 0.000000 0.000000 -1.000000
vn 0.000000 0.000000 1.000000
vn 0.000000 0.000000 1.000000
vn 0.000000 0.000000 1.000000
vn 0.000000 0.000000 1.000000
vn 1.000000 0.000000 0.000000
vn 1.000000 0.000000 0.000000
vn 1.000000 0.000000 0.000000
vn 1.000000 0.000000 0.000000
vn 0.000000 1.000000 0.000000
vn 0.000000 1.000000 0.000000
vn 0.000000 1.000000 0.000000
vn 0.000000 1.000000 0.000000
vn -1.000000 0.000000 0.000000
vn -1.000000 0.000000 0.000000
vn -1.000000 0.000000 0.000000
vn -1.000000 0.000000 0.000000
vn 0.000000 -1.000000 0.000000
vn 0.000000 -1.000000 0.000000
vn 0.000000 -1.000000 0.000000
vn 0.000000 -1.000000 0.000000
vn 0.000000 0.000000 -1.000000
vn 0.000000 0.000000 -1.000000
vn 0.000000 0.000000 -1.000000
vn 0.000000 0.000000 -1.000000
vn 0.000000 0.000000 1.000000
vn 0.000000 0.000000 1.000000
vn 0.000000 0.000000 1.000000
vn 0.000000 0.000000 1.000000
vn 0.000000 1.000000 0.000000
vn 0.000000 1.000000 0.000000
vn 0.000000 1.000000 0.000000
vn 0.000000 1.000000 0.000000
vn 0.000000 1.000000 0.000000
vn 0.000000 1.000000 0.000000
vn 0.000000 1.000000 0.000000
vn 0.000000 1.000000 0.000000
vn 0.000000 1.000000 0.000000
vn 0.000000 1.000000 0.000000
vn 0.000000 1.000000 0.000000
vn 0.000000 1.000000 0.000000
vn 0.000000 1.000000 0.000000
vn 0.000000 1.000000 0.000000
vn 0.000000 1.000000 0.000000
vn 0.000000 1.000000 0.000000
vn 0.000000 0.000000 1.000000
vn 0.000000 0.000000 1.000000
vn 0.000000 0.000000 1.000000
vn 0.000000 0.000000 1.000000
vn -1.000000 0.000000 0.000000
vn -1.000000 0.000000 0.000000
vn -1.000000 0.000000 0.000000
vn -1.000000 0.000000 0.000000
vn 0.000000 -1.000000 0.000000
vn 0.000000 -1.000000 0.000000
vn 0.000000 -1.000000 0.000000
vn 0.000000 -1.000000 0.000000
vn 1.000000 0.000000 0.000000
vn 1.000000 0.000000 0.000000
vn 1.000000 0.000000 0.000000
vn 1.000000 0.000000 0.000000
vn 0.000000 1.000000 0.000000
vn 0.000000 1.000000 0.000000
vn 0.000000 1.000000 0.000000
vn 0.000000 1.000000 0.000000
vn 0.000000 1.000000 0.000000
vn 0.000000 1.000000 0.000000
vn 0.000000 1.000000 0.000000
vn 0.000000 1.000000 0.000000
vn 0.000000 0.000000 -1.000000
vn 0.000000 0.000000 -1.000000
vn 0.000000 0.000000 -1.000000
vn 0.000000 0.000000 -1.000000
vn 0.000000 0.000000 -1.000000
vn 0.000000 0.000000 -1.000000
vn 0.000000 0.000000 -1.000000
vn 0.000000 0.000000 -1.000000
vn 1.000000 0.000000 0.000000
vn 1.000000 0.000000 0.000000
vn 1.000000 0.000000 0.000000
vn 1.000000 0.000000 0.000000
vn 0.000000 1.000000 0.000000
vn 0.000000 1.000000 0.000000
vn 0.000000 1.000000 0.000000
vn 0.000000 1.000000 0.000000
vn -1.000000 0.000000 0.000000
vn -1.000000 0.000000 0.000000
vn -1.000000 0.000000 0.000000
vn -1.000000 0.000000 0.000000
vn 0.000000 0.000000 1.000000
vn 0.000000 0.000000 1.000000
vn 0.000000 0.000000 1.000000
vn 0.000000 0.000000 1.000000
vn 0.000000 0.000000 1.000000
vn 0.000000 0.000000 1.000000
vn 0.000000 0.000000 1.000000
vn 0.000000 0.000000 1.000000
vn 0.000000 1.000000 0.000000
vn 0.000000 1.000000 0.000000
vn 0.000000 1.000000 0.000000
vn 0.000000 1.000000 0.000000
vn 0.000000 0.000000 -1.000000
vn 0.000000 0.000000 -1.000000
vn 0.000000 0.000000 -1.000000
vn 0.000000 0.000000 -1.000000
vn 0.000000 -1.000000 0.000000
vn 0.000000 -1.000000 0.000000
vn 0.000000 -1.000000 0.000000
vn 0.000000 -1.000000 0.000000
vn 1.000000 0.000000 0.000000
vn 1.000000 0.000000 0.000000
vn 1.000000 0.000000 0.000000
vn 1.000000 0.000000 0.000000
vn -1.000000 0.000000 0.000000
vn -1.000000 0.000000 0.000000
vn -1.000000 0.000000 0.000000
vn -1.000000 0.000000 0.000000
vn 1.000000 0.000000 0.000000
vn 1.000000 0.000000 0.000000
vn 1.000000 0.000000 0.000000
vn 1.000000 0.000000 0.000000
vn 0.000000 1.000000 0.000000
vn 0.000000 1.000000 0.000000
vn 0.000000 1.000000 0.000000
vn 0.000000 1.000000 0.000000
vn -1.000000 0.000000 0.000000
vn -1.000000 0.000000 0.000000
vn -1.000000 0.000000 0.000000
vn -1.000000 0.000000 0.000000
vn 0.000000 -1.000000 0.000000
vn 0.000000 -1.000000 0.000000
vn 0.000000 -1.000000 0.000000
vn 0.000000 -1.000000 0.000000
vn 0.000000 0.000000 -1.000000
vn 0.000000 0.000000 -1.000000
vn 0.000000 0.000000 -1.000000
vn 0.000000 0.000000 -1.000000
vn 0.000000 0.000000 1.000000
vn 0.000000 0.000000 1.000000
vn 0.000000 0.000000 1.000000
vn 0.000000 0.000000 1.000000
vn 1.000000 0.000000 0.000000
vn 1.000000 0.000000 0.000000
vn 1.000000 0.000000 0.000000
vn 1.000000 0.000000 0.000000
vn 0.000000 1.000000 0.000000
vn 0.000000 1.000000 0.000000
vn 0.000000 1.000000 0.000000
vn 0.000000 1.000000 0.000000
vn -1.000000 0.000000 0.000000
vn -1.000000 0.000000 0.000000
vn -1.000000 0.000000 0.000000
vn -1.000000 0.000000 0.000000
vn 0.000000 -1.000000 0.000000
vn 0.000000 -1.000000 0.000000
vn 0.000000 -1.000000 0.000000
vn 0.000000 -1.000000 0.000000
vn 0.000000 0.000000 -1.000000
vn 0.000000 0.000000 -1.000000
vn 0.000000 0.000000 -1.000000
vn 0.000000 0.000000 -1.000000
vn 0.000000 0.000000 1.000000
vn 0.000000 0.000000 1.000000
vn 0.000000 0.000000 1.000000
vn 0.000000 0.000000 1.000000
vn 1.000000 0.000000 0.000000
vn 1.000000 0.000000 0.000000
vn 1.000000 0.000000 0.000000
vn 1.000000 0.000000 0.000000
vn 0.000000 1.000000 0.000000
vn 0.000000 1.000000 0.000000
vn 0.000000 1.000000 0.000000
vn 0.000000 1.000000 0.000000
vn -1.000000 0.000000 0.000000
vn -1.000000 0.000000 0.000000
vn -1.000000 0.000000 0.000000
vn -1.000000 0.000000 0.000000
vn 0.000000 -1.000000 0.000000
vn 0.000000 -1.000000 0.000000
vn 0.000000 -1.000000 0.000000
vn 0.000000 -1.000000 0.000000
vn 0.000000 0.000000 -1.000000
vn 0.000000 0.000000 -1.000000
vn 0.000000 0.000000 -1.000000
vn 0.000000 0.000000 -1.000000
vn 0.000000 0.000000 1.000000
vn 0.000000 0.000000 1.000000
vn 0.000000 0.000000 1.000000
vn 0.000000 0.000000 1.000000
vn 0.000000 1.000000 0.000000
vn 0.000000 1.000000 0.000000
vn 0.000000 1.000000 0.000000
vn 0.000000 1.000000 0.000000
vn 0.000000 1.000000 0.000000
vn 0.000000 1.000000 0.000000
vn 0.000000 1.000000 0.000000
vn 0.000000 1.000000 0.000000
vn 0.000000 1.000000 0.000000
vn 0.000000 1.000000 0.000000
vn 0.000000 1.000000 0.000000
vn 0.000000 1.000000 0.000000
vn 0.000000 1.000000 0.000000
vn 0.000000 1.000000 0.000000
vn 0.000000 1.000000 0.000000
vn 0.000000 1.000000 0.000000
vn 0.000000 1.000000 0.000000
vn 0.000000 1.000000 0.000000
vn 0.000000 1.000000 0.000000
vn 0.000000 1.000000 0.000000
g room1_pCube17
f 1/1/1 2/2/2 3/3/3 4/4/4
f 5/5/5 1/1/6 4/4/7 6/6/8
f 5/7/9 7/8/10 2/9/11 1/10/12
f 2/2/13 7/11/14 8/12/15 3/3/16
f 3/3/17 8/13/18 6/14/19 9/15/20 10/16/21 11/17/22
f 4/4/23 3/3/24 11/17/25 12/18/26 9/15/27 6/14/28
f 6/14/29 8/13/30 7/8/31 5/7/32
f 12/19/33 11/20/34 13/21/35 14/22/36
f 9/23/37 12/19/38 14/22/39 15/24/40
f 15/25/41 14/26/42 13/27/43 16/28/44
f 11/20/45 10/29/46 16/30/47 13/21/48
f 10/31/49 9/32/50 15/25/51 16/28/52
f 17/33/53 18/34/54 20/35/55 19/36/56
f 19/36/57 20/35/58 22/37/59 21/38/60
f 21/38/61 22/37/62 24/39/63 23/40/64
f 23/40/65 24/39/66 18/41/67 17/42/68
f 18/34/69 24/43/70 22/44/71 20/35/72
f 23/45/73 17/33/74 19/36/75 21/46/76
f 25/47/77 26/48/78 28/49/79 27/50/80
f 27/50/81 28/49/82 30/51/83 29/52/84
f 29/52/85 30/51/86 32/53/87 31/54/88
f 31/54/89 32/53/90 26/55/91 25/56/92
f 26/48/93 32/57/94 30/58/95 28/49/96
f 31/59/97 25/47/98 27/50/99 29/60/100
f 33/61/101 34/62/102 36/63/103 35/64/104
f 35/64/105 36/63/106 38/65/107 37/66/108
f 37/66/109 38/65/110 40/67/111 39/68/112
f 39/68/113 40/67/114 34/69/115 33/70/116
f 34/62/117 40/71/118 38/72/119 36/63/120
f 39/73/121 33/61/122 35/64/123 37/74/124
f 41/75/125 42/76/126 45/77/127 44/78/128
f 42/76/129 43/79/130 46/80/131 45/77/132
f 44/78/133 45/77/134 48/81/135 47/82/136
f 45/77/137 46/80/138 49/83/139 48/81/140
f 50/84/141 51/85/142 52/86/143 53/87/144
f 54/88/145 50/84/146 53/87/147 55/89/148
f 54/90/149 56/91/150 51/92/151 50/93/152
f 51/85/153 56/94/154 57/95/155 52/86/156
f 59/99/157 57/96/158 55/97/159 58/98/160
f 53/87/161 52/86/162 60/100/163 61/101/164
f 55/97/165 57/96/166 56/91/167 54/90/168
f 61/102/169 60/103/170 62/104/171 63/105/172
f 58/106/173 61/102/174 63/105/175 64/107/176
f 64/108/177 63/109/178 62/110/179 65/111/180
f 60/103/181 59/112/182 65/113/183 62/104/184
f 59/114/185 58/115/186 64/108/187 65/111/188
f 66/116/189 67/117/190 69/118/191 68/119/192
f 68/119/193 69/118/194 71/120/195 70/121/196
f 70/121/197 71/120/198 73/122/199 72/123/200
f 72/123/201 73/122/202 67/124/203 66/125/204
f 67/117/205 73/126/206 71/127/207 69/118/208
f 72/128/209 66/116/210 68/119/211 70/129/212
f 74/130/213 75/131/214 77/132/215 76/133/216
f 76/133/217 77/132/218 79/134/219 78/135/220
f 78/135/221 79/134/222 81/136/223 80/137/224
f 80/137/225 81/136/226 75/138/227 74/139/228
f 75/131/229 81/140/230 79/141/231 77/132/232
f 80/142/233 74/130/234 76/133/235 78/143/236
f 82/144/237 83/145/238 85/146/239 84/147/240
f 84/147/241 85/146/242 87/148/243 86/149/244
f 86/149/245 87/148/246 89/150/247 88/151/248
f 88/151/249 89/150/250 83/152/251 82/153/252
f 83/145/253 89/154/254 87/155/255 85/146/256
f 88/156/257 82/144/258 84/147/259 86/157/260
f 90/158/261 91/159/262 93/160/263 92/161/264
f 92/161/265 93/160/266 95/162/267 94/163/268
f 94/163/269 95/162/270 97/164/271 96/165/272
f 96/165/273 97/164/274 91/166/275 90/167/276
f 91/159/277 97/168/278 95/169/279 93/160/280
f 96/170/281 90/158/282 92/161/283 94/171/284
f 98/172/285 99/173/286 102/174/287 101/175/288
f 99/173/289 100/176/290 103/177/291 102/174/292
f 101/175/293 102/174/294 105/178/295 104/179/296
f 102/174/297 103/177/298 106/180/299 105/178/300
f 53/87/161 61/101/164 58/98/301 55/97/302
f 52/86/303 57/96/158 59/99/157 60/100/304
