# This file uses centimeters as units for non-parametric coordinates.

v 0.000000 0.000000 1.000000
v 1.000000 0.000000 1.000000
v 0.000000 0.100000 1.000000
v 1.000000 0.100000 1.000000
v 0.000000 0.100000 0.000000
v 1.000000 0.100000 0.000000
v 0.000000 0.000000 0.000000
v 1.000000 0.000000 0.000000
v 0.000000 0.200000 1.000000
v 1.000000 0.200000 1.000000
v 0.000000 0.200000 0.100000
v 1.000000 0.200000 0.100000
v 0.000000 0.100000 0.100000
v 1.000000 0.100000 0.100000
v 0.000000 0.300000 1.000000
v 1.000000 0.300000 1.000000
v 0.000000 0.300000 0.200000
v 1.000000 0.300000 0.200000
v 0.000000 0.200000 0.200000
v 1.000000 0.200000 0.200000
v 0.000000 0.400000 1.000000
v 1.000000 0.400000 1.000000
v 0.000000 0.400000 0.300000
v 1.000000 0.400000 0.300000
v 0.000000 0.300000 0.300000
v 1.000000 0.300000 0.300000
v 0.000000 0.500000 1.000000
v 1.000000 0.500000 1.000000
v 0.000000 0.500000 0.400000
v 1.000000 0.500000 0.400000
v 0.000000 0.400000 0.400000
v 1.000000 0.400000 0.400000
v 0.000000 0.600000 1.000000
v 1.000000 0.600000 1.000000
v 0.000000 0.600000 0.500000
v 1.000000 0.600000 0.500000
v 0.000000 0.500000 0.500000
v 1.000000 0.500000 0.500000
v 0.000000 0.700000 1.000000
v 1.000000 0.700000 1.000000
v 0.000000 0.700000 0.600000
v 1.000000 0.700000 0.600000
v 0.000000 0.600000 0.600000
v 1.000000 0.600000 0.600000
v 0.000000 0.800000 1.000000
v 1.000000 0.800000 1.000000
v 0.000000 0.800000 0.700000
v 1.000000 0.800000 0.700000
v 0.000000 0.700000 0.700000
v 1.000000 0.700000 0.700000
v 0.000000 0.900000 1.000000
v 1.000000 0.900000 1.000000
v 0.000000 0.900000 0.800000
v 1.000000 0.900000 0.800000
v 0.000000 0.800000 0.800000
v 1.000000 0.800000 0.800000
v 0.000000 1.000000 1.000000
v 1.000000 1.000000 1.000000
v 0.000000 1.000000 0.900000
v 1.000000 1.000000 0.900000
v 0.000000 0.900000 0.900000
v 1.000000 0.900000 0.900000
vt 0.202692 0.430132
vt 0.202692 0.317281
vt 0.213977 0.317281
vt 0.213977 0.430132
vt 0.640163 0.462966
vt 0.640163 0.309990
vt 0.655461 0.309990
vt 0.655461 0.462966
vt 0.390758 0.192543
vt 0.390758 0.079691
vt 0.402043 0.079691
vt 0.402043 0.192543
vt 0.807655 0.329791
vt 0.807655 0.216939
vt 0.818940 0.216939
vt 0.818940 0.329791
vt 0.293680 0.430132
vt 0.293680 0.317281
vt 0.304965 0.317281
vt 0.304965 0.430132
vt 0.829728 0.462966
vt 0.829728 0.309990
vt 0.845026 0.309990
vt 0.845026 0.462966
vt 0.367148 0.190350
vt 0.367148 0.088784
vt 0.378433 0.088784
vt 0.378433 0.190350
vt 0.783783 0.306211
vt 0.783783 0.204644
vt 0.795068 0.204644
vt 0.795068 0.306211
vt 0.329276 0.427222
vt 0.329276 0.314370
vt 0.340561 0.314370
vt 0.340561 0.427222
vt 0.718080 0.464166
vt 0.718080 0.311189
vt 0.733378 0.311189
vt 0.733378 0.464166
vt 0.338826 0.179065
vt 0.338826 0.088784
vt 0.350111 0.088784
vt 0.350111 0.179065
vt 0.755461 0.294925
vt 0.755461 0.204644
vt 0.766746 0.204644
vt 0.766746 0.294925
vt 0.314259 0.427222
vt 0.314259 0.314371
vt 0.325544 0.314371
vt 0.325544 0.427222
vt 0.607261 0.464166
vt 0.607261 0.311189
vt 0.622558 0.311189
vt 0.622558 0.464166
vt 0.310503 0.167780
vt 0.310503 0.088784
vt 0.321789 0.088784
vt 0.321789 0.167780
vt 0.727139 0.283640
vt 0.727139 0.204644
vt 0.738424 0.204644
vt 0.738424 0.283640
vt 0.260053 0.431441
vt 0.260053 0.318590
vt 0.271338 0.318590
vt 0.271338 0.431441
vt 0.666388 0.461858
vt 0.666388 0.308881
vt 0.681685 0.308881
vt 0.681685 0.461858
vt 0.282181 0.156495
vt 0.282181 0.088784
vt 0.293466 0.088784
vt 0.293466 0.156495
vt 0.698817 0.272355
vt 0.698817 0.204644
vt 0.710102 0.204644
vt 0.710102 0.272355
vt 0.232185 0.431441
vt 0.232185 0.318590
vt 0.243470 0.318590
vt 0.243470 0.431441
vt 0.781401 0.461858
vt 0.781401 0.308881
vt 0.796698 0.308881
vt 0.796698 0.461858
vt 0.253859 0.145209
vt 0.253859 0.088784
vt 0.265144 0.088784
vt 0.265144 0.145209
vt 0.670494 0.261070
vt 0.670494 0.204644
vt 0.681780 0.204644
vt 0.681780 0.261070
vt 0.380184 0.431441
vt 0.380184 0.318590
vt 0.391469 0.318590
vt 0.391469 0.431441
vt 0.856080 0.463057
vt 0.856080 0.310081
vt 0.871378 0.310081
vt 0.871378 0.463057
vt 0.225537 0.133924
vt 0.225537 0.088784
vt 0.236822 0.088784
vt 0.236822 0.133924
vt 0.642172 0.249785
vt 0.642172 0.204644
vt 0.653457 0.204644
vt 0.653457 0.249785
vt 0.371540 0.428531
vt 0.371540 0.315679
vt 0.382826 0.315679
vt 0.382826 0.428531
vt 0.801007 0.463057
vt 0.801007 0.310081
vt 0.816305 0.310081
vt 0.816305 0.463057
vt 0.211372 0.169651
vt 0.211372 0.135795
vt 0.222657 0.135795
vt 0.222657 0.169651
vt 0.656877 0.285511
vt 0.656877 0.251656
vt 0.668162 0.251656
vt 0.668162 0.285511
vt 0.269756 0.428531
vt 0.269756 0.315679
vt 0.281041 0.315679
vt 0.281041 0.428531
vt 0.751979 0.463057
vt 0.751979 0.310081
vt 0.767277 0.310081
vt 0.767277 0.463057
vt 0.240697 0.169651
vt 0.240697 0.147080
vt 0.251983 0.147080
vt 0.251983 0.169651
vt 0.686111 0.296796
vt 0.686111 0.274226
vt 0.697396 0.274226
vt 0.697396 0.296796
vt 0.390160 0.428531
vt 0.390160 0.315679
vt 0.401445 0.315679
vt 0.401445 0.428531
vt 0.222490 0.410642
vt 0.222490 0.337916
vt 0.229762 0.337916
vt 0.229762 0.410642
vt 0.687954 0.463057
vt 0.687954 0.310081
vt 0.703252 0.310081
vt 0.703252 0.463057
vt 0.269932 0.158366
vt 0.281217 0.158366
vt 0.281217 0.169651
vt 0.269932 0.169651
vt 0.715345 0.285511
vt 0.726630 0.285511
vt 0.726630 0.296796
vt 0.715345 0.296796
vt 0.169724 0.315080
vt 0.275280 0.315080
vt 0.275280 0.420636
vt 0.169724 0.420636
vt 0.169724 0.315080
vt 0.275280 0.315080
vt 0.275280 0.420636
vt 0.169724 0.420636
vt 0.169724 0.315080
vt 0.275280 0.315080
vt 0.275280 0.420636
vt 0.169724 0.420636
vt 0.169724 0.315080
vt 0.275280 0.315080
vt 0.275280 0.420636
vt 0.169724 0.420636
vt 0.169724 0.315080
vt 0.275280 0.315080
vt 0.275280 0.420636
vt 0.169724 0.420636
vt 0.169724 0.315080
vt 0.275280 0.315080
vt 0.275280 0.420636
vt 0.169724 0.420636
vt 0.169724 0.315080
vt 0.275280 0.315080
vt 0.275280 0.420636
vt 0.169724 0.420636
vt 0.169724 0.315080
vt 0.275280 0.315080
vt 0.275280 0.420636
vt 0.169724 0.420636
vt 0.169724 0.315080
vt 0.275280 0.315080
vt 0.275280 0.420636
vt 0.169724 0.420636
vn 0.000000 0.000000 1.000000
vn 0.000000 0.000000 1.000000
vn 0.000000 0.000000 1.000000
vn 0.000000 0.000000 1.000000
vn 0.000000 0.000000 -1.000000
vn 0.000000 0.000000 -1.000000
vn 0.000000 0.000000 -1.000000
vn 0.000000 0.000000 -1.000000
vn 1.000000 0.000000 0.000000
vn 1.000000 0.000000 0.000000
vn 1.000000 0.000000 0.000000
vn 1.000000 0.000000 0.000000
vn -1.000000 0.000000 0.000000
vn -1.000000 0.000000 0.000000
vn -1.000000 0.000000 0.000000
vn -1.000000 0.000000 0.000000
vn 0.000000 0.000000 1.000000
vn 0.000000 0.000000 1.000000
vn 0.000000 0.000000 1.000000
vn 0.000000 0.000000 1.000000
vn 0.000000 0.000000 -1.000000
vn 0.000000 0.000000 -1.000000
vn 0.000000 0.000000 -1.000000
vn 0.000000 0.000000 -1.000000
vn 1.000000 0.000000 0.000000
vn 1.000000 0.000000 0.000000
vn 1.000000 0.000000 0.000000
vn 1.000000 0.000000 0.000000
vn -1.000000 0.000000 0.000000
vn -1.000000 0.000000 0.000000
vn -1.000000 0.000000 0.000000
vn -1.000000 0.000000 0.000000
vn 0.000000 0.000000 1.000000
vn 0.000000 0.000000 1.000000
vn 0.000000 0.000000 1.000000
vn 0.000000 0.000000 1.000000
vn 0.000000 0.000000 -1.000000
vn 0.000000 0.000000 -1.000000
vn 0.000000 0.000000 -1.000000
vn 0.000000 0.000000 -1.000000
vn 1.000000 0.000000 0.000000
vn 1.000000 0.000000 0.000000
vn 1.000000 0.000000 0.000000
vn 1.000000 0.000000 0.000000
vn -1.000000 0.000000 0.000000
vn -1.000000 0.000000 0.000000
vn -1.000000 0.000000 0.000000
vn -1.000000 0.000000 0.000000
vn 0.000000 0.000000 1.000000
vn 0.000000 0.000000 1.000000
vn 0.000000 0.000000 1.000000
vn 0.000000 0.000000 1.000000
vn 0.000000 0.000000 -1.000000
vn 0.000000 0.000000 -1.000000
vn 0.000000 0.000000 -1.000000
vn 0.000000 0.000000 -1.000000
vn 1.000000 0.000000 0.000000
vn 1.000000 0.000000 0.000000
vn 1.000000 0.000000 0.000000
vn 1.000000 0.000000 0.000000
vn -1.000000 0.000000 0.000000
vn -1.000000 0.000000 0.000000
vn -1.000000 0.000000 0.000000
vn -1.000000 0.000000 0.000000
vn 0.000000 0.000000 1.000000
vn 0.000000 0.000000 1.000000
vn 0.000000 0.000000 1.000000
vn 0.000000 0.000000 1.000000
vn 0.000000 0.000000 -1.000000
vn 0.000000 0.000000 -1.000000
vn 0.000000 0.000000 -1.000000
vn 0.000000 0.000000 -1.000000
vn 1.000000 0.000000 0.000000
vn 1.000000 0.000000 0.000000
vn 1.000000 0.000000 0.000000
vn 1.000000 0.000000 0.000000
vn -1.000000 0.000000 0.000000
vn -1.000000 0.000000 0.000000
vn -1.000000 0.000000 0.000000
vn -1.000000 0.000000 0.000000
vn 0.000000 0.000000 1.000000
vn 0.000000 0.000000 1.000000
vn 0.000000 0.000000 1.000000
vn 0.000000 0.000000 1.000000
vn 0.000000 0.000000 -1.000000
vn 0.000000 0.000000 -1.000000
vn 0.000000 0.000000 -1.000000
vn 0.000000 0.000000 -1.000000
vn 1.000000 0.000000 0.000000
vn 1.000000 0.000000 0.000000
vn 1.000000 0.000000 0.000000
vn 1.000000 0.000000 0.000000
vn -1.000000 0.000000 0.000000
vn -1.000000 0.000000 0.000000
vn -1.000000 0.000000 0.000000
vn -1.000000 0.000000 0.000000
vn 0.000000 0.000000 1.000000
vn 0.000000 0.000000 1.000000
vn 0.000000 0.000000 1.000000
vn 0.000000 0.000000 1.000000
vn 0.000000 0.000000 -1.000000
vn 0.000000 0.000000 -1.000000
vn 0.000000 0.000000 -1.000000
vn 0.000000 0.000000 -1.000000
vn 1.000000 0.000000 0.000000
vn 1.000000 0.000000 0.000000
vn 1.000000 0.000000 0.000000
vn 1.000000 0.000000 0.000000
vn -1.000000 0.000000 0.000000
vn -1.000000 0.000000 0.000000
vn -1.000000 0.000000 0.000000
vn -1.000000 0.000000 0.000000
vn 0.000000 0.000000 1.000000
vn 0.000000 0.000000 1.000000
vn 0.000000 0.000000 1.000000
vn 0.000000 0.000000 1.000000
vn 0.000000 0.000000 -1.000000
vn 0.000000 0.000000 -1.000000
vn 0.000000 0.000000 -1.000000
vn 0.000000 0.000000 -1.000000
vn 1.000000 0.000000 0.000000
vn 1.000000 0.000000 0.000000
vn 1.000000 0.000000 0.000000
vn 1.000000 0.000000 0.000000
vn -1.000000 0.000000 0.000000
vn -1.000000 0.000000 0.000000
vn -1.000000 0.000000 0.000000
vn -1.000000 0.000000 0.000000
vn 0.000000 0.000000 1.000000
vn 0.000000 0.000000 1.000000
vn 0.000000 0.000000 1.000000
vn 0.000000 0.000000 1.000000
vn 0.000000 0.000000 -1.000000
vn 0.000000 0.000000 -1.000000
vn 0.000000 0.000000 -1.000000
vn 0.000000 0.000000 -1.000000
vn 1.000000 0.000000 0.000000
vn 1.000000 0.000000 0.000000
vn 1.000000 0.000000 0.000000
vn 1.000000 0.000000 0.000000
vn -1.000000 0.000000 0.000000
vn -1.000000 0.000000 0.000000
vn -1.000000 0.000000 0.000000
vn -1.000000 0.000000 0.000000
vn 0.000000 0.000000 1.000000
vn 0.000000 0.000000 1.000000
vn 0.000000 0.000000 1.000000
vn 0.000000 0.000000 1.000000
vn 0.000000 1.000000 0.000000
vn 0.000000 1.000000 0.000000
vn 0.000000 1.000000 0.000000
vn 0.000000 1.000000 0.000000
vn 0.000000 0.000000 -1.000000
vn 0.000000 0.000000 -1.000000
vn 0.000000 0.000000 -1.000000
vn 0.000000 0.000000 -1.000000
vn 1.000000 0.000000 0.000000
vn 1.000000 0.000000 0.000000
vn 1.000000 0.000000 0.000000
vn 1.000000 0.000000 0.000000
vn -1.000000 0.000000 0.000000
vn -1.000000 0.000000 0.000000
vn -1.000000 0.000000 0.000000
vn -1.000000 0.000000 0.000000
vn 0.000000 1.000000 0.000000
vn 0.000000 1.000000 0.000000
vn 0.000000 1.000000 0.000000
vn 0.000000 1.000000 0.000000
vn 0.000000 1.000000 0.000000
vn 0.000000 1.000000 0.000000
vn 0.000000 1.000000 0.000000
vn 0.000000 1.000000 0.000000
vn 0.000000 1.000000 0.000000
vn 0.000000 1.000000 0.000000
vn 0.000000 1.000000 0.000000
vn 0.000000 1.000000 0.000000
vn 0.000000 1.000000 0.000000
vn 0.000000 1.000000 0.000000
vn 0.000000 1.000000 0.000000
vn 0.000000 1.000000 0.000000
vn 0.000000 1.000000 0.000000
vn 0.000000 1.000000 0.000000
vn 0.000000 1.000000 0.000000
vn 0.000000 1.000000 0.000000
vn 0.000000 1.000000 0.000000
vn 0.000000 1.000000 0.000000
vn 0.000000 1.000000 0.000000
vn 0.000000 1.000000 0.000000
vn 0.000000 1.000000 0.000000
vn 0.000000 1.000000 0.000000
vn 0.000000 1.000000 0.000000
vn 0.000000 1.000000 0.000000
vn 0.000000 1.000000 0.000000
vn 0.000000 1.000000 0.000000
vn 0.000000 1.000000 0.000000
vn 0.000000 1.000000 0.000000
vn 0.000000 1.000000 0.000000
vn 0.000000 1.000000 0.000000
vn 0.000000 1.000000 0.000000
vn 0.000000 1.000000 0.000000
f 1/1/1 2/2/2 4/3/3 3/4/4
f 5/5/5 6/6/6 8/7/7 7/8/8
f 2/9/9 8/10/10 6/11/11 4/12/12
f 7/13/13 1/14/14 3/15/15 5/16/16
f 3/17/17 4/18/18 10/19/19 9/20/20
f 11/21/21 12/22/22 14/23/23 13/24/24
f 4/25/25 14/26/26 12/27/27 10/28/28
f 13/29/29 3/30/30 9/31/31 11/32/32
f 9/33/33 10/34/34 16/35/35 15/36/36
f 17/37/37 18/38/38 20/39/39 19/40/40
f 10/41/41 20/42/42 18/43/43 16/44/44
f 19/45/45 9/46/46 15/47/47 17/48/48
f 15/49/49 16/50/50 22/51/51 21/52/52
f 23/53/53 24/54/54 26/55/55 25/56/56
f 16/57/57 26/58/58 24/59/59 22/60/60
f 25/61/61 15/62/62 21/63/63 23/64/64
f 21/65/65 22/66/66 28/67/67 27/68/68
f 29/69/69 30/70/70 32/71/71 31/72/72
f 22/73/73 32/74/74 30/75/75 28/76/76
f 31/77/77 21/78/78 27/79/79 29/80/80
f 27/81/81 28/82/82 34/83/83 33/84/84
f 35/85/85 36/86/86 38/87/87 37/88/88
f 28/89/89 38/90/90 36/91/91 34/92/92
f 37/93/93 27/94/94 33/95/95 35/96/96
f 33/97/97 34/98/98 40/99/99 39/100/100
f 41/101/101 42/102/102 44/103/103 43/104/104
f 34/105/105 44/106/106 42/107/107 40/108/108
f 43/109/109 33/110/110 39/111/111 41/112/112
f 39/113/113 40/114/114 46/115/115 45/116/116
f 47/117/117 48/118/118 50/119/119 49/120/120
f 40/121/121 50/122/122 48/123/123 46/124/124
f 49/125/125 39/126/126 45/127/127 47/128/128
f 45/129/129 46/130/130 52/131/131 51/132/132
f 53/133/133 54/134/134 56/135/135 55/136/136
f 46/137/137 56/138/138 54/139/139 52/140/140
f 55/141/141 45/142/142 51/143/143 53/144/144
f 51/145/145 52/146/146 58/147/147 57/148/148
f 57/149/149 58/150/150 60/151/151 59/152/152
f 59/153/153 60/154/154 62/155/155 61/156/156
f 52/157/157 62/158/158 60/159/159 58/160/160
f 61/161/161 51/162/162 57/163/163 59/164/164
f 13/165/165 14/166/166 6/167/167 5/168/168
f 19/169/169 20/170/170 12/171/171 11/172/172
f 25/173/173 26/174/174 18/175/175 17/176/176
f 31/177/177 32/178/178 24/179/179 23/180/180
f 37/181/181 38/182/182 30/183/183 29/184/184
f 43/185/185 44/186/186 36/187/187 35/188/188
f 49/189/189 50/190/190 42/191/191 41/192/192
f 55/193/193 56/194/194 48/195/195 47/196/196
f 61/197/197 62/198/198 54/199/199 53/200/200
