# This file uses centimeters as units for non-parametric coordinates.

v 0.000000 1.001747 0.000000
v 1.000000 1.001747 0.000000
v 0.000000 0.925791 0.000000
v 1.000000 0.925791 0.000000
v 0.000000 0.925791 1.000000
v 1.000000 0.925791 1.000000
v 0.000000 1.001747 1.000000
v 1.000000 1.001747 1.000000
v 0.029178 0.902568 0.029178
v 0.970822 0.902568 0.029178
v 0.970822 0.902568 0.970822
v 0.029178 0.902568 0.970822
v 0.041307 0.882826 0.041307
v 0.958693 0.882826 0.041307
v 0.958693 0.882826 0.958693
v 0.041307 0.882826 0.958693
v 0.041307 0.868549 0.041307
v 0.958693 0.868549 0.041307
v 0.958693 0.868549 0.958693
v 0.041307 0.868549 0.958693
v 0.095941 0.093190 0.904059
v 0.904059 0.093190 0.904059
v 0.095941 0.878133 0.904059
v 0.904059 0.878133 0.904059
v 0.095941 0.878133 0.095941
v 0.904059 0.878133 0.095941
v 0.095941 0.093190 0.095941
v 0.904059 0.093190 0.095941
v 0.000000 -0.000524 1.000000
v 1.000000 -0.000524 1.000000
v 0.000000 0.075432 1.000000
v 1.000000 0.075432 1.000000
v 0.000000 0.075432 0.000000
v 1.000000 0.075432 0.000000
v 0.000000 -0.000524 0.000000
v 1.000000 -0.000524 0.000000
v 0.029178 0.098655 0.970822
v 0.970822 0.098655 0.970822
v 0.970822 0.098655 0.029178
v 0.029178 0.098655 0.029178
v 0.041307 0.118397 0.958693
v 0.958693 0.118397 0.958693
v 0.958693 0.118397 0.041307
v 0.041307 0.118397 0.041307
v 0.041307 0.132674 0.958693
v 0.958693 0.132674 0.958693
v 0.958693 0.132674 0.041307
v 0.041307 0.132674 0.041307
vt -0.655893 0.643700
vt -0.655893 0.922377
vt -0.677060 0.922377
vt -0.677060 0.643700
vt -0.683532 0.914246
vt -0.683532 0.651832
vt -0.689034 0.910866
vt -0.689034 0.655212
vt -0.693012 0.910866
vt -0.693012 0.655212
vt -0.918392 0.643532
vt -0.918392 0.922209
vt -0.939559 0.922209
vt -0.939559 0.643532
vt -0.946030 0.914078
vt -0.946030 0.651663
vt -0.951532 0.910698
vt -0.951532 0.655044
vt -0.955511 0.910698
vt -0.955511 0.655044
vt -0.354963 0.394591
vt -0.354963 0.169387
vt -0.136218 0.169387
vt -0.136218 0.394591
vt -0.338102 0.882493
vt -0.338102 0.657290
vt -0.119357 0.657290
vt -0.119357 0.882493
vt -0.616371 0.922377
vt -0.616371 0.643700
vt -0.595204 0.643700
vt -0.595204 0.922377
vt -0.588733 0.651832
vt -0.588733 0.914246
vt -0.583231 0.655212
vt -0.583231 0.910866
vt -0.579252 0.655212
vt -0.579252 0.910866
vt -0.847151 0.928151
vt -0.847151 0.649474
vt -0.825984 0.649474
vt -0.825984 0.928151
vt -0.819512 0.657605
vt -0.819512 0.920020
vt -0.814011 0.660985
vt -0.814011 0.916640
vt -0.810032 0.660985
vt -0.810032 0.916640
vt -0.913524 0.407513
vt -0.913524 0.128836
vt -0.634847 0.128836
vt -0.634847 0.407513
vt -0.837287 0.146550
vt -0.581633 0.146550
vt -0.581633 0.402204
vt -0.837287 0.402204
vt -0.861504 0.407513
vt -0.861504 0.128836
vt -0.582827 0.128836
vt -0.582827 0.407513
vt -0.547612 0.141626
vt -0.547612 0.397280
vt -0.803266 0.397280
vt -0.803266 0.141626
vt -0.650426 0.909111
vt -0.650426 0.630434
vt -0.629259 0.630434
vt -0.629259 0.909111
vt -0.622787 0.638565
vt -0.622787 0.900980
vt -0.617285 0.641945
vt -0.617285 0.897600
vt -0.613306 0.641945
vt -0.613306 0.897600
vt -0.915764 0.922209
vt -0.915764 0.643532
vt -0.894597 0.643532
vt -0.894597 0.922209
vt -0.922236 0.914078
vt -0.922236 0.651663
vt -0.927738 0.910698
vt -0.927738 0.655044
vt -0.931716 0.910698
vt -0.931716 0.655044
vt -0.335447 0.885076
vt -0.335447 0.659873
vt -0.116701 0.659873
vt -0.116701 0.885076
vt -0.348069 0.368587
vt -0.348069 0.143384
vt -0.129324 0.143384
vt -0.129324 0.368587
vt -0.867411 0.928151
vt -0.867411 0.649474
vt -0.846243 0.649474
vt -0.846243 0.928151
vt -0.839772 0.657605
vt -0.839772 0.920020
vt -0.834270 0.660985
vt -0.834270 0.916640
vt -0.830291 0.660985
vt -0.830291 0.916640
vt -0.559238 0.909111
vt -0.559238 0.630434
vt -0.538071 0.630434
vt -0.538071 0.909111
vt -0.565710 0.900980
vt -0.565710 0.638565
vt -0.571212 0.897600
vt -0.571212 0.641945
vt -0.575190 0.897600
vt -0.575190 0.641945
vn 0.000000 0.000000 -1.000000
vn 0.000000 0.000000 -1.000000
vn 0.000000 0.000000 -1.000000
vn 0.000000 0.000000 -1.000000
vn 0.000000 0.000000 1.000000
vn 0.000000 0.000000 1.000000
vn 0.000000 0.000000 1.000000
vn 0.000000 0.000000 1.000000
vn 0.000000 1.000000 0.000000
vn 0.000000 1.000000 0.000000
vn 0.000000 1.000000 0.000000
vn 0.000000 1.000000 0.000000
vn 1.000000 0.000000 0.000000
vn 1.000000 0.000000 0.000000
vn 1.000000 0.000000 0.000000
vn 1.000000 0.000000 0.000000
vn -1.000000 0.000000 0.000000
vn -1.000000 0.000000 0.000000
vn -1.000000 0.000000 0.000000
vn -1.000000 0.000000 0.000000
vn 0.000000 -0.782422 -0.622748
vn 0.000000 -0.782422 -0.622748
vn 0.000000 -0.782422 -0.622748
vn 0.000000 -0.782422 -0.622748
vn 0.622748 -0.782422 0.000000
vn 0.622748 -0.782422 0.000000
vn 0.622748 -0.782422 0.000000
vn 0.622748 -0.782422 0.000000
vn 0.000000 -0.782422 0.622748
vn 0.000000 -0.782422 0.622748
vn 0.000000 -0.782422 0.622748
vn 0.000000 -0.782422 0.622748
vn -0.622748 -0.782423 0.000000
vn -0.622748 -0.782423 0.000000
vn -0.622748 -0.782423 0.000000
vn -0.622748 -0.782423 0.000000
vn 0.000000 -0.523472 -0.852043
vn 0.000000 -0.523472 -0.852043
vn 0.000000 -0.523472 -0.852043
vn 0.000000 -0.523472 -0.852043
vn 0.852042 -0.523474 0.000000
vn 0.852042 -0.523474 0.000000
vn 0.852042 -0.523474 0.000000
vn 0.852042 -0.523474 0.000000
vn 0.000000 -0.523472 0.852043
vn 0.000000 -0.523472 0.852043
vn 0.000000 -0.523472 0.852043
vn 0.000000 -0.523472 0.852043
vn -0.852044 -0.523471 0.000000
vn -0.852044 -0.523471 0.000000
vn -0.852044 -0.523471 0.000000
vn -0.852044 -0.523471 0.000000
vn 0.000000 0.000000 -1.000000
vn 0.000000 0.000000 -1.000000
vn 0.000000 0.000000 -1.000000
vn 0.000000 0.000000 -1.000000
vn 1.000000 0.000000 0.000000
vn 1.000000 0.000000 0.000000
vn 1.000000 0.000000 0.000000
vn 1.000000 0.000000 0.000000
vn 0.000000 0.000000 1.000000
vn 0.000000 0.000000 1.000000
vn 0.000000 0.000000 1.000000
vn 0.000000 0.000000 1.000000
vn -1.000000 0.000000 0.000000
vn -1.000000 0.000000 0.000000
vn -1.000000 0.000000 0.000000
vn -1.000000 0.000000 0.000000
vn 0.000000 -1.000000 0.000000
vn 0.000000 -1.000000 0.000000
vn 0.000000 -1.000000 0.000000
vn 0.000000 -1.000000 0.000000
vn 0.000000 0.000000 1.000000
vn 0.000000 0.000000 1.000000
vn 0.000000 0.000000 1.000000
vn 0.000000 0.000000 1.000000
vn 0.000000 0.000000 -1.000000
vn 0.000000 0.000000 -1.000000
vn 0.000000 0.000000 -1.000000
vn 0.000000 0.000000 -1.000000
vn 1.000000 0.000000 0.000000
vn 1.000000 0.000000 0.000000
vn 1.000000 0.000000 0.000000
vn 1.000000 0.000000 0.000000
vn -1.000000 0.000000 0.000000
vn -1.000000 0.000000 0.000000
vn -1.000000 0.000000 0.000000
vn -1.000000 0.000000 0.000000
vn 0.000000 0.000000 1.000000
vn 0.000000 0.000000 1.000000
vn 0.000000 0.000000 1.000000
vn 0.000000 0.000000 1.000000
vn 0.000000 0.000000 -1.000000
vn 0.000000 0.000000 -1.000000
vn 0.000000 0.000000 -1.000000
vn 0.000000 0.000000 -1.000000
vn 0.000000 -1.000000 0.000000
vn 0.000000 -1.000000 0.000000
vn 0.000000 -1.000000 0.000000
vn 0.000000 -1.000000 0.000000
vn 1.000000 0.000000 0.000000
vn 1.000000 0.000000 0.000000
vn 1.000000 0.000000 0.000000
vn 1.000000 0.000000 0.000000
vn -1.000000 0.000000 0.000000
vn -1.000000 0.000000 0.000000
vn -1.000000 0.000000 0.000000
vn -1.000000 0.000000 0.000000
vn 0.000000 0.782423 0.622747
vn 0.000000 0.782423 0.622747
vn 0.000000 0.782423 0.622747
vn 0.000000 0.782423 0.622747
vn 0.622747 0.782423 0.000000
vn 0.622747 0.782423 0.000000
vn 0.622747 0.782423 0.000000
vn 0.622747 0.782423 0.000000
vn 0.000000 0.782423 -0.622747
vn 0.000000 0.782423 -0.622747
vn 0.000000 0.782423 -0.622747
vn 0.000000 0.782423 -0.622747
vn -0.622747 0.782423 0.000000
vn -0.622747 0.782423 0.000000
vn -0.622747 0.782423 0.000000
vn -0.622747 0.782423 0.000000
vn 0.000000 0.523472 0.852043
vn 0.000000 0.523472 0.852043
vn 0.000000 0.523472 0.852043
vn 0.000000 0.523472 0.852043
vn 0.852042 0.523473 0.000000
vn 0.852042 0.523473 0.000000
vn 0.852042 0.523473 0.000000
vn 0.852042 0.523473 0.000000
vn 0.000000 0.523471 -0.852044
vn 0.000000 0.523471 -0.852044
vn 0.000000 0.523471 -0.852044
vn 0.000000 0.523471 -0.852044
vn -0.852044 0.523471 0.000000
vn -0.852044 0.523471 0.000000
vn -0.852044 0.523471 0.000000
vn -0.852044 0.523471 0.000000
vn 0.000000 0.000000 1.000000
vn 0.000000 0.000000 1.000000
vn 0.000000 0.000000 1.000000
vn 0.000000 0.000000 1.000000
vn 1.000000 0.000000 0.000000
vn 1.000000 0.000000 0.000000
vn 1.000000 0.000000 0.000000
vn 1.000000 0.000000 0.000000
vn 0.000000 0.000000 -1.000000
vn 0.000000 0.000000 -1.000000
vn 0.000000 0.000000 -1.000000
vn 0.000000 0.000000 -1.000000
vn -1.000000 0.000000 0.000000
vn -1.000000 0.000000 0.000000
vn -1.000000 0.000000 0.000000
vn -1.000000 0.000000 0.000000
vn 0.000000 1.000000 0.000000
vn 0.000000 1.000000 0.000000
vn 0.000000 1.000000 0.000000
vn 0.000000 1.000000 0.000000
g pCube23
f 1/65/1 2/66/2 4/67/3 3/68/4
f 5/75/5 6/76/6 8/77/7 7/78/8
f 7/49/9 8/50/10 2/51/11 1/52/12
f 2/1/13 8/2/14 6/3/15 4/4/16
f 7/11/17 1/12/18 3/13/19 5/14/20
f 3/68/21 4/67/22 10/69/23 9/70/24
f 4/4/25 6/3/26 11/5/27 10/6/28
f 6/76/29 5/75/30 12/79/31 11/80/32
f 5/14/33 3/13/34 9/15/35 12/16/36
f 9/70/37 10/69/38 14/71/39 13/72/40
f 10/6/41 11/5/42 15/7/43 14/8/44
f 11/80/45 12/79/46 16/81/47 15/82/48
f 12/16/49 9/15/50 13/17/51 16/18/52
f 13/72/53 14/71/54 18/73/55 17/74/56
f 14/8/57 15/7/58 19/9/59 18/10/60
f 15/82/61 16/81/62 20/83/63 19/84/64
f 16/18/65 13/17/66 17/19/67 20/20/68
f 18/53/69 19/54/70 20/55/71 17/56/72
f 21/85/73 22/86/74 24/87/75 23/88/76
f 25/89/77 26/90/78 28/91/79 27/92/80
f 22/21/81 28/22/82 26/23/83 24/24/84
f 27/25/85 21/26/86 23/27/87 25/28/88
f 29/93/89 30/94/90 32/95/91 31/96/92
f 33/103/93 34/104/94 36/105/95 35/106/96
f 35/57/97 36/58/98 30/59/99 29/60/100
f 30/29/101 36/30/102 34/31/103 32/32/104
f 35/39/105 29/40/106 31/41/107 33/42/108
f 31/96/109 32/95/110 38/97/111 37/98/112
f 32/32/113 34/31/114 39/33/115 38/34/116
f 34/104/117 33/103/118 40/107/119 39/108/120
f 33/42/121 31/41/122 37/43/123 40/44/124
f 37/98/125 38/97/126 42/99/127 41/100/128
f 38/34/129 39/33/130 43/35/131 42/36/132
f 39/108/133 40/107/134 44/109/135 43/110/136
f 40/44/137 37/43/138 41/45/139 44/46/140
f 41/100/141 42/99/142 46/101/143 45/102/144
f 42/36/145 43/35/146 47/37/147 46/38/148
f 43/110/149 44/109/150 48/111/151 47/112/152
f 44/46/153 41/45/154 45/47/155 48/48/156
f 46/61/157 47/62/158 48/63/159 45/64/160
