# This file uses centimeters as units for non-parametric coordinates.

v -0.407584 -0.000000 -0.595490
v 0.407584 -0.000000 -0.595490
v -0.407584 0.302142 -0.595490
v 0.407584 0.302142 -0.595490
v -0.407584 0.302142 -0.717695
v 0.407584 0.302142 -0.717695
v -0.407584 -0.000000 -0.717695
v 0.407584 -0.000000 -0.717695
v -0.274108 0.302142 -0.595490
v -0.274108 0.302142 -0.717695
v -0.274108 -0.000000 -0.717695
v -0.274108 -0.000000 -0.595490
v 0.272575 0.302142 -0.595490
v 0.272575 0.302142 -0.717695
v 0.272575 -0.000000 -0.717695
v 0.272575 -0.000000 -0.595490
v 0.272575 0.115377 -0.595490
v -0.274108 0.115377 -0.595490
v -0.407584 0.115377 -0.595490
v -0.407584 0.115377 -0.717695
v -0.274108 0.115377 -0.717695
v 0.272575 0.115377 -0.717695
v 0.407584 0.115377 -0.717695
v 0.407584 0.115377 -0.595490
v -0.407584 -0.000000 0.052602
v -0.274108 -0.000000 0.052602
v -0.274108 0.115377 0.052602
v -0.407584 0.115377 0.052602
v 0.272575 -0.000000 0.052602
v 0.272575 0.115377 0.052602
v 0.407584 0.115377 0.052602
v 0.407584 -0.000000 0.052602
v -0.274108 0.302142 0.052602
v -0.407584 0.302142 0.052602
v 0.272575 0.302142 0.052602
v 0.407584 0.302142 0.052602
v -0.258506 -0.000000 0.484641
v -0.125289 -0.000000 0.484641
v -0.125289 0.115377 0.484641
v -0.258506 0.115377 0.484641
v 0.124315 -0.000000 0.484641
v 0.124315 0.115377 0.484641
v 0.258506 0.115377 0.484641
v 0.258506 -0.000000 0.484641
v -0.125289 0.302142 0.484641
v -0.258506 0.302142 0.484641
v 0.124315 0.302142 0.484641
v 0.258506 0.302142 0.484641
v -0.179217 -0.000000 0.594090
v -0.087600 -0.000000 0.667538
v -0.087600 0.115377 0.667538
v -0.179217 0.115377 0.594090
v 0.081001 -0.000000 0.667538
v 0.081001 0.115377 0.667538
v 0.179217 0.115377 0.594090
v 0.179217 -0.000000 0.594090
v -0.087600 0.302142 0.667481
v -0.179217 0.302142 0.594035
v 0.081001 0.302142 0.667481
v 0.179217 0.302142 0.594035
v -0.003169 0.115377 0.576002
v -0.003169 0.302142 0.576002
v -0.003169 0.302142 0.717695
v -0.003169 0.115377 0.717695
v -0.003169 -0.000000 0.717695
v -0.003169 -0.000000 0.576002
v -0.007499 -0.000000 0.052602
v -0.003169 -0.000000 -0.595490
v -0.003169 -0.000000 -0.717695
v -0.003169 0.115377 -0.717695
v -0.003169 0.302142 -0.717695
v -0.003169 0.302142 -0.595490
v -0.003169 0.115377 -0.595490
v -0.003169 0.115377 0.052602
v -0.224386 0.302142 0.283830
v -0.225703 0.115377 0.283830
v -0.003169 0.115377 0.283830
v 0.224356 0.115377 0.283830
v 0.224356 0.302142 0.283830
v 0.357824 0.302142 0.283830
v 0.357824 0.115377 0.283830
v 0.357824 -0.000000 0.283830
v 0.224356 -0.000000 0.283830
v -0.006584 -0.000000 0.283830
v -0.225703 -0.000000 0.283830
v -0.357824 -0.000000 0.283830
v -0.357824 0.115377 0.283830
v -0.357824 0.302142 0.283830
v -0.334438 0.168012 0.190137
v 0.328098 0.168012 0.190137
v -0.334438 0.237532 0.190137
v 0.328098 0.237532 0.190137
v -0.334438 0.237532 0.024201
v 0.328098 0.237532 0.024201
v -0.334438 0.168012 0.024201
v 0.328098 0.168012 0.024201
v -0.334438 0.168012 -0.250711
v 0.328098 0.168012 -0.250711
v -0.334438 0.237532 -0.250711
v 0.328098 0.237532 -0.250711
v -0.334438 0.237532 -0.416647
v 0.328098 0.237532 -0.416647
v -0.334438 0.168012 -0.416647
v 0.328098 0.168012 -0.416647
vt 0.570577 0.122585
vt 0.570577 0.113005
vt 0.585625 0.113005
vt 0.585625 0.122585
vt 0.612599 0.277736
vt 0.630008 0.277736
vt 0.630008 0.293675
vt 0.612599 0.293675
vt 0.759300 0.401315
vt 0.759300 0.383907
vt 0.774348 0.383907
vt 0.774348 0.401315
vt 0.721044 0.106463
vt 0.738452 0.106463
vt 0.738452 0.122402
vt 0.721044 0.122402
vt 0.829489 0.122402
vt 0.829489 0.106463
vt 0.844537 0.106463
vt 0.844537 0.122402
vt 0.570577 0.293675
vt 0.570577 0.277736
vt 0.585625 0.277736
vt 0.585625 0.293675
vt 0.665345 0.277736
vt 0.701309 0.277736
vt 0.701309 0.293675
vt 0.665345 0.293675
vt 0.774348 0.348569
vt 0.759300 0.348569
vt 0.759300 0.312605
vt 0.774348 0.312605
vt 0.773790 0.122402
vt 0.773790 0.106463
vt 0.809754 0.106463
vt 0.809754 0.122402
vt 0.844537 0.293675
vt 0.829489 0.293675
vt 0.829489 0.287133
vt 0.844537 0.287133
vt 0.718918 0.277736
vt 0.718918 0.293675
vt 0.759300 0.294997
vt 0.774348 0.294997
vt 0.827362 0.106463
vt 0.827362 0.122402
vt 0.844537 0.277554
vt 0.829489 0.277554
vt 0.723382 0.418694
vt 0.699023 0.418694
vt 0.699023 0.382730
vt 0.723382 0.382730
vt 0.609984 0.113013
vt 0.609984 0.122592
vt 0.609984 0.277736
vt 0.609984 0.293675
vt 0.734940 0.401315
vt 0.734940 0.383907
vt 0.734940 0.348569
vt 0.734940 0.312605
vt 0.734940 0.294997
vt 0.868896 0.106463
vt 0.868896 0.122402
vt 0.868896 0.287125
vt 0.868896 0.277546
vt 0.738452 0.206930
vt 0.721044 0.206930
vt 0.570577 0.193208
vt 0.585625 0.193208
vt 0.809754 0.206930
vt 0.773225 0.206930
vt 0.900463 0.447789
vt 0.864499 0.447789
vt 0.864499 0.363261
vt 0.900463 0.363261
vt 0.827362 0.206930
vt 0.844537 0.206930
vt 0.829489 0.206930
vt 0.802771 0.294997
vt 0.827130 0.294997
vt 0.827130 0.379524
vt 0.802771 0.379524
vt 0.612599 0.193208
vt 0.630008 0.193208
vt 0.609984 0.193208
vt 0.800739 0.447789
vt 0.776380 0.447789
vt 0.776380 0.363261
vt 0.800739 0.363261
vt 0.868896 0.206930
vt 0.701309 0.193208
vt 0.718918 0.193208
vt 0.744766 0.237087
vt 0.727534 0.237087
vt 0.570577 0.163051
vt 0.585625 0.163051
vt 0.803465 0.237087
vt 0.773345 0.237087
vt 0.864499 0.333103
vt 0.894174 0.333103
vt 0.820872 0.237087
vt 0.844537 0.237088
vt 0.829489 0.237088
vt 0.827130 0.409682
vt 0.802771 0.409682
vt 0.619089 0.163051
vt 0.636493 0.163051
vt 0.609984 0.163051
vt 0.776380 0.333103
vt 0.800739 0.333103
vt 0.868896 0.237088
vt 0.695020 0.163051
vt 0.712427 0.163051
vt 0.740487 0.263279
vt 0.757862 0.263279
vt 0.762778 0.287133
vt 0.750829 0.277554
vt 0.585625 0.136860
vt 0.570577 0.136860
vt 0.773790 0.275194
vt 0.790417 0.263279
vt 0.784768 0.287133
vt 0.773790 0.293675
vt 0.807919 0.263279
vt 0.797578 0.277554
vt 0.829489 0.263279
vt 0.844537 0.263279
vt 0.649418 0.136860
vt 0.632042 0.136860
vt 0.642384 0.122592
vt 0.654333 0.113013
vt 0.609984 0.136860
vt 0.868896 0.263279
vt 0.699474 0.136860
vt 0.681972 0.136860
vt 0.676323 0.113013
vt 0.689133 0.122592
vt 0.802771 0.435873
vt 0.827130 0.435873
vt 0.827130 0.447789
vt 0.802771 0.447789
vt 0.665345 0.106463
vt 0.665345 0.124944
vt 0.585625 0.106463
vt 0.609984 0.106463
vt 0.800739 0.306912
vt 0.776380 0.306912
vt 0.776380 0.294997
vt 0.800739 0.294997
vt 0.868896 0.293675
vt 0.570577 0.106463
vt 0.723382 0.454032
vt 0.699023 0.454032
vt 0.829162 0.447789
vt 0.829162 0.363261
vt 0.835475 0.333103
vt 0.864499 0.294997
vt 0.848572 0.306912
vt 0.881126 0.306912
vt 0.916311 0.828350
vt 0.916311 0.580723
vt 0.942295 0.580723
vt 0.942295 0.828350
vt 0.848468 0.828350
vt 0.848468 0.580723
vt 0.910487 0.580723
vt 0.910487 0.828350
vt 0.816661 0.828350
vt 0.816661 0.580723
vt 0.842645 0.580723
vt 0.842645 0.828350
vt 0.748818 0.828350
vt 0.748818 0.580723
vt 0.810838 0.580723
vt 0.810838 0.828350
vt 0.553133 0.894158
vt 0.553133 0.832138
vt 0.579117 0.832138
vt 0.579117 0.894158
vt 0.586429 0.894158
vt 0.586429 0.832138
vt 0.612413 0.832138
vt 0.612413 0.894158
vt 0.717011 0.828350
vt 0.717011 0.580723
vt 0.742995 0.580723
vt 0.742995 0.828350
vt 0.649169 0.828350
vt 0.649169 0.580723
vt 0.711188 0.580723
vt 0.711188 0.828350
vt 0.617361 0.828350
vt 0.617361 0.580723
vt 0.643345 0.580723
vt 0.643345 0.828350
vt 0.549519 0.828350
vt 0.549519 0.580723
vt 0.611538 0.580723
vt 0.611538 0.828350
vt 0.619726 0.894158
vt 0.619726 0.832138
vt 0.645710 0.832138
vt 0.645710 0.894158
vt 0.653022 0.894158
vt 0.653022 0.832138
vt 0.679006 0.832138
vt 0.679006 0.894158
vn -0.625489 0.000000 0.780233
vn -0.625489 0.000000 0.780233
vn -0.625489 0.000000 0.780233
vn -0.625489 0.000000 0.780233
vn 0.000000 1.000000 0.000000
vn 0.000000 1.000000 0.000000
vn 0.000000 1.000000 0.000000
vn 0.000000 1.000000 0.000000
vn 0.000000 0.000000 -1.000000
vn 0.000000 0.000000 -1.000000
vn 0.000000 0.000000 -1.000000
vn 0.000000 0.000000 -1.000000
vn 0.000000 -1.000000 0.000000
vn 0.000000 -1.000000 0.000000
vn 0.000000 -1.000000 0.000000
vn 0.000000 -1.000000 0.000000
vn 1.000000 0.000000 0.000000
vn 1.000000 0.000000 0.000000
vn 1.000000 0.000000 0.000000
vn 1.000000 0.000000 0.000000
vn -1.000000 0.000000 0.000000
vn -1.000000 0.000000 0.000000
vn -1.000000 0.000000 0.000000
vn -1.000000 0.000000 0.000000
vn 0.000000 1.000000 0.000000
vn 0.000000 1.000000 0.000000
vn 0.000000 1.000000 0.000000
vn 0.000000 1.000000 0.000000
vn 0.000000 0.000000 -1.000000
vn 0.000000 0.000000 -1.000000
vn 0.000000 0.000000 -1.000000
vn 0.000000 0.000000 -1.000000
vn 0.000000 -1.000000 0.000000
vn 0.000000 -1.000000 0.000000
vn 0.000000 -1.000000 0.000000
vn 0.000000 -1.000000 0.000000
vn 0.511905 0.000000 0.859042
vn 0.511905 0.000000 0.859042
vn 0.511905 0.000000 0.859042
vn 0.511905 0.000000 0.859042
vn 0.000000 1.000000 0.000000
vn 0.000000 1.000000 0.000000
vn 0.000000 1.000000 0.000000
vn 0.000000 1.000000 0.000000
vn 0.000000 0.000000 -1.000000
vn 0.000000 0.000000 -1.000000
vn 0.000000 0.000000 -1.000000
vn 0.000000 0.000000 -1.000000
vn 0.000000 -1.000000 0.000000
vn 0.000000 -1.000000 0.000000
vn 0.000000 -1.000000 0.000000
vn 0.000000 -1.000000 0.000000
vn 0.598876 0.000000 0.800842
vn 0.598876 0.000000 0.800842
vn 0.598876 0.000000 0.800842
vn 0.598876 0.000000 0.800842
vn 0.000000 0.000000 1.000000
vn 0.000000 0.000000 1.000000
vn 0.000000 0.000000 1.000000
vn 0.000000 0.000000 1.000000
vn -0.625490 0.000233 0.780232
vn -0.625490 0.000233 0.780232
vn -0.625490 0.000233 0.780232
vn -0.625490 0.000233 0.780232
vn -1.000000 0.000000 0.000000
vn -1.000000 0.000000 0.000000
vn -1.000000 0.000000 0.000000
vn -1.000000 0.000000 0.000000
vn 0.000000 0.000000 -1.000000
vn 0.000000 0.000000 -1.000000
vn 0.000000 0.000000 -1.000000
vn 0.000000 0.000000 -1.000000
vn 0.000000 0.000000 -1.000000
vn 0.000000 0.000000 -1.000000
vn 0.000000 0.000000 -1.000000
vn 0.000000 0.000000 -1.000000
vn 0.000000 0.000000 -1.000000
vn 0.000000 0.000000 -1.000000
vn 0.000000 0.000000 -1.000000
vn 0.000000 0.000000 -1.000000
vn 1.000000 0.000000 0.000000
vn 1.000000 0.000000 0.000000
vn 1.000000 0.000000 0.000000
vn 1.000000 0.000000 0.000000
vn 0.598876 0.000240 0.800842
vn 0.598876 0.000240 0.800842
vn 0.598876 0.000240 0.800842
vn 0.598876 0.000240 0.800842
vn 0.000000 -1.000000 0.000000
vn 0.000000 -1.000000 0.000000
vn 0.000000 -1.000000 0.000000
vn 0.000000 -1.000000 0.000000
vn -1.000000 0.000000 0.000000
vn -1.000000 0.000000 0.000000
vn -1.000000 0.000000 0.000000
vn -1.000000 0.000000 0.000000
vn 0.000000 -1.000000 0.000000
vn 0.000000 -1.000000 0.000000
vn 0.000000 -1.000000 0.000000
vn 0.000000 -1.000000 0.000000
vn 0.000000 1.000000 0.000000
vn 0.000000 1.000000 0.000000
vn 0.000000 1.000000 0.000000
vn 0.000000 1.000000 0.000000
vn 0.000000 -1.000000 0.000000
vn 0.000000 -1.000000 0.000000
vn 0.000000 -1.000000 0.000000
vn 0.000000 -1.000000 0.000000
vn 1.000000 0.000000 0.000000
vn 1.000000 0.000000 0.000000
vn 1.000000 0.000000 0.000000
vn 1.000000 0.000000 0.000000
vn 1.000000 0.000000 0.000000
vn 1.000000 0.000000 0.000000
vn 1.000000 0.000000 0.000000
vn 1.000000 0.000000 0.000000
vn 0.000000 1.000000 0.000000
vn 0.000000 1.000000 0.000000
vn 0.000000 1.000000 0.000000
vn 0.000000 1.000000 0.000000
vn -1.000000 0.000000 0.000000
vn -1.000000 0.000000 0.000000
vn -1.000000 0.000000 0.000000
vn -1.000000 0.000000 0.000000
vn -1.000000 0.000000 0.000000
vn -1.000000 0.000000 0.000000
vn -1.000000 0.000000 0.000000
vn -1.000000 0.000000 0.000000
vn 1.000000 0.000000 0.000000
vn 1.000000 0.000000 0.000000
vn 1.000000 0.000000 0.000000
vn 1.000000 0.000000 0.000000
vn 0.000000 1.000000 0.000000
vn 0.000000 1.000000 0.000000
vn 0.000000 1.000000 0.000000
vn 0.000000 1.000000 0.000000
vn 0.000000 -1.000000 0.000000
vn 0.000000 -1.000000 0.000000
vn 0.000000 -1.000000 0.000000
vn 0.000000 -1.000000 0.000000
vn -0.977618 0.000000 0.210388
vn -0.977618 0.000000 0.210388
vn -0.977618 0.000000 0.210388
vn -0.977618 0.000000 0.210388
vn 0.000000 -1.000000 0.000000
vn 0.000000 -1.000000 0.000000
vn 0.000000 -1.000000 0.000000
vn 0.000000 -1.000000 0.000000
vn 0.000000 1.000000 0.000000
vn 0.000000 1.000000 0.000000
vn 0.000000 1.000000 0.000000
vn 0.000000 1.000000 0.000000
vn 0.000000 -1.000000 0.000000
vn 0.000000 -1.000000 0.000000
vn 0.000000 -1.000000 0.000000
vn 0.000000 -1.000000 0.000000
vn 0.977618 0.000000 0.210388
vn 0.977618 0.000000 0.210388
vn 0.977618 0.000000 0.210388
vn 0.977618 0.000000 0.210388
vn 0.978215 -0.003448 -0.207568
vn 0.978215 -0.003448 -0.207568
vn 0.978215 -0.003448 -0.207568
vn 0.978215 -0.003448 -0.207568
vn 0.000000 1.000000 0.000000
vn 0.000000 1.000000 0.000000
vn 0.000000 1.000000 0.000000
vn 0.000000 1.000000 0.000000
vn -0.977618 0.000000 0.210388
vn -0.977618 0.000000 0.210388
vn -0.977618 0.000000 0.210388
vn -0.977618 0.000000 0.210388
vn -0.978941 0.000000 -0.204142
vn -0.978941 0.000000 -0.204142
vn -0.978941 0.000000 -0.204142
vn -0.978941 0.000000 -0.204142
vn 0.977618 0.000000 0.210388
vn 0.977618 0.000000 0.210388
vn 0.977618 0.000000 0.210388
vn 0.977618 0.000000 0.210388
vn 0.000000 1.000000 0.000000
vn 0.000000 1.000000 0.000000
vn 0.000000 1.000000 0.000000
vn 0.000000 1.000000 0.000000
vn 0.000000 -1.000000 0.000000
vn 0.000000 -1.000000 0.000000
vn 0.000000 -1.000000 0.000000
vn 0.000000 -1.000000 0.000000
vn -0.809825 0.000000 0.586672
vn -0.809825 0.000000 0.586672
vn -0.809825 0.000000 0.586672
vn -0.809825 0.000000 0.586672
vn 0.000000 -1.000000 0.000000
vn 0.000000 -1.000000 0.000000
vn 0.000000 -1.000000 0.000000
vn 0.000000 -1.000000 0.000000
vn 0.000000 -1.000000 0.000000
vn 0.000000 -1.000000 0.000000
vn 0.000000 -1.000000 0.000000
vn 0.000000 -1.000000 0.000000
vn 0.809825 0.000000 0.586672
vn 0.809825 0.000000 0.586672
vn 0.809825 0.000000 0.586672
vn 0.809825 0.000000 0.586672
vn 0.000000 1.000000 0.000000
vn 0.000000 1.000000 0.000000
vn 0.000000 1.000000 0.000000
vn 0.000000 1.000000 0.000000
vn -0.809754 0.000088 0.586770
vn -0.809754 0.000088 0.586770
vn -0.809754 0.000088 0.586770
vn -0.809754 0.000088 0.586770
vn 0.809754 0.000088 0.586770
vn 0.809754 0.000088 0.586770
vn 0.809754 0.000088 0.586770
vn 0.809754 0.000088 0.586770
vn 0.000000 1.000000 0.000000
vn 0.000000 1.000000 0.000000
vn 0.000000 1.000000 0.000000
vn 0.000000 1.000000 0.000000
vn 0.599036 0.000000 -0.800722
vn 0.599036 0.000000 -0.800722
vn 0.599036 0.000000 -0.800722
vn 0.599036 0.000000 -0.800722
vn -0.000000 1.000000 -0.000000
vn -0.000000 1.000000 -0.000000
vn -0.000000 1.000000 -0.000000
vn -0.000000 1.000000 -0.000000
vn -0.510954 0.000129 0.859608
vn -0.510954 0.000129 0.859608
vn -0.510954 0.000129 0.859608
vn -0.510954 0.000129 0.859608
vn -0.582497 0.000000 -0.812833
vn -0.582497 0.000000 -0.812833
vn -0.582497 0.000000 -0.812833
vn -0.582497 0.000000 -0.812833
vn 0.512114 0.000128 0.858917
vn 0.512114 0.000128 0.858917
vn 0.512114 0.000128 0.858917
vn 0.512114 0.000128 0.858918
vn 0.000000 1.000000 0.000000
vn 0.000000 1.000000 0.000000
vn 0.000000 1.000000 0.000000
vn 0.000000 1.000000 0.000000
vn -0.510745 0.000000 0.859732
vn -0.510745 0.000000 0.859732
vn -0.510745 0.000000 0.859732
vn -0.510745 0.000000 0.859732
vn 0.000000 -1.000000 0.000000
vn 0.000000 -1.000000 0.000000
vn 0.000000 -1.000000 0.000000
vn 0.000000 -1.000000 0.000000
vn 0.000000 -1.000000 0.000000
vn 0.000000 -1.000000 0.000000
vn 0.000000 -1.000000 0.000000
vn 0.000000 -1.000000 0.000000
vn 0.000000 -1.000000 0.000000
vn 0.000000 -1.000000 0.000000
vn 0.000000 -1.000000 0.000000
vn 0.000000 -1.000000 0.000000
vn 0.000000 -1.000000 0.000000
vn 0.000000 -1.000000 0.000000
vn 0.000000 -1.000000 0.000000
vn 0.000000 -1.000000 0.000000
vn 0.000000 0.000000 -1.000000
vn 0.000000 0.000000 -1.000000
vn 0.000000 0.000000 -1.000000
vn 0.000000 0.000000 -1.000000
vn 0.000000 0.000000 -1.000000
vn 0.000000 0.000000 -1.000000
vn 0.000000 0.000000 -1.000000
vn 0.000000 0.000000 -1.000000
vn 0.000000 1.000000 0.000000
vn 0.000000 1.000000 0.000000
vn 0.000000 1.000000 0.000000
vn 0.000000 1.000000 0.000000
vn 0.000000 0.000000 1.000000
vn 0.000000 0.000000 1.000000
vn 0.000000 0.000000 1.000000
vn 0.000000 0.000000 1.000000
vn 0.000000 1.000000 0.000000
vn 0.000000 1.000000 0.000000
vn 0.000000 1.000000 0.000000
vn 0.000000 1.000000 0.000000
vn 0.000000 1.000000 0.000000
vn 0.000000 1.000000 0.000000
vn 0.000000 1.000000 0.000000
vn 0.000000 1.000000 0.000000
vn 0.895580 -0.003155 -0.444889
vn 0.895580 -0.003155 -0.444889
vn 0.895580 -0.003155 -0.444889
vn 0.895580 -0.003155 -0.444889
vn 0.000000 1.000000 0.000000
vn 0.000000 1.000000 0.000000
vn 0.000000 1.000000 0.000000
vn 0.000000 1.000000 0.000000
vn 0.000000 1.000000 0.000000
vn 0.000000 1.000000 0.000000
vn 0.000000 1.000000 0.000000
vn 0.000000 1.000000 0.000000
vn -0.895078 0.000000 -0.445909
vn -0.895078 0.000000 -0.445909
vn -0.895078 0.000000 -0.445909
vn -0.895078 0.000000 -0.445909
vn 0.000000 1.000000 0.000000
vn 0.000000 1.000000 0.000000
vn 0.000000 1.000000 0.000000
vn 0.000000 1.000000 0.000000
vn 0.896365 0.000000 0.443316
vn 0.896365 0.000000 0.443316
vn 0.896365 0.000000 0.443316
vn 0.896365 0.000000 0.443316
vn 0.896365 0.000000 0.443316
vn 0.896365 0.000000 0.443316
vn 0.896365 0.000000 0.443316
vn 0.896365 0.000000 0.443316
vn 0.000000 -1.000000 0.000000
vn 0.000000 -1.000000 0.000000
vn 0.000000 -1.000000 0.000000
vn 0.000000 -1.000000 0.000000
vn 0.000000 -1.000000 0.000000
vn 0.000000 -1.000000 0.000000
vn 0.000000 -1.000000 0.000000
vn 0.000000 -1.000000 0.000000
vn 0.000000 -1.000000 0.000000
vn 0.000000 -1.000000 0.000000
vn 0.000000 -1.000000 0.000000
vn 0.000000 -1.000000 0.000000
vn 0.000000 -1.000000 0.000000
vn 0.000000 -1.000000 0.000000
vn 0.000000 -1.000000 0.000000
vn 0.000000 -1.000000 0.000000
vn -0.896365 0.000000 0.443317
vn -0.896365 0.000000 0.443317
vn -0.896365 0.000000 0.443317
vn -0.896365 0.000000 0.443317
vn -0.896365 0.000000 0.443317
vn -0.896365 0.000000 0.443317
vn -0.896365 0.000000 0.443317
vn -0.896365 0.000000 0.443317
vn 0.000000 1.000000 0.000000
vn 0.000000 1.000000 0.000000
vn 0.000000 1.000000 0.000000
vn 0.000000 1.000000 0.000000
vn 0.000000 0.000000 1.000000
vn 0.000000 0.000000 1.000000
vn 0.000000 0.000000 1.000000
vn 0.000000 0.000000 1.000000
vn 0.000000 1.000000 0.000000
vn 0.000000 1.000000 0.000000
vn 0.000000 1.000000 0.000000
vn 0.000000 1.000000 0.000000
vn 0.000000 0.000000 -1.000000
vn 0.000000 0.000000 -1.000000
vn 0.000000 0.000000 -1.000000
vn 0.000000 0.000000 -1.000000
vn 0.000000 -1.000000 0.000000
vn 0.000000 -1.000000 0.000000
vn 0.000000 -1.000000 0.000000
vn 0.000000 -1.000000 0.000000
vn 1.000000 0.000000 0.000000
vn 1.000000 0.000000 0.000000
vn 1.000000 0.000000 0.000000
vn 1.000000 0.000000 0.000000
vn -1.000000 0.000000 0.000000
vn -1.000000 0.000000 0.000000
vn -1.000000 0.000000 0.000000
vn -1.000000 0.000000 0.000000
vn 0.000000 0.000000 1.000000
vn 0.000000 0.000000 1.000000
vn 0.000000 0.000000 1.000000
vn 0.000000 0.000000 1.000000
vn 0.000000 1.000000 0.000000
vn 0.000000 1.000000 0.000000
vn 0.000000 1.000000 0.000000
vn 0.000000 1.000000 0.000000
vn 0.000000 0.000000 -1.000000
vn 0.000000 0.000000 -1.000000
vn 0.000000 0.000000 -1.000000
vn 0.000000 0.000000 -1.000000
vn 0.000000 -1.000000 0.000000
vn 0.000000 -1.000000 0.000000
vn 0.000000 -1.000000 0.000000
vn 0.000000 -1.000000 0.000000
vn 1.000000 0.000000 0.000000
vn 1.000000 0.000000 0.000000
vn 1.000000 0.000000 0.000000
vn 1.000000 0.000000 0.000000
vn -1.000000 0.000000 0.000000
vn -1.000000 0.000000 0.000000
vn -1.000000 0.000000 0.000000
vn -1.000000 0.000000 0.000000
g boat_pCube21
f 49/1/1 50/2/2 51/3/3 52/4/4
f 3/5/5 9/6/6 10/7/7 5/8/8
f 20/9/9 21/10/10 11/11/11 7/12/12
f 7/13/13 11/14/14 12/15/15 1/16/16
f 2/17/17 8/18/18 23/19/19 24/20/20
f 7/21/21 1/22/22 19/23/23 20/24/24
f 72/25/25 13/26/26 14/27/27 71/28/28
f 69/29/29 70/30/30 22/31/31 15/32/32
f 68/33/33 69/34/34 15/35/35 16/36/36
f 64/37/37 65/38/38 53/39/39 54/40/40
f 13/26/41 4/41/42 6/42/43 14/27/44
f 15/32/45 22/31/46 23/43/47 8/44/48
f 16/36/49 15/35/50 8/45/51 2/46/52
f 55/47/53 54/40/54 53/39/55 56/48/56
f 72/49/57 73/50/58 17/51/59 13/52/60
f 52/4/61 51/3/62 57/53/63 58/54/64
f 20/24/65 19/23/66 3/55/67 5/56/68
f 5/57/69 10/58/70 21/10/71 20/9/72
f 22/31/73 70/30/74 71/59/75 14/60/76
f 23/43/77 22/31/78 14/60/79 6/61/80
f 24/20/81 23/19/82 6/62/83 4/63/84
f 59/64/85 54/40/86 55/47/87 60/65/88
f 1/16/89 12/15/90 26/66/91 25/67/92
f 19/23/93 1/22/94 25/68/95 28/69/96
f 68/33/97 16/36/98 29/70/99 67/71/100
f 17/72/101 73/73/102 74/74/103 30/75/104
f 16/36/105 2/46/106 32/76/107 29/70/108
f 2/17/109 24/20/110 31/77/111 32/78/112
f 18/79/113 9/80/114 33/81/115 27/82/116
f 9/6/117 3/5/118 34/83/119 33/84/120
f 3/55/121 19/23/122 28/69/123 34/85/124
f 13/86/125 17/87/126 30/88/127 35/89/128
f 24/20/129 4/63/130 36/90/131 31/77/132
f 4/41/133 13/26/134 35/91/135 36/92/136
f 25/67/137 26/66/138 85/93/139 86/94/140
f 28/69/141 25/68/142 86/95/143 87/96/144
f 67/71/145 29/70/146 83/97/147 84/98/148
f 30/75/149 74/74/150 77/99/151 78/100/152
f 29/70/153 32/76/154 82/101/155 83/97/156
f 32/78/157 31/77/158 81/102/159 82/103/160
f 27/82/161 33/81/162 75/104/163 76/105/164
f 33/84/165 34/83/166 88/106/167 75/107/168
f 34/85/169 28/69/170 87/96/171 88/108/172
f 35/89/173 30/88/174 78/109/175 79/110/176
f 31/77/177 36/90/178 80/111/179 81/102/180
f 36/92/181 35/91/182 79/112/183 80/113/184
f 37/114/185 38/115/186 50/116/187 49/117/188
f 40/118/189 37/119/190 49/1/191 52/4/192
f 66/120/193 41/121/194 53/122/195 65/123/196
f 41/121/197 44/124/198 56/125/199 53/122/200
f 44/126/201 43/127/202 55/47/203 56/48/204
f 45/128/205 46/129/206 58/130/207 57/131/208
f 46/132/209 40/118/210 52/4/211 58/54/212
f 43/127/213 48/133/214 60/65/215 55/47/216
f 48/134/217 47/135/218 59/136/219 60/137/220
f 39/138/221 45/139/222 62/140/223 61/141/224
f 45/128/225 57/131/226 63/142/227 62/143/228
f 57/53/229 51/3/230 64/144/231 63/145/232
f 47/146/233 42/147/234 61/148/235 62/149/236
f 54/40/237 59/64/238 63/150/239 64/37/240
f 59/136/241 47/135/242 62/143/243 63/142/244
f 51/3/245 50/2/246 65/151/247 64/144/248
f 38/115/249 66/120/250 65/123/251 50/116/252
f 26/66/253 67/71/254 84/98/255 85/93/256
f 12/15/257 68/33/258 67/71/259 26/66/260
f 12/15/261 11/14/262 69/34/263 68/33/264
f 11/11/265 21/10/266 70/30/267 69/29/268
f 71/59/269 70/30/270 21/10/271 10/58/272
f 9/6/273 72/25/274 71/28/275 10/7/276
f 9/152/277 18/153/278 73/50/279 72/49/280
f 74/74/281 73/73/282 18/154/283 27/155/284
f 77/99/285 74/74/286 27/155/287 76/156/288
f 76/105/289 75/104/290 45/139/291 39/138/292
f 61/157/293 77/99/294 76/156/295 39/158/296
f 78/100/297 77/99/298 61/157/299 42/159/300
f 79/110/301 78/109/302 42/147/303 47/146/304
f 80/113/305 79/112/306 47/135/307 48/134/308
f 81/102/309 80/111/310 48/133/311 43/127/312
f 82/103/313 81/102/314 43/127/315 44/126/316
f 83/97/317 82/101/318 44/124/319 41/121/320
f 84/98/321 83/97/322 41/121/323 66/120/324
f 85/93/325 84/98/326 66/120/327 38/115/328
f 86/94/329 85/93/330 38/115/331 37/114/332
f 87/96/333 86/95/334 37/119/335 40/118/336
f 88/108/337 87/96/338 40/118/339 46/132/340
f 75/107/341 88/106/342 46/129/343 45/128/344
f 89/160/345 90/161/346 92/162/347 91/163/348
f 91/164/349 92/165/350 94/166/351 93/167/352
f 93/168/353 94/169/354 96/170/355 95/171/356
f 95/172/357 96/173/358 90/174/359 89/175/360
f 90/176/361 96/177/362 94/178/363 92/179/364
f 95/180/365 89/181/366 91/182/367 93/183/368
f 97/184/369 98/185/370 100/186/371 99/187/372
f 99/188/373 100/189/374 102/190/375 101/191/376
f 101/192/377 102/193/378 104/194/379 103/195/380
f 103/196/381 104/197/382 98/198/383 97/199/384
f 98/200/385 104/201/386 102/202/387 100/203/388
f 103/204/389 97/205/390 99/206/391 101/207/392
