# This file uses centimeters as units for non-parametric coordinates.

v -0.520269 -0.000524 0.520269
v 0.520269 -0.000524 0.520269
v -0.520269 0.075432 0.520269
v 0.520269 0.075432 0.520269
v -0.520269 0.075432 -0.520269
v 0.520269 0.075432 -0.520269
v -0.520269 -0.000524 -0.520269
v 0.520269 -0.000524 -0.520269
v -0.511330 0.098655 0.511330
v 0.511330 0.098655 0.511330
v 0.511330 0.098655 -0.511330
v -0.511330 0.098655 -0.511330
v -0.505213 0.107364 0.505213
v 0.505213 0.107364 0.505213
v 0.505213 0.107364 -0.505213
v -0.505213 0.107364 -0.505213
v -0.505213 0.122150 0.505213
v 0.505213 0.122150 0.505213
v 0.505213 0.122150 -0.505213
v -0.505213 0.122150 -0.505213
vt 0.375000 0.000000
vt 0.625000 0.000000
vt 0.625000 0.250000
vt 0.375000 0.250000
vt 0.375000 0.500000
vt 0.625000 0.500000
vt 0.625000 0.750000
vt 0.375000 0.750000
vt 0.875000 0.000000
vt 0.875000 0.250000
vt 0.125000 0.000000
vt 0.125000 0.250000
vt 0.625000 0.250000
vt 0.375000 0.250000
vt 0.625000 0.500000
vt 0.375000 0.500000
vt 0.625000 0.250000
vt 0.375000 0.250000
vt 0.625000 0.500000
vt 0.375000 0.500000
vt 0.625000 0.250000
vt 0.375000 0.250000
vt 0.625000 0.500000
vt 0.375000 0.500000
vn 0.000000 0.000000 1.000000
vn 0.000000 0.000000 1.000000
vn 0.000000 0.000000 1.000000
vn 0.000000 0.000000 1.000000
vn 0.000000 0.000000 -1.000000
vn 0.000000 0.000000 -1.000000
vn 0.000000 0.000000 -1.000000
vn 0.000000 0.000000 -1.000000
vn 1.000000 0.000000 0.000000
vn 1.000000 0.000000 0.000000
vn 1.000000 0.000000 0.000000
vn 1.000000 0.000000 0.000000
vn -1.000000 0.000000 0.000000
vn -1.000000 0.000000 0.000000
vn -1.000000 0.000000 0.000000
vn -1.000000 0.000000 0.000000
vn 0.000000 0.359205 0.933259
vn 0.000000 0.359205 0.933259
vn 0.000000 0.359205 0.933259
vn 0.000000 0.359205 0.933259
vn 0.933259 0.359205 0.000000
vn 0.933259 0.359205 0.000000
vn 0.933259 0.359205 0.000000
vn 0.933259 0.359205 0.000000
vn 0.000000 0.359206 -0.933258
vn 0.000000 0.359206 -0.933258
vn 0.000000 0.359205 -0.933259
vn 0.000000 0.359206 -0.933258
vn -0.933258 0.359206 0.000000
vn -0.933258 0.359206 0.000000
vn -0.933258 0.359206 0.000000
vn -0.933258 0.359206 0.000000
vn 0.000000 0.574753 0.818327
vn 0.000000 0.574753 0.818327
vn 0.000000 0.574753 0.818327
vn 0.000000 0.574753 0.818327
vn 0.818328 0.574751 0.000000
vn 0.818328 0.574751 0.000000
vn 0.818328 0.574751 0.000000
vn 0.818328 0.574751 0.000000
vn 0.000000 0.574750 -0.818329
vn 0.000000 0.574750 -0.818329
vn 0.000000 0.574750 -0.818329
vn 0.000000 0.574750 -0.818329
vn -0.818329 0.574750 0.000000
vn -0.818329 0.574750 0.000000
vn -0.818329 0.574750 0.000000
vn -0.818329 0.574750 0.000000
vn 0.000000 0.000000 1.000000
vn 0.000000 0.000000 1.000000
vn 0.000000 0.000000 1.000000
vn 0.000000 0.000000 1.000000
vn 1.000000 0.000000 0.000000
vn 1.000000 0.000000 0.000000
vn 1.000000 0.000000 0.000000
vn 1.000000 0.000000 0.000000
vn 0.000000 0.000000 -1.000000
vn 0.000000 0.000000 -1.000000
vn 0.000000 0.000000 -1.000000
vn 0.000000 0.000000 -1.000000
vn -1.000000 0.000000 0.000000
vn -1.000000 0.000000 0.000000
vn -1.000000 0.000000 0.000000
vn -1.000000 0.000000 0.000000
vn 0.000000 1.000000 0.000000
vn 0.000000 1.000000 0.000000
vn 0.000000 1.000000 0.000000
vn 0.000000 1.000000 0.000000
g foundation_foundation_foundation_pCube23 foundation_foundation_foundation_polySurface1 foundation_foundation_foundation_polySurface3 foundation_foundation_polySurface1 foundation_polySurface1
f 1/1/1 2/2/2 4/3/3 3/4/4
f 5/5/5 6/6/6 8/7/7 7/8/8
f 2/2/9 8/9/10 6/10/11 4/3/12
f 7/11/13 1/1/14 3/4/15 5/12/16
f 3/4/17 4/3/18 10/13/19 9/14/20
f 4/3/21 6/6/22 11/15/23 10/13/24
f 6/6/25 5/5/26 12/16/27 11/15/28
f 5/5/29 3/4/30 9/14/31 12/16/32
f 9/14/33 10/13/34 14/17/35 13/18/36
f 10/13/37 11/15/38 15/19/39 14/17/40
f 11/15/41 12/16/42 16/20/43 15/19/44
f 12/16/45 9/14/46 13/18/47 16/20/48
f 13/18/49 14/17/50 18/21/51 17/22/52
f 14/17/53 15/19/54 19/23/55 18/21/56
f 15/19/57 16/20/58 20/24/59 19/23/60
f 16/20/61 13/18/62 17/22/63 20/24/64
f 18/21/65 19/23/66 20/24/67 17/22/68
