# This file uses centimeters as units for non-parametric coordinates.

v -0.059600 -0.000524 4.059600
v 4.059600 -0.000524 4.059600
v -0.059600 0.075432 4.059600
v 4.059600 0.075432 4.059600
v -0.059600 0.075432 -0.059600
v 4.059600 0.075432 -0.059600
v -0.059600 -0.000524 -0.059600
v 4.059600 -0.000524 -0.059600
v -0.024215 0.098655 4.024215
v 4.024215 0.098655 4.024215
v 4.024215 0.098655 -0.024215
v -0.024215 0.098655 -0.024215
v 0.000001 0.107364 3.999999
v 3.999999 0.107364 3.999999
v 3.999999 0.107364 0.000001
v 0.000001 0.107364 0.000001
v 0.000001 0.122150 3.999999
v 3.999999 0.122150 3.999999
v 3.999999 0.122150 0.000001
v 0.000001 0.122150 0.000001
vt -0.735677 0.457587
vt -0.735677 0.043322
vt -0.704211 0.043322
vt -0.704211 0.457587
vt -0.694591 0.046881
vt -0.694591 0.454029
vt -0.690983 0.049317
vt -0.690983 0.451593
vt -0.684858 0.049317
vt -0.684858 0.451593
vt -0.737426 0.961545
vt -0.737426 0.547280
vt -0.705960 0.547280
vt -0.705960 0.961545
vt -0.696339 0.550838
vt -0.696339 0.957986
vt -0.692731 0.553274
vt -0.692731 0.955551
vt -0.686606 0.553274
vt -0.686606 0.955551
vt -0.418990 0.085948
vt -0.083493 0.085948
vt -0.083493 0.421446
vt -0.418990 0.421446
vt -0.086621 0.583001
vt -0.086621 0.924172
vt -0.427792 0.924172
vt -0.427792 0.583001
vt -0.817569 0.961545
vt -0.817569 0.547280
vt -0.786103 0.547280
vt -0.786103 0.961545
vt -0.776482 0.550838
vt -0.776482 0.957986
vt -0.772874 0.553274
vt -0.772874 0.955551
vt -0.766749 0.553274
vt -0.766749 0.955551
vt -0.803199 0.457587
vt -0.803199 0.043323
vt -0.771733 0.043323
vt -0.771733 0.457587
vt -0.812819 0.454029
vt -0.812819 0.046881
vt -0.816427 0.451593
vt -0.816427 0.049316
vt -0.822553 0.451593
vt -0.822553 0.049316
vn 0.000000 0.000000 1.000000
vn 0.000000 0.000000 1.000000
vn 0.000000 0.000000 1.000000
vn 0.000000 0.000000 1.000000
vn 0.000000 0.000000 -1.000000
vn 0.000000 0.000000 -1.000000
vn 0.000000 0.000000 -1.000000
vn 0.000000 0.000000 -1.000000
vn 0.000000 -1.000000 0.000000
vn 0.000000 -1.000000 0.000000
vn 0.000000 -1.000000 0.000000
vn 0.000000 -1.000000 0.000000
vn 1.000000 0.000000 0.000000
vn 1.000000 0.000000 0.000000
vn 1.000000 0.000000 0.000000
vn 1.000000 0.000000 0.000000
vn -1.000000 0.000000 0.000000
vn -1.000000 0.000000 0.000000
vn -1.000000 0.000000 0.000000
vn -1.000000 0.000000 0.000000
vn 0.000000 0.836027 0.548688
vn 0.000000 0.836027 0.548688
vn 0.000000 0.836027 0.548688
vn 0.000000 0.836027 0.548688
vn 0.548688 0.836027 0.000000
vn 0.548688 0.836027 0.000000
vn 0.548688 0.836027 0.000000
vn 0.548688 0.836027 0.000000
vn 0.000000 0.836028 -0.548687
vn 0.000000 0.836028 -0.548687
vn 0.000000 0.836028 -0.548688
vn 0.000000 0.836028 -0.548687
vn -0.548687 0.836028 0.000000
vn -0.548687 0.836028 0.000000
vn -0.548687 0.836028 0.000000
vn -0.548687 0.836028 0.000000
vn 0.000000 0.940990 0.338435
vn 0.000000 0.940990 0.338435
vn 0.000000 0.940990 0.338435
vn 0.000000 0.940990 0.338435
vn 0.338437 0.940989 0.000000
vn 0.338437 0.940989 0.000000
vn 0.338437 0.940989 0.000000
vn 0.338437 0.940989 0.000000
vn 0.000000 0.940989 -0.338438
vn 0.000000 0.940989 -0.338438
vn 0.000000 0.940989 -0.338438
vn 0.000000 0.940989 -0.338438
vn -0.338438 0.940989 0.000000
vn -0.338438 0.940989 0.000000
vn -0.338438 0.940989 0.000000
vn -0.338438 0.940989 0.000000
vn 0.000000 0.000000 1.000000
vn 0.000000 0.000000 1.000000
vn 0.000000 0.000000 1.000000
vn 0.000000 0.000000 1.000000
vn 1.000000 0.000000 0.000000
vn 1.000000 0.000000 0.000000
vn 1.000000 0.000000 0.000000
vn 1.000000 0.000000 0.000000
vn 0.000000 0.000000 -1.000000
vn 0.000000 0.000000 -1.000000
vn 0.000000 0.000000 -1.000000
vn 0.000000 0.000000 -1.000000
vn -1.000000 0.000000 0.000000
vn -1.000000 0.000000 0.000000
vn -1.000000 0.000000 0.000000
vn -1.000000 0.000000 0.000000
vn 0.000000 1.000000 0.000000
vn 0.000000 1.000000 0.000000
vn 0.000000 1.000000 0.000000
vn 0.000000 1.000000 0.000000
g polySurface3 pCube23
f 1/29/1 2/30/2 4/31/3 3/32/4
f 5/39/5 6/40/6 8/41/7 7/42/8
f 7/21/9 8/22/10 2/23/11 1/24/12
f 2/1/13 8/2/14 6/3/15 4/4/16
f 7/11/17 1/12/18 3/13/19 5/14/20
f 3/32/21 4/31/22 10/33/23 9/34/24
f 4/4/25 6/3/26 11/5/27 10/6/28
f 6/40/29 5/39/30 12/43/31 11/44/32
f 5/14/33 3/13/34 9/15/35 12/16/36
f 9/34/37 10/33/38 14/35/39 13/36/40
f 10/6/41 11/5/42 15/7/43 14/8/44
f 11/44/45 12/43/46 16/45/47 15/46/48
f 12/16/49 9/15/50 13/17/51 16/18/52
f 13/36/53 14/35/54 18/37/55 17/38/56
f 14/8/57 15/7/58 19/9/59 18/10/60
f 15/46/61 16/45/62 20/47/63 19/48/64
f 16/18/65 13/17/66 17/19/67 20/20/68
f 18/25/69 19/26/70 20/27/71 17/28/72
