# This file uses centimeters as units for non-parametric coordinates.

v 2.333068 0.000000 -0.758231
v 1.983933 0.000000 -1.441907
v 1.441348 0.000000 -1.984954
v 0.757373 0.000000 -2.333639
v -0.000927 0.000000 -2.453766
v -0.759325 0.000000 -2.333945
v -1.443951 -0.000000 -1.985855
v -1.992286 0.000000 -1.445882
v -2.346842 0.000000 -0.761433
v -2.465953 0.000000 0.000637
v -2.336705 -0.000000 0.758849
v -1.986193 0.000000 1.442540
v -1.443399 0.000000 1.985601
v -0.759514 -0.000000 2.335040
v -0.000888 -0.000000 2.455970
v 0.758022 -0.000000 2.335793
v 1.442782 -0.000000 1.987283
v 1.984537 -0.000000 1.442708
v 2.332879 -0.000000 0.758455
v 2.452981 -0.000000 0.000157
v 2.303155 0.071247 -0.748544
v 1.955863 0.062033 -1.421521
v 1.423577 0.076012 -1.960485
v 0.747672 0.071868 -2.303784
v -0.000936 0.077407 -2.423594
v -0.750137 0.081375 -2.305610
v -1.426830 0.085271 -1.962176
v -1.969497 0.106064 -1.429247
v -2.319905 0.119812 -0.752580
v -2.437479 0.118042 0.000683
v -2.308532 0.085184 0.749627
v -1.961868 0.077948 1.424870
v -1.425767 0.079234 1.961398
v -0.750513 0.087280 2.307507
v -0.000866 0.090757 2.427507
v 0.749371 0.091479 2.308997
v 1.426434 0.093118 1.964789
v 1.960644 0.079930 1.425407
v 2.304140 0.075433 0.749117
v 2.422773 0.075804 0.000156
v 2.210675 0.121337 -0.718584
v 1.882154 0.148254 -1.367988
v 1.370459 0.165974 -1.887319
v 0.719166 0.154230 -2.216055
v -0.000963 0.174067 -2.333818
v -0.722705 0.184427 -2.220992
v -1.375254 0.193887 -1.890994
v -1.898616 0.220010 -1.377838
v -2.235511 0.226427 -0.725120
v -2.348482 0.222224 0.000696
v -2.223593 0.185347 0.722009
v -1.889619 0.180040 1.372383
v -1.373208 0.178891 1.889221
v -0.723432 0.198546 2.224478
v -0.000841 0.204466 2.340852
v 0.722931 0.208969 2.227291
v 1.375703 0.208436 1.895002
v 1.888621 0.181446 1.373302
v 2.217718 0.161613 0.721052
v 2.332940 0.170657 0.000146
v 2.076182 0.276028 -0.675092
v 1.766846 0.280922 -1.284188
v 1.284052 0.294940 -1.768246
v 0.674414 0.287922 -2.078295
v -0.001020 0.302212 -2.186701
v -0.677489 0.313661 -2.081255
v -1.290514 0.347690 -1.774064
v -1.781280 0.389457 -1.292978
v -2.094668 0.374940 -0.679471
v -2.199290 0.346876 0.000629
v -2.083910 0.324458 0.676820
v -1.771776 0.330937 1.286770
v -1.287096 0.313448 1.770951
v -0.678805 0.352759 2.087565
v -0.000844 0.365739 2.197683
v 0.679099 0.376844 2.091990
v 1.289039 0.339280 1.776072
v 1.765294 0.273876 1.285431
v 2.074630 0.251499 0.674808
v 2.185033 0.287586 0.000002
v 1.890151 0.505500 -0.614801
v 1.609179 0.519520 -1.169775
v 1.166761 0.472725 -1.606072
v 0.611963 0.432606 -1.885933
v -0.001092 0.469078 -1.985670
v -0.615929 0.497287 -1.891505
v -1.173682 0.540485 -1.612693
v -1.618620 0.621762 -1.175174
v -1.898980 0.594870 -0.616246
v -1.993717 0.524387 0.000553
v -1.893021 0.525634 0.615341
v -1.610862 0.539748 1.169814
v -1.169469 0.494895 1.609158
v -0.617145 0.551398 1.898227
v -0.000816 0.569013 1.998686
v 0.617688 0.578370 1.902386
v 1.177071 0.618355 1.620775
v 1.609421 0.542912 1.172282
v 1.876957 0.326677 0.611731
v 1.978859 0.375362 -0.001481
v 1.656134 0.823146 -0.538647
v 1.409880 0.832760 -1.025161
v 1.021752 0.760528 -1.406487
v 0.535370 0.676581 -1.649605
v -0.000953 0.696524 -1.736068
v -0.538476 0.697717 -1.653408
v -1.025913 0.702461 -1.408083
v -1.414749 0.881333 -1.026455
v -1.659046 0.891017 -0.538476
v -1.739288 0.740681 -0.000004
v -1.655875 0.776362 0.538673
v -1.408233 0.730379 1.022301
v -1.022665 0.712489 1.406894
v -0.540003 0.821948 1.659850
v -0.000856 0.831923 1.747266
v 0.539643 0.796006 1.661255
v 1.029154 0.901477 1.415904
v 1.410963 0.872787 1.027558
v 1.642041 0.590211 0.535960
v 1.732794 0.670141 -0.001715
v 1.376399 1.039717 -0.447571
v 1.171953 1.096924 -0.852145
v 0.850317 1.053779 -1.170843
v 0.445885 1.006979 -1.374454
v -0.000353 0.952486 -1.443726
v -0.446885 0.905772 -1.373147
v -0.851238 0.859147 -1.167706
v -1.175242 1.065013 -0.851383
v -1.380209 1.131379 -0.447657
v -1.448038 1.043585 0.000343
v -1.376344 0.974447 0.447485
v -1.171382 0.977503 0.850477
v -0.849707 0.923292 1.168637
v -0.447430 0.981483 1.375991
v -0.000669 0.991744 1.447351
v 0.446910 1.069872 1.377849
v 0.853104 1.157752 1.173784
v 1.172679 1.147332 0.853353
v 1.374817 1.045054 0.447149
v 1.445265 1.025950 -0.000693
v 1.061920 1.144533 -0.345015
v 0.903104 1.157892 -0.656442
v 0.655747 1.166512 -0.903308
v 0.344317 1.198203 -1.062044
v -0.000484 1.186812 -1.116372
v -0.345094 1.123006 -1.060494
v -0.655854 1.047888 -0.900741
v -0.904216 1.173619 -0.655692
v -1.063712 1.222412 -0.344849
v -1.117205 1.159151 0.000256
v -1.061592 1.095258 0.344827
v -0.902823 1.067505 0.655434
v -0.655949 1.079713 0.902133
v -0.345374 1.119582 1.061386
v -0.000581 1.109458 1.116240
v 0.344622 1.154971 1.061947
v 0.656788 1.244796 0.904426
v 0.903959 1.244765 0.657588
v 1.061647 1.198055 0.345197
v 1.116695 1.200708 -0.000123
v 0.761117 1.183188 -0.247439
v 0.647409 1.188748 -0.470843
v 0.470191 1.197348 -0.648230
v 0.246826 1.219746 -0.762370
v -0.000802 1.236016 -0.801694
v -0.248483 1.231499 -0.762196
v -0.471927 1.229586 -0.648207
v -0.649275 1.238056 -0.470964
v -0.763055 1.224550 -0.247492
v -0.802049 1.196438 0.000187
v -0.762684 1.177428 0.247673
v -0.648825 1.161346 0.470894
v -0.471656 1.159008 0.648157
v -0.248424 1.165234 0.762057
v -0.000914 1.165123 0.801237
v 0.246728 1.173176 0.762082
v 0.470244 1.194373 0.648506
v 0.647475 1.197346 0.471241
v 0.761091 1.185428 0.247760
v 0.800280 1.181661 0.000163
v 0.384770 1.293159 -0.125152
v 0.327173 1.294021 -0.238189
v 0.237463 1.295128 -0.327912
v 0.124420 1.297537 -0.385551
v -0.000894 1.301064 -0.405454
v -0.126215 1.304523 -0.385649
v -0.239269 1.306762 -0.328071
v -0.328978 1.304170 -0.238343
v -0.386554 1.294271 -0.125249
v -0.406367 1.281434 0.000107
v -0.386491 1.271527 0.125427
v -0.328873 1.265677 0.238454
v -0.239155 1.263687 0.328144
v -0.126117 1.265341 0.385725
v -0.000821 1.269777 0.405564
v 0.124472 1.275487 0.385720
v 0.237497 1.281117 0.328133
v 0.327192 1.285842 0.238442
v 0.384778 1.289376 0.125423
v 0.404618 1.291748 0.000138
vt 0.975622 0.654369
vt 0.904644 0.793358
vt 0.898938 0.789213
vt 0.969541 0.652400
vt 0.794339 0.903757
vt 0.790726 0.898783
vt 0.655290 0.974643
vt 0.653317 0.968574
vt 0.501130 0.999065
vt 0.501128 0.992931
vt 0.346951 0.974706
vt 0.348819 0.968945
vt 0.207769 0.903940
vt 0.211250 0.899127
vt 0.096295 0.794166
vt 0.100928 0.790784
vt 0.024215 0.655020
vt 0.029691 0.653221
vt 0.000000 0.500094
vt 0.005789 0.500085
vt 0.026276 0.345953
vt 0.032003 0.347828
vt 0.097533 0.206961
vt 0.102479 0.210554
vt 0.207881 0.096559
vt 0.211466 0.101480
vt 0.346912 0.025519
vt 0.348742 0.031117
vt 0.501138 0.000935
vt 0.501143 0.006721
vt 0.655421 0.025366
vt 0.653663 0.030814
vt 0.794631 0.096217
vt 0.791307 0.100790
vt 0.904767 0.206927
vt 0.899910 0.210444
vt 0.975584 0.346033
vt 0.969741 0.347931
vt 1.000000 0.500192
vt 0.993859 0.500192
vt 0.883953 0.778331
vt 0.950740 0.646309
vt 0.779928 0.883909
vt 0.647522 0.950739
vt 0.501123 0.974680
vt 0.354396 0.951743
vt 0.221735 0.884655
vt 0.115337 0.780333
vt 0.046848 0.647638
vt 0.023881 0.500082
vt 0.049271 0.353442
vt 0.117167 0.221224
vt 0.222151 0.116153
vt 0.354248 0.047996
vt 0.501148 0.024338
vt 0.648288 0.047424
vt 0.780993 0.114977
vt 0.885268 0.221037
vt 0.952172 0.353637
vt 0.975596 0.500194
vt 0.860511 0.761294
vt 0.923398 0.637467
vt 0.762361 0.859701
vt 0.638424 0.922733
vt 0.501111 0.944772
vt 0.363588 0.923335
vt 0.238962 0.860884
vt 0.139191 0.763081
vt 0.075481 0.638358
vt 0.054212 0.500096
vt 0.077668 0.362629
vt 0.141124 0.238629
vt 0.239657 0.140197
vt 0.363320 0.075830
vt 0.501147 0.053444
vt 0.639377 0.074931
vt 0.763375 0.139155
vt 0.860196 0.238901
vt 0.923083 0.363038
vt 0.945527 0.500223
vt 0.828458 0.738034
vt 0.885579 0.625211
vt 0.738517 0.826732
vt 0.625728 0.883627
vt 0.501097 0.903903
vt 0.376103 0.884759
vt 0.262714 0.828078
vt 0.172259 0.739132
vt 0.115263 0.625504
vt 0.096004 0.500112
vt 0.116475 0.375127
vt 0.173837 0.262405
vt 0.263570 0.173089
vt 0.375856 0.114322
vt 0.501153 0.093899
vt 0.626892 0.113476
vt 0.740613 0.170727
vt 0.828508 0.261904
vt 0.882897 0.375861
vt 0.903613 0.500525
vt 0.787942 0.708635
vt 0.838004 0.609729
vt 0.709037 0.786157
vt 0.610157 0.835582
vt 0.501125 0.853160
vt 0.391849 0.836355
vt 0.292755 0.786482
vt 0.213706 0.708898
vt 0.164041 0.609694
vt 0.147728 0.500225
vt 0.164686 0.390714
vt 0.215031 0.292394
vt 0.293415 0.214208
vt 0.391538 0.162783
vt 0.501145 0.145012
vt 0.611026 0.162497
vt 0.710541 0.212376
vt 0.788162 0.291326
vt 0.835139 0.391265
vt 0.853589 0.500573
vt 0.739572 0.673462
vt 0.781135 0.591213
vt 0.674185 0.738252
vt 0.591965 0.779645
vt 0.501247 0.793728
vt 0.410469 0.779379
vt 0.328265 0.737614
vt 0.262397 0.673307
vt 0.220728 0.591231
vt 0.206938 0.500154
vt 0.221513 0.409252
vt 0.263181 0.327325
vt 0.328577 0.262645
vt 0.410358 0.220490
vt 0.501183 0.205983
vt 0.592174 0.220113
vt 0.674751 0.261598
vt 0.739720 0.326741
vt 0.780813 0.409320
vt 0.795135 0.500365
vt 0.684916 0.633676
vt 0.717203 0.570364
vt 0.634629 0.683863
vt 0.571317 0.716133
vt 0.501220 0.727178
vt 0.431162 0.715818
vt 0.367986 0.683341
vt 0.317495 0.633524
vt 0.285070 0.570330
vt 0.274195 0.500172
vt 0.285501 0.430122
vt 0.317778 0.366977
vt 0.367967 0.316824
vt 0.431105 0.284448
vt 0.501200 0.273297
vt 0.571379 0.284334
vt 0.634841 0.316358
vt 0.685090 0.366539
vt 0.717147 0.430047
vt 0.728338 0.500249
vt 0.632934 0.595944
vt 0.656051 0.550527
vt 0.596907 0.632007
vt 0.551497 0.655211
vt 0.501155 0.663205
vt 0.450803 0.655175
vt 0.405378 0.632002
vt 0.369324 0.595969
vt 0.346193 0.550538
vt 0.338265 0.500186
vt 0.346268 0.449873
vt 0.369415 0.404493
vt 0.405433 0.368456
vt 0.450815 0.345301
vt 0.501133 0.337336
vt 0.551478 0.345296
vt 0.596917 0.368385
vt 0.632948 0.404423
vt 0.656045 0.449855
vt 0.664012 0.500191
vt 0.567832 0.548647
vt 0.579541 0.525667
vt 0.549594 0.566887
vt 0.526613 0.578605
vt 0.501137 0.582651
vt 0.475660 0.578625
vt 0.452676 0.566919
vt 0.434439 0.548678
vt 0.422734 0.525687
vt 0.418706 0.500202
vt 0.422747 0.474725
vt 0.434460 0.451747
vt 0.452699 0.433514
vt 0.475680 0.421808
vt 0.501152 0.417774
vt 0.526623 0.421809
vt 0.549601 0.433516
vt 0.567835 0.451750
vt 0.579542 0.474726
vt 0.583576 0.500196
vn 0.866517 0.414856 -0.277566
vn 0.727643 0.434601 -0.530714
vn 0.624902 0.635220 -0.453865
vn 0.723443 0.647868 -0.238531
vn 0.535399 0.405014 -0.741155
vn 0.473009 0.598464 -0.646609
vn 0.285099 0.382883 -0.878703
vn 0.250686 0.585084 -0.771255
vn -0.002754 0.366980 -0.930225
vn 0.001331 0.560540 -0.828126
vn -0.292014 0.343351 -0.892658
vn -0.261096 0.528033 -0.808090
vn -0.561773 0.309054 -0.767396
vn -0.505744 0.494823 -0.706663
vn -0.782129 0.263583 -0.564622
vn -0.712280 0.461485 -0.528857
vn -0.924093 0.237727 -0.299230
vn -0.849913 0.446846 -0.279242
vn -0.967641 0.252312 -0.003146
vn -0.884603 0.466261 0.008860
vn -0.907092 0.305704 0.289359
vn -0.816643 0.506666 0.276375
vn -0.758450 0.350013 0.549767
vn -0.682043 0.536013 0.497502
vn -0.549931 0.344798 0.760717
vn -0.500782 0.527544 0.686232
vn -0.290538 0.319944 0.901789
vn -0.269671 0.500717 0.822533
vn 0.000630 0.301841 0.953358
vn -0.001023 0.478808 0.877919
vn 0.295631 0.293380 0.909137
vn 0.272171 0.469710 0.839818
vn 0.558352 0.302050 0.772663
vn 0.516275 0.483415 0.706944
vn 0.759774 0.335539 0.556918
vn 0.689533 0.526946 0.496862
vn 0.885157 0.364811 0.288809
vn 0.785340 0.564347 0.254468
vn 0.925469 0.378822 0.001291
vn 0.798846 0.601535 -0.000090
vn 0.551809 0.740414 -0.383788
vn 0.623967 0.751558 -0.214071
vn 0.402628 0.734894 -0.545730
vn 0.213028 0.732262 -0.646848
vn 0.011466 0.722399 -0.691381
vn -0.212369 0.698121 -0.683760
vn -0.423856 0.663219 -0.616836
vn -0.602443 0.650779 -0.462114
vn -0.700927 0.675012 -0.230348
vn -0.712026 0.701743 0.023984
vn -0.674913 0.696075 0.244891
vn -0.583030 0.690265 0.428499
vn -0.435597 0.684123 0.585005
vn -0.242865 0.662775 0.708340
vn -0.005086 0.637717 0.770254
vn 0.236637 0.640439 0.730644
vn 0.439322 0.686688 0.579186
vn 0.546168 0.751871 0.369312
vn 0.601571 0.775432 0.191878
vn 0.643476 0.765388 -0.010954
vn 0.591219 0.692231 -0.413855
vn 0.667870 0.713032 -0.213390
vn 0.393294 0.738774 -0.547296
vn 0.203153 0.763485 -0.613042
vn 0.020023 0.760521 -0.649005
vn -0.186748 0.736390 -0.650273
vn -0.389406 0.697478 -0.601571
vn -0.583839 0.677011 -0.448094
vn -0.683729 0.700632 -0.204033
vn -0.680276 0.732301 0.030969
vn -0.655042 0.719838 0.229679
vn -0.565370 0.710376 0.419192
vn -0.422101 0.713091 0.559761
vn -0.244744 0.703621 0.667096
vn -0.011442 0.683809 0.729571
vn 0.230983 0.670904 0.704652
vn 0.465055 0.671041 0.577433
vn 0.577348 0.739989 0.345088
vn 0.520747 0.839420 0.155549
vn 0.570945 0.820909 0.011386
vn 0.610880 0.646562 -0.456928
vn 0.722860 0.667616 -0.178220
vn 0.390620 0.695482 -0.603092
vn 0.201632 0.742447 -0.638841
vn 0.028621 0.757985 -0.651643
vn -0.167579 0.760365 -0.627504
vn -0.333634 0.739998 -0.584030
vn -0.553311 0.701534 -0.449107
vn -0.699881 0.692590 -0.174601
vn -0.695393 0.717316 0.043438
vn -0.651851 0.727523 0.214009
vn -0.538829 0.734089 0.413252
vn -0.419382 0.726659 0.544138
vn -0.261596 0.709011 0.654883
vn -0.011798 0.704307 0.709798
vn 0.210122 0.688432 0.694197
vn 0.473307 0.638546 0.606827
vn 0.684204 0.646320 0.337838
vn 0.659246 0.737869 0.144720
vn 0.656799 0.749393 0.083819
vn 0.575626 0.683013 -0.449609
vn 0.723350 0.676175 -0.139832
vn 0.367127 0.675443 -0.639527
vn 0.190849 0.694516 -0.693703
vn 0.011480 0.743772 -0.668335
vn -0.175464 0.799984 -0.573793
vn -0.243382 0.806054 -0.539483
vn -0.436505 0.776413 -0.454585
vn -0.669049 0.729831 -0.140427
vn -0.687924 0.722166 0.072367
vn -0.616669 0.759004 0.208884
vn -0.487829 0.776176 0.399467
vn -0.403438 0.770387 0.493701
vn -0.260587 0.776448 0.573779
vn -0.010716 0.768215 0.640102
vn 0.154459 0.739038 0.655718
vn 0.394569 0.710646 0.582492
vn 0.696763 0.654137 0.294324
vn 0.779984 0.609315 0.142693
vn 0.765797 0.634099 0.107112
vn 0.410836 0.857063 -0.310898
vn 0.545274 0.832453 -0.098477
vn 0.282503 0.804165 -0.522982
vn 0.144095 0.766581 -0.625772
vn -0.047380 0.780535 -0.623314
vn -0.232344 0.825051 -0.515079
vn -0.189675 0.846742 -0.497043
vn -0.230916 0.871163 -0.433305
vn -0.490564 0.865854 -0.098202
vn -0.548634 0.826538 0.125837
vn -0.480517 0.852149 0.207232
vn -0.380959 0.862051 0.334273
vn -0.333347 0.858587 0.389498
vn -0.211350 0.892067 0.399434
vn -0.039367 0.887724 0.458689
vn 0.042009 0.853349 0.519644
vn 0.243692 0.853029 0.461471
vn 0.559900 0.798195 0.222253
vn 0.695332 0.709942 0.111782
vn 0.662270 0.747150 0.056254
vn 0.167691 0.981537 -0.092000
vn 0.232029 0.970305 -0.068343
vn 0.144124 0.966752 -0.211232
vn 0.088066 0.934708 -0.344333
vn -0.084448 0.897997 -0.431822
vn -0.260136 0.872790 -0.412997
vn -0.195542 0.878227 -0.436441
vn -0.100744 0.930713 -0.351602
vn -0.196862 0.979886 -0.032682
vn -0.247487 0.955182 0.162408
vn -0.249429 0.951141 0.181977
vn -0.225823 0.951198 0.210300
vn -0.225968 0.941291 0.250817
vn -0.142647 0.951139 0.273838
vn -0.064404 0.960782 0.269721
vn -0.101898 0.967070 0.233221
vn -0.014525 0.988451 0.150840
vn 0.169112 0.985434 0.017912
vn 0.265552 0.964082 -0.005353
vn 0.271411 0.961771 -0.036509
vn 0.148999 0.986004 -0.074804
vn 0.142167 0.987803 -0.063512
vn 0.132774 0.987047 -0.090051
vn 0.090254 0.989815 -0.110092
vn -0.028250 0.985059 -0.169883
vn -0.161652 0.957930 -0.237148
vn -0.166701 0.943430 -0.286619
vn -0.114086 0.974873 -0.191330
vn -0.123634 0.992079 0.022211
vn -0.157623 0.979220 0.127605
vn -0.192646 0.968276 0.159153
vn -0.197440 0.963621 0.180145
vn -0.169359 0.969453 0.177423
vn -0.086714 0.979083 0.184059
vn -0.032405 0.981465 0.188881
vn -0.067240 0.986335 0.150406
vn -0.054380 0.996637 0.061294
vn 0.025866 0.999457 -0.020403
vn 0.070125 0.997394 -0.016950
vn 0.097255 0.994774 -0.031094
vn 0.219810 0.966439 -0.132961
vn 0.256581 0.963954 -0.070425
vn 0.175912 0.970848 -0.162819
vn 0.117922 0.978809 -0.167415
vn 0.024574 0.985076 -0.170358
vn -0.057537 0.983782 -0.169888
vn -0.100780 0.983007 -0.153428
vn -0.148549 0.985585 -0.080967
vn -0.193836 0.980696 0.025747
vn -0.207809 0.973885 0.091458
vn -0.200952 0.970227 0.135195
vn -0.184195 0.966972 0.176175
vn -0.154074 0.966850 0.203623
vn -0.091903 0.968170 0.232809
vn -0.022640 0.967080 0.253464
vn 0.025039 0.968111 0.249266
vn 0.092763 0.974385 0.204864
vn 0.182052 0.974796 0.128958
vn 0.242285 0.968132 0.063394
vn 0.265311 0.964162 0.001354
g polySurface2 polySurface1
f 1/1/1 2/2/2 22/3/3 21/4/4
f 2/2/2 3/5/5 23/6/6 22/3/3
f 3/5/5 4/7/7 24/8/8 23/6/6
f 4/7/7 5/9/9 25/10/10 24/8/8
f 5/9/9 6/11/11 26/12/12 25/10/10
f 6/11/11 7/13/13 27/14/14 26/12/12
f 7/13/13 8/15/15 28/16/16 27/14/14
f 8/15/15 9/17/17 29/18/18 28/16/16
f 9/17/17 10/19/19 30/20/20 29/18/18
f 10/19/19 11/21/21 31/22/22 30/20/20
f 11/21/21 12/23/23 32/24/24 31/22/22
f 12/23/23 13/25/25 33/26/26 32/24/24
f 13/25/25 14/27/27 34/28/28 33/26/26
f 14/27/27 15/29/29 35/30/30 34/28/28
f 15/29/29 16/31/31 36/32/32 35/30/30
f 16/31/31 17/33/33 37/34/34 36/32/32
f 17/33/33 18/35/35 38/36/36 37/34/34
f 18/35/35 19/37/37 39/38/38 38/36/36
f 19/37/37 20/39/39 40/40/40 39/38/38
f 20/39/39 1/1/1 21/4/4 40/40/40
f 21/4/4 22/3/3 42/41/41 41/42/42
f 22/3/3 23/6/6 43/43/43 42/41/41
f 23/6/6 24/8/8 44/44/44 43/43/43
f 24/8/8 25/10/10 45/45/45 44/44/44
f 25/10/10 26/12/12 46/46/46 45/45/45
f 26/12/12 27/14/14 47/47/47 46/46/46
f 27/14/14 28/16/16 48/48/48 47/47/47
f 28/16/16 29/18/18 49/49/49 48/48/48
f 29/18/18 30/20/20 50/50/50 49/49/49
f 30/20/20 31/22/22 51/51/51 50/50/50
f 31/22/22 32/24/24 52/52/52 51/51/51
f 32/24/24 33/26/26 53/53/53 52/52/52
f 33/26/26 34/28/28 54/54/54 53/53/53
f 34/28/28 35/30/30 55/55/55 54/54/54
f 35/30/30 36/32/32 56/56/56 55/55/55
f 36/32/32 37/34/34 57/57/57 56/56/56
f 37/34/34 38/36/36 58/58/58 57/57/57
f 38/36/36 39/38/38 59/59/59 58/58/58
f 39/38/38 40/40/40 60/60/60 59/59/59
f 40/40/40 21/4/4 41/42/42 60/60/60
f 41/42/42 42/41/41 62/61/61 61/62/62
f 42/41/41 43/43/43 63/63/63 62/61/61
f 43/43/43 44/44/44 64/64/64 63/63/63
f 44/44/44 45/45/45 65/65/65 64/64/64
f 45/45/45 46/46/46 66/66/66 65/65/65
f 46/46/46 47/47/47 67/67/67 66/66/66
f 47/47/47 48/48/48 68/68/68 67/67/67
f 48/48/48 49/49/49 69/69/69 68/68/68
f 49/49/49 50/50/50 70/70/70 69/69/69
f 50/50/50 51/51/51 71/71/71 70/70/70
f 51/51/51 52/52/52 72/72/72 71/71/71
f 52/52/52 53/53/53 73/73/73 72/72/72
f 53/53/53 54/54/54 74/74/74 73/73/73
f 54/54/54 55/55/55 75/75/75 74/74/74
f 55/55/55 56/56/56 76/76/76 75/75/75
f 56/56/56 57/57/57 77/77/77 76/76/76
f 57/57/57 58/58/58 78/78/78 77/77/77
f 58/58/58 59/59/59 79/79/79 78/78/78
f 59/59/59 60/60/60 80/80/80 79/79/79
f 60/60/60 41/42/42 61/62/62 80/80/80
f 61/62/62 62/61/61 82/81/81 81/82/82
f 62/61/61 63/63/63 83/83/83 82/81/81
f 63/63/63 64/64/64 84/84/84 83/83/83
f 64/64/64 65/65/65 85/85/85 84/84/84
f 65/65/65 66/66/66 86/86/86 85/85/85
f 66/66/66 67/67/67 87/87/87 86/86/86
f 67/67/67 68/68/68 88/88/88 87/87/87
f 68/68/68 69/69/69 89/89/89 88/88/88
f 69/69/69 70/70/70 90/90/90 89/89/89
f 70/70/70 71/71/71 91/91/91 90/90/90
f 71/71/71 72/72/72 92/92/92 91/91/91
f 72/72/72 73/73/73 93/93/93 92/92/92
f 73/73/73 74/74/74 94/94/94 93/93/93
f 74/74/74 75/75/75 95/95/95 94/94/94
f 75/75/75 76/76/76 96/96/96 95/95/95
f 76/76/76 77/77/77 97/97/97 96/96/96
f 77/77/77 78/78/78 98/98/98 97/97/97
f 78/78/78 79/79/79 99/99/99 98/98/98
f 79/79/79 80/80/80 100/100/100 99/99/99
f 80/80/80 61/62/62 81/82/82 100/100/100
f 81/82/82 82/81/81 102/101/101 101/102/102
f 82/81/81 83/83/83 103/103/103 102/101/101
f 83/83/83 84/84/84 104/104/104 103/103/103
f 84/84/84 85/85/85 105/105/105 104/104/104
f 85/85/85 86/86/86 106/106/106 105/105/105
f 86/86/86 87/87/87 107/107/107 106/106/106
f 87/87/87 88/88/88 108/108/108 107/107/107
f 88/88/88 89/89/89 109/109/109 108/108/108
f 89/89/89 90/90/90 110/110/110 109/109/109
f 90/90/90 91/91/91 111/111/111 110/110/110
f 91/91/91 92/92/92 112/112/112 111/111/111
f 92/92/92 93/93/93 113/113/113 112/112/112
f 93/93/93 94/94/94 114/114/114 113/113/113
f 94/94/94 95/95/95 115/115/115 114/114/114
f 95/95/95 96/96/96 116/116/116 115/115/115
f 96/96/96 97/97/97 117/117/117 116/116/116
f 97/97/97 98/98/98 118/118/118 117/117/117
f 98/98/98 99/99/99 119/119/119 118/118/118
f 99/99/99 100/100/100 120/120/120 119/119/119
f 100/100/100 81/82/82 101/102/102 120/120/120
f 101/102/102 102/101/101 122/121/121 121/122/122
f 102/101/101 103/103/103 123/123/123 122/121/121
f 103/103/103 104/104/104 124/124/124 123/123/123
f 104/104/104 105/105/105 125/125/125 124/124/124
f 105/105/105 106/106/106 126/126/126 125/125/125
f 106/106/106 107/107/107 127/127/127 126/126/126
f 107/107/107 108/108/108 128/128/128 127/127/127
f 108/108/108 109/109/109 129/129/129 128/128/128
f 109/109/109 110/110/110 130/130/130 129/129/129
f 110/110/110 111/111/111 131/131/131 130/130/130
f 111/111/111 112/112/112 132/132/132 131/131/131
f 112/112/112 113/113/113 133/133/133 132/132/132
f 113/113/113 114/114/114 134/134/134 133/133/133
f 114/114/114 115/115/115 135/135/135 134/134/134
f 115/115/115 116/116/116 136/136/136 135/135/135
f 116/116/116 117/117/117 137/137/137 136/136/136
f 117/117/117 118/118/118 138/138/138 137/137/137
f 118/118/118 119/119/119 139/139/139 138/138/138
f 119/119/119 120/120/120 140/140/140 139/139/139
f 120/120/120 101/102/102 121/122/122 140/140/140
f 121/122/122 122/121/121 142/141/141 141/142/142
f 122/121/121 123/123/123 143/143/143 142/141/141
f 123/123/123 124/124/124 144/144/144 143/143/143
f 124/124/124 125/125/125 145/145/145 144/144/144
f 125/125/125 126/126/126 146/146/146 145/145/145
f 126/126/126 127/127/127 147/147/147 146/146/146
f 127/127/127 128/128/128 148/148/148 147/147/147
f 128/128/128 129/129/129 149/149/149 148/148/148
f 129/129/129 130/130/130 150/150/150 149/149/149
f 130/130/130 131/131/131 151/151/151 150/150/150
f 131/131/131 132/132/132 152/152/152 151/151/151
f 132/132/132 133/133/133 153/153/153 152/152/152
f 133/133/133 134/134/134 154/154/154 153/153/153
f 134/134/134 135/135/135 155/155/155 154/154/154
f 135/135/135 136/136/136 156/156/156 155/155/155
f 136/136/136 137/137/137 157/157/157 156/156/156
f 137/137/137 138/138/138 158/158/158 157/157/157
f 138/138/138 139/139/139 159/159/159 158/158/158
f 139/139/139 140/140/140 160/160/160 159/159/159
f 140/140/140 121/122/122 141/142/142 160/160/160
f 141/142/142 142/141/141 162/161/161 161/162/162
f 142/141/141 143/143/143 163/163/163 162/161/161
f 143/143/143 144/144/144 164/164/164 163/163/163
f 144/144/144 145/145/145 165/165/165 164/164/164
f 145/145/145 146/146/146 166/166/166 165/165/165
f 146/146/146 147/147/147 167/167/167 166/166/166
f 147/147/147 148/148/148 168/168/168 167/167/167
f 148/148/148 149/149/149 169/169/169 168/168/168
f 149/149/149 150/150/150 170/170/170 169/169/169
f 150/150/150 151/151/151 171/171/171 170/170/170
f 151/151/151 152/152/152 172/172/172 171/171/171
f 152/152/152 153/153/153 173/173/173 172/172/172
f 153/153/153 154/154/154 174/174/174 173/173/173
f 154/154/154 155/155/155 175/175/175 174/174/174
f 155/155/155 156/156/156 176/176/176 175/175/175
f 156/156/156 157/157/157 177/177/177 176/176/176
f 157/157/157 158/158/158 178/178/178 177/177/177
f 158/158/158 159/159/159 179/179/179 178/178/178
f 159/159/159 160/160/160 180/180/180 179/179/179
f 160/160/160 141/142/142 161/162/162 180/180/180
f 161/162/162 162/161/161 182/181/181 181/182/182
f 162/161/161 163/163/163 183/183/183 182/181/181
f 163/163/163 164/164/164 184/184/184 183/183/183
f 164/164/164 165/165/165 185/185/185 184/184/184
f 165/165/165 166/166/166 186/186/186 185/185/185
f 166/166/166 167/167/167 187/187/187 186/186/186
f 167/167/167 168/168/168 188/188/188 187/187/187
f 168/168/168 169/169/169 189/189/189 188/188/188
f 169/169/169 170/170/170 190/190/190 189/189/189
f 170/170/170 171/171/171 191/191/191 190/190/190
f 171/171/171 172/172/172 192/192/192 191/191/191
f 172/172/172 173/173/173 193/193/193 192/192/192
f 173/173/173 174/174/174 194/194/194 193/193/193
f 174/174/174 175/175/175 195/195/195 194/194/194
f 175/175/175 176/176/176 196/196/196 195/195/195
f 176/176/176 177/177/177 197/197/197 196/196/196
f 177/177/177 178/178/178 198/198/198 197/197/197
f 178/178/178 179/179/179 199/199/199 198/198/198
f 179/179/179 180/180/180 200/200/200 199/199/199
f 180/180/180 161/162/162 181/182/182 200/200/200
