# This file uses centimeters as units for non-parametric coordinates.

v 0.000000 1.000000 4.100000
v 0.000000 1.000000 4.000000
v 0.000000 0.000000 4.100000
v 0.000000 0.000000 4.000000
v 4.000000 0.000000 4.100000
v 4.000000 0.000000 4.000000
v 4.000000 1.000000 4.100000
v 4.000000 1.000000 4.000000
vt -0.422944 0.202003
vt -0.430466 0.202003
vt -0.430466 0.126783
vt -0.422944 0.126783
vt -0.421146 0.126783
vt -0.413624 0.126783
vt -0.413624 0.202003
vt -0.421146 0.202003
vt -0.596241 0.427663
vt -0.603763 0.427663
vt -0.603763 0.126783
vt -0.596241 0.126783
vt -0.594388 0.126783
vt -0.586866 0.126783
vt -0.586866 0.427663
vt -0.594388 0.427663
vt -0.311370 0.893640
vt -0.311370 0.622264
vt -0.243526 0.622264
vt -0.243526 0.893640
vt -0.718700 0.634800
vt -0.718700 0.904554
vt -0.786139 0.904554
vt -0.786139 0.634800
vn -1.000000 0.000000 0.000000
vn -1.000000 0.000000 0.000000
vn -1.000000 0.000000 0.000000
vn -1.000000 0.000000 0.000000
vn 0.000000 -1.000000 0.000000
vn 0.000000 -1.000000 0.000000
vn 0.000000 -1.000000 0.000000
vn 0.000000 -1.000000 0.000000
vn 1.000000 0.000000 0.000000
vn 1.000000 0.000000 0.000000
vn 1.000000 0.000000 0.000000
vn 1.000000 0.000000 0.000000
vn 0.000000 1.000000 0.000000
vn 0.000000 1.000000 0.000000
vn 0.000000 1.000000 0.000000
vn 0.000000 1.000000 0.000000
vn 0.000000 0.000000 -1.000000
vn 0.000000 0.000000 -1.000000
vn 0.000000 0.000000 -1.000000
vn 0.000000 0.000000 -1.000000
vn 0.000000 0.000000 1.000000
vn 0.000000 0.000000 1.000000
vn 0.000000 0.000000 1.000000
vn 0.000000 0.000000 1.000000
g pCube24
f 1/1/1 2/2/2 4/3/3 3/4/4
f 3/9/5 4/10/6 6/11/7 5/12/8
f 5/5/9 6/6/10 8/7/11 7/8/12
f 7/13/13 8/14/14 2/15/15 1/16/16
f 2/17/17 8/18/18 6/19/19 4/20/20
f 7/21/21 1/22/22 3/23/23 5/24/24
